<svg xmlns="http://www.w3.org/2000/svg" xmlns:xlink="http://www.w3.org/1999/xlink" width="32" height="32" viewBox="0 0 32 32">
  <defs>
    <style>
      .cls-1 {
        fill: url(#linear-gradient);
      }
    </style>
    <linearGradient id="linear-gradient" x1="0.5" x2="0.5" y2="1" gradientUnits="objectBoundingBox">
      <stop offset="0" stop-color="#112436"/>
      <stop offset="1" stop-color="#235684"/>
    </linearGradient>
  </defs>
  <path id="phone-call_4_" data-name="phone-call(4)" class="cls-1" d="M17.349,1.336A1.336,1.336,0,0,1,18.684,0,13.37,13.37,0,0,1,32.04,13.356a1.336,1.336,0,0,1-2.671,0A10.7,10.7,0,0,0,18.684,2.672a1.336,1.336,0,0,1-1.336-1.336Zm1.336,6.678a5.342,5.342,0,0,1,5.342,5.342,1.336,1.336,0,0,0,2.671,0,8.021,8.021,0,0,0-8.013-8.013,1.336,1.336,0,1,0,0,2.671ZM30.828,22.356a4.14,4.14,0,0,1,0,5.847l-1.215,1.4C18.675,40.076-7.942,13.465,2.368,2.493L3.9,1.157a4.115,4.115,0,0,1,5.779.053c.041.041,2.516,3.256,2.516,3.256a4.14,4.14,0,0,1-.009,5.719L10.643,12.13A17.069,17.069,0,0,0,19.9,21.405l1.957-1.556a4.14,4.14,0,0,1,5.717-.008S30.787,22.315,30.828,22.356ZM28.991,24.3s-3.2-2.459-3.237-2.5a1.469,1.469,0,0,0-2.069,0c-.036.037-2.73,2.184-2.73,2.184a1.336,1.336,0,0,1-1.307.2A20.045,20.045,0,0,1,7.866,12.421a1.336,1.336,0,0,1,.194-1.336s2.146-2.7,2.182-2.73a1.469,1.469,0,0,0,0-2.069c-.041-.04-2.5-3.239-2.5-3.239A1.469,1.469,0,0,0,5.726,3.1L4.19,4.436C-3.345,13.5,19.721,35.282,27.66,27.779l1.217-1.4a1.5,1.5,0,0,0,.114-2.079Z" transform="translate(-0.039 0.002)"/>
</svg>
