<svg xmlns="http://www.w3.org/2000/svg" xmlns:xlink="http://www.w3.org/1999/xlink" width="33.053" height="32" viewBox="0 0 33.053 32">
  <defs>
    <style>
      .cls-1 {
        fill: url(#linear-gradient);
      }
    </style>
    <linearGradient id="linear-gradient" x1="0.5" x2="0.5" y2="1" gradientUnits="objectBoundingBox">
      <stop offset="0" stop-color="#112436"/>
      <stop offset="1" stop-color="#235684"/>
    </linearGradient>
  </defs>
  <path id="star" class="cls-1" d="M32.83,12.042a4.379,4.379,0,0,0-4.225-3.066H22.587l-1.828-5.7a4.445,4.445,0,0,0-8.466,0l-1.828,5.7H4.447A4.445,4.445,0,0,0,1.83,17.009l4.9,3.581L4.866,26.357a4.446,4.446,0,0,0,6.865,4.951l4.795-3.529,4.8,3.525a4.445,4.445,0,0,0,6.864-4.946L26.324,20.59l4.9-3.581A4.376,4.376,0,0,0,32.83,12.042ZM29.6,14.784l-5.708,4.172a1.377,1.377,0,0,0-.5,1.537L25.565,27.2a1.69,1.69,0,0,1-2.61,1.88L17.342,24.95a1.377,1.377,0,0,0-1.631,0L10.1,29.082A1.69,1.69,0,0,1,7.481,27.2l2.176-6.708a1.377,1.377,0,0,0-.5-1.537L3.45,14.784a1.69,1.69,0,0,1,1-3.054h7.025a1.377,1.377,0,0,0,1.311-.956L14.919,4.12a1.69,1.69,0,0,1,3.218,0l2.135,6.654a1.377,1.377,0,0,0,1.311.956h7.025a1.69,1.69,0,0,1,1,3.054Z" transform="translate(-0.008 -0.19)"/>
</svg>
