<svg xmlns="http://www.w3.org/2000/svg" xmlns:xlink="http://www.w3.org/1999/xlink" width="32" height="32" viewBox="0 0 32 32">
  <defs>
    <style>
      .cls-1 {
        fill: url(#linear-gradient);
      }

      .cls-2 {
        clip-path: url(#clip-path);
      }
    </style>
    <linearGradient id="linear-gradient" x1="0.5" x2="0.5" y2="1" gradientUnits="objectBoundingBox">
      <stop offset="0" stop-color="#112436"/>
      <stop offset="1" stop-color="#235684"/>
    </linearGradient>
    <clipPath id="clip-path">
      <rect id="Rechteck_2707" data-name="Rechteck 2707" class="cls-1" width="16.01" height="16.299"/>
    </clipPath>
  </defs>
  <g id="Gruppe_8785" data-name="Gruppe 8785" transform="translate(-182.818 -623.965)">
    <path id="Pfad_2578" data-name="Pfad 2578" class="cls-1" d="M27.314,4.686A16,16,0,0,0,4.686,27.314a16.006,16.006,0,0,0,19.593,2.38,1.25,1.25,0,1,0-1.3-2.138,13.619,13.619,0,1,1,4.227-4.063,1.25,1.25,0,1,0,2.078,1.389,15.961,15.961,0,0,0-1.976-20.2Z" transform="translate(182.818 623.965)"/>
    <g id="Gruppe_7079" data-name="Gruppe 7079" class="cls-2" transform="translate(190.122 631.833)">
      <path id="Pfad_2669" data-name="Pfad 2669" class="cls-1" d="M15.745,12.774a1.074,1.074,0,0,0-1.514-.1A6,6,0,0,1,4.974,10.93H9.443a1.074,1.074,0,1,0,0-2.147H4.32a6.152,6.152,0,0,1-.037-.636,6.057,6.057,0,0,1,.034-.638H9.44a1.074,1.074,0,1,0,0-2.147H4.976a6,6,0,0,1,5.309-3.214,5.941,5.941,0,0,1,3.705,1.28,1.074,1.074,0,1,0,1.371-1.653l-.044-.035A8.064,8.064,0,0,0,10.286,0,8.153,8.153,0,0,0,2.637,5.365H1.074a1.074,1.074,0,1,0,0,2.147h1.1c-.017.215-.032.423-.032.638s.016.423.031.633h-1.1a1.074,1.074,0,0,0,0,2.147H2.637a8.138,8.138,0,0,0,13,3.359,1.074,1.074,0,0,0,.1-1.515Z" transform="translate(0 0)"/>
    </g>
  </g>
</svg>
