<svg xmlns="http://www.w3.org/2000/svg" xmlns:xlink="http://www.w3.org/1999/xlink" width="31.999" height="31.999" viewBox="0 0 31.999 31.999">
  <defs>
    <style>
      .cls-1 {
        fill: url(#linear-gradient);
      }
    </style>
    <linearGradient id="linear-gradient" x1="0.5" x2="0.5" y2="1" gradientUnits="objectBoundingBox">
      <stop offset="0" stop-color="#112436"/>
      <stop offset="1" stop-color="#235684"/>
    </linearGradient>
  </defs>
  <path id="Vereinigungsmenge_64" data-name="Vereinigungsmenge 64" class="cls-1" d="M-3760.334,10778a4.672,4.672,0,0,1-4.666-4.666,4.688,4.688,0,0,1,1.861-3.729,1.334,1.334,0,0,1,1.866.262,1.333,1.333,0,0,1-.262,1.867,1.98,1.98,0,0,0-.8,1.6,2,2,0,0,0,2,2h22.667a2,2,0,0,0,2-2,1.987,1.987,0,0,0-.8-1.6,1.334,1.334,0,0,1-.262-1.869,1.335,1.335,0,0,1,1.866-.263,4.645,4.645,0,0,1,1.861,3.732,4.672,4.672,0,0,1-4.666,4.666Zm-2-18.666A13.347,13.347,0,0,1-3749,10746a13.347,13.347,0,0,1,13.333,13.333,13.347,13.347,0,0,1-13.333,13.332A13.347,13.347,0,0,1-3762.333,10759.334Zm2.667,0A10.678,10.678,0,0,0-3749,10770a10.68,10.68,0,0,0,10.668-10.665,10.681,10.681,0,0,0-10.668-10.666A10.679,10.679,0,0,0-3759.666,10759.334Zm10.878,9.334Zm-.986-3.687a6.061,6.061,0,0,1-4.661-3.952h-.606a.756.756,0,0,1-.757-.757.756.756,0,0,1,.757-.758h.279c-.013-.168-.024-.335-.024-.506s.011-.338.024-.506h-.279a.758.758,0,0,1-.757-.76.758.758,0,0,1,.757-.758h.606a6.066,6.066,0,0,1,4.661-3.951,6.062,6.062,0,0,1,5.734,2.112.762.762,0,0,1-.1,1.068.758.758,0,0,1-1.069-.1,4.544,4.544,0,0,0-4.028-1.626,4.549,4.549,0,0,0-3.552,2.5h4.323a.758.758,0,0,1,.757.758.758.758,0,0,1-.757.76h-4.774a4.522,4.522,0,0,0,0,1.012h4.774a.756.756,0,0,1,.757.758.756.756,0,0,1-.757.757h-4.323a4.548,4.548,0,0,0,3.552,2.5,4.544,4.544,0,0,0,4.028-1.626.761.761,0,0,1,1.069-.1.762.762,0,0,1,.1,1.068,6.056,6.056,0,0,1-4.676,2.205A6.074,6.074,0,0,1-3749.774,10764.981Z" transform="translate(3765 -10746.001)"/>
</svg>
