<svg xmlns="http://www.w3.org/2000/svg" xmlns:xlink="http://www.w3.org/1999/xlink" width="31.999" height="32" viewBox="0 0 31.999 32">
  <defs>
    <style>
      .cls-1 {
        fill: url(#linear-gradient);
      }
    </style>
    <linearGradient id="linear-gradient" x1="0.5" x2="0.5" y2="1" gradientUnits="objectBoundingBox">
      <stop offset="0" stop-color="#112436"/>
      <stop offset="1" stop-color="#235684"/>
    </linearGradient>
  </defs>
  <g id="Gruppe_7991" data-name="Gruppe 7991" transform="translate(2 34)">
    <g id="Gruppe_7990" data-name="Gruppe 7990" transform="translate(-2 -34)">
      <path id="Pfad_2647" data-name="Pfad 2647" class="cls-1" d="M32,6.138A6.158,6.158,0,0,0,21.507,1.784L21.5,1.8,18.025,5.268h0L2.263,21.029c-.014.014-.026.029-.039.043l-.032.035c-.016.019-.03.038-.044.057l-.029.04c-.014.02-.026.04-.039.061s-.017.028-.025.042-.023.044-.033.067-.013.028-.019.042-.019.049-.028.073-.01.027-.014.04-.015.054-.022.081c0,.01-.006.019-.008.029L.027,30.51v0c-.008.036-.013.072-.018.109,0,0,0,.01,0,.015,0,.033-.005.066-.006.1,0,.009,0,.017,0,.026,0,.027,0,.054,0,.082s0,.029,0,.043.006.045.01.068.005.036.009.054,0,.011,0,.016c0,.023.012.045.018.068s0,.017.006.025a1.224,1.224,0,0,0,.213.41l.009.011c.02.025.041.05.064.073l.019.019q.03.03.061.058l.026.022c.02.017.041.033.062.049l.029.021c.025.017.052.034.078.049l.017.011q.05.028.1.051l.019.008q.045.019.091.035l.025.008q.046.014.093.025l.013,0,.011,0q.053.011.106.017l.017,0c.04,0,.081.007.122.007h0c.04,0,.08,0,.119-.006l.027,0q.05-.006.1-.016l.011,0,8.841-1.9.015,0,.012,0,.014,0c.034-.008.068-.017.1-.027l.021-.007c.031-.011.062-.022.093-.035l.024-.011c.028-.013.056-.027.084-.042l.027-.016c.026-.015.051-.031.076-.048l.027-.02c.023-.017.046-.035.069-.053l.024-.022c.017-.016.035-.03.052-.047L30.215,10.492l.012-.013A6.106,6.106,0,0,0,32,6.138M28.473,3.526a3.662,3.662,0,0,1,1.063,2.612A3.662,3.662,0,0,1,28.473,8.75l-.011.013-2.6,2.6L20.637,6.138l2.612-2.612a3.74,3.74,0,0,1,5.225,0M9.487,27.737,2.835,29.165l1.427-6.652L18.9,7.88,24.12,13.1Z" transform="translate(0)"/>
    </g>
  </g>
</svg>
