<svg xmlns="http://www.w3.org/2000/svg" xmlns:xlink="http://www.w3.org/1999/xlink" width="32" height="31.999" viewBox="0 0 32 31.999">
  <defs>
    <style>
      .cls-1 {
        fill: url(#linear-gradient);
      }
    </style>
    <linearGradient id="linear-gradient" x1="0.5" x2="0.5" y2="1" gradientUnits="objectBoundingBox">
      <stop offset="0" stop-color="#112436"/>
      <stop offset="1" stop-color="#235684"/>
    </linearGradient>
  </defs>
  <path id="Vereinigungsmenge_59" data-name="Vereinigungsmenge 59" class="cls-1" d="M-4295,10762a16,16,0,0,1,16-16c.517,0,1.025.027,1.531.076a1.337,1.337,0,0,1,1.2,1.2,13.331,13.331,0,0,0,11.994,11.994,1.333,1.333,0,0,1,1.2,1.2c.048.5.076,1.012.076,1.528a16,16,0,0,1-16,16A16,16,0,0,1-4295,10762Zm2.667,0a13.333,13.333,0,0,0,13.333,13.332,13.347,13.347,0,0,0,13.333-13.332v-.228a16.008,16.008,0,0,1-13.105-13.105H-4279A13.331,13.331,0,0,0-4292.333,10762Zm15.107,3.557a1.778,1.778,0,0,1,1.777-1.777,1.78,1.78,0,0,1,1.777,1.777,1.779,1.779,0,0,1-1.777,1.777A1.777,1.777,0,0,1-4277.226,10765.558Zm-7.111,0a1.78,1.78,0,0,1,1.777-1.777,1.781,1.781,0,0,1,1.78,1.777,1.78,1.78,0,0,1-1.78,1.777A1.779,1.779,0,0,1-4284.337,10765.558Zm0-7.108a1.778,1.778,0,0,1,1.777-1.777,1.779,1.779,0,0,1,1.78,1.777,1.78,1.78,0,0,1-1.78,1.777A1.779,1.779,0,0,1-4284.337,10758.449Zm16-3.555a1.777,1.777,0,0,1,1.777-1.777,1.777,1.777,0,0,1,1.777,1.777,1.777,1.777,0,0,1-1.777,1.777A1.776,1.776,0,0,1-4268.34,10754.895Zm-3.555-7.108a1.777,1.777,0,0,1,1.777-1.777,1.777,1.777,0,0,1,1.777,1.777,1.777,1.777,0,0,1-1.777,1.777A1.777,1.777,0,0,1-4271.895,10747.786Z" transform="translate(4295 -10746.001)"/>
</svg>
