<svg xmlns="http://www.w3.org/2000/svg" xmlns:xlink="http://www.w3.org/1999/xlink" width="31.994" height="32" viewBox="0 0 31.994 32">
  <defs>
    <style>
      .cls-1 {
        fill: url(#linear-gradient);
      }
    </style>
    <linearGradient id="linear-gradient" x1="0.5" x2="0.5" y2="1" gradientUnits="objectBoundingBox">
      <stop offset="0" stop-color="#112436"/>
      <stop offset="1" stop-color="#235684"/>
    </linearGradient>
  </defs>
  <g id="alarm-clock" transform="translate(0 0.004)">
    <path id="Pfad_3246" data-name="Pfad 3246" class="cls-1" d="M17,2.734v-1.4a1.333,1.333,0,1,0-2.666,0v1.4A14.637,14.637,0,0,0,4.574,26.9a4.031,4.031,0,0,0-2.241,3.765,1.333,1.333,0,0,0,2.666,0,1.6,1.6,0,0,1,1.48-1.638,1.242,1.242,0,0,0,.267-.083,14.562,14.562,0,0,0,17.85,0,1.377,1.377,0,0,0,.243.085,1.6,1.6,0,0,1,1.49,1.636,1.333,1.333,0,1,0,2.666,0A4.031,4.031,0,0,0,26.753,26.9,14.637,14.637,0,0,0,17,2.734ZM3.666,17.33a12,12,0,1,1,12,12,12,12,0,0,1-12-12Z" transform="translate(0.333 0.001)"/>
    <path id="Pfad_3247" data-name="Pfad 3247" class="cls-1" d="M19.548,0a1.333,1.333,0,0,0,0,2.666A3.453,3.453,0,0,1,23.261,6a1.333,1.333,0,1,0,2.666,0,6.132,6.132,0,0,0-6.379-6Z" transform="translate(6.067 0)"/>
    <path id="Pfad_3248" data-name="Pfad 3248" class="cls-1" d="M2.666,6A3.453,3.453,0,0,1,6.379,2.667,1.333,1.333,0,0,0,6.379,0,6.132,6.132,0,0,0,0,6,1.333,1.333,0,1,0,2.666,6Z" transform="translate(0 0)"/>
    <path id="Pfad_3249" data-name="Pfad 3249" class="cls-1" d="M13.666,13.447V7.333a1.333,1.333,0,0,0-2.666,0V14a1.333,1.333,0,0,0,.39.942l4,4a1.333,1.333,0,1,0,1.885-1.885Z" transform="translate(3.664 2)"/>
  </g>
</svg>
