<svg xmlns="http://www.w3.org/2000/svg" xmlns:xlink="http://www.w3.org/1999/xlink" width="32" height="32" viewBox="0 0 32 32">
  <defs>
    <style>
      .cls-1 {
        fill: url(#linear-gradient);
      }
    </style>
    <linearGradient id="linear-gradient" x1="0.5" x2="0.5" y2="1" gradientUnits="objectBoundingBox">
      <stop offset="0" stop-color="#112436"/>
      <stop offset="1" stop-color="#235684"/>
    </linearGradient>
  </defs>
  <path id="play-alt" class="cls-1" d="M25.333,32H6.667A6.675,6.675,0,0,1,0,25.333V6.667A6.675,6.675,0,0,1,6.667,0H25.333A6.675,6.675,0,0,1,32,6.667V25.333A6.675,6.675,0,0,1,25.333,32ZM6.667,2.667a4,4,0,0,0-4,4V25.333a4,4,0,0,0,4,4H25.333a4,4,0,0,0,4-4V6.667a4,4,0,0,0-4-4Zm5.789,20.007a3.157,3.157,0,0,1-1.581-.431,3.084,3.084,0,0,1-1.552-2.695v-7.1a3.116,3.116,0,0,1,4.667-2.705l7.037,3.513a3.115,3.115,0,0,1,.065,5.445l-7.168,3.583a2.933,2.933,0,0,1-1.468.385Zm-.033-10.667a.419.419,0,0,0-.209.056.436.436,0,0,0-.224.389v7.1a.449.449,0,0,0,.667.391l7.168-3.584a.419.419,0,0,0,.16-.355.433.433,0,0,0-.225-.389L12.727,12.1a.616.616,0,0,0-.3-.091Z"/>
</svg>
