<svg xmlns="http://www.w3.org/2000/svg" xmlns:xlink="http://www.w3.org/1999/xlink" width="32.002" height="31.999" viewBox="0 0 32.002 31.999">
  <defs>
    <style>
      .cls-1 {
        fill: url(#linear-gradient);
      }
    </style>
    <linearGradient id="linear-gradient" x1="0.5" x2="0.5" y2="1" gradientUnits="objectBoundingBox">
      <stop offset="0" stop-color="#112436"/>
      <stop offset="1" stop-color="#235684"/>
    </linearGradient>
  </defs>
  <path id="Vereinigungsmenge_58" data-name="Vereinigungsmenge 58" class="cls-1" d="M-4592.076,10778a1.23,1.23,0,0,1-1.23-1.23,1.23,1.23,0,0,1,1.23-1.23h3.281a5.318,5.318,0,0,0,3.771-1.563,5.327,5.327,0,0,0,1.563-3.771v-3.281a1.232,1.232,0,0,1,1.231-1.231,1.232,1.232,0,0,1,1.23,1.231v3.281a7.8,7.8,0,0,1-2.283,5.512,7.793,7.793,0,0,1-5.513,2.283Zm-13.129,0a7.793,7.793,0,0,1-5.513-2.283,7.8,7.8,0,0,1-2.283-5.512v-3.281a1.233,1.233,0,0,1,1.234-1.231,1.23,1.23,0,0,1,1.228,1.231v3.281a5.327,5.327,0,0,0,1.563,3.771,5.318,5.318,0,0,0,3.771,1.563h3.284a1.232,1.232,0,0,1,1.231,1.23,1.232,1.232,0,0,1-1.231,1.23Zm1.593-9.383v0a1.225,1.225,0,0,1-.363-.871,1.232,1.232,0,0,1,1.231-1.23,1.224,1.224,0,0,1,.871.362c.222.222,0,0,0,0a6.885,6.885,0,0,0,9.741,0h.005a1.217,1.217,0,0,1,.868-.362,1.232,1.232,0,0,1,1.231,1.23,1.234,1.234,0,0,1-.36.871l0,0h0a9.323,9.323,0,0,1-6.612,2.738A9.323,9.323,0,0,1-4603.612,10768.617Zm4.69-3.606a1.229,1.229,0,0,1,.552-1.649l.96-.481v-4.163a1.232,1.232,0,0,1,1.231-1.23,1.232,1.232,0,0,1,1.23,1.23v4.926a1.233,1.233,0,0,1-.682,1.1l-1.639.819a1.214,1.214,0,0,1-.549.13A1.233,1.233,0,0,1-4598.922,10765.011Zm6.435-7.113v-1.643a1.232,1.232,0,0,1,1.231-1.23,1.232,1.232,0,0,1,1.231,1.23v1.643a1.232,1.232,0,0,1-1.231,1.23A1.232,1.232,0,0,1-4592.487,10757.9Zm-11.488,0v-1.643a1.232,1.232,0,0,1,1.231-1.23,1.232,1.232,0,0,1,1.231,1.23v1.643a1.232,1.232,0,0,1-1.231,1.23A1.232,1.232,0,0,1-4603.975,10757.9Zm20.514-.819v-3.284a5.33,5.33,0,0,0-1.563-3.771,5.323,5.323,0,0,0-3.771-1.561h-3.281a1.23,1.23,0,0,1-1.23-1.231,1.23,1.23,0,0,1,1.23-1.23h3.281a7.8,7.8,0,0,1,5.513,2.28,7.806,7.806,0,0,1,2.283,5.513v3.284a1.232,1.232,0,0,1-1.23,1.23A1.232,1.232,0,0,1-4583.461,10757.078Zm-29.541,0v-3.284a7.806,7.806,0,0,1,2.283-5.513,7.8,7.8,0,0,1,5.513-2.28h3.284a1.232,1.232,0,0,1,1.231,1.23,1.232,1.232,0,0,1-1.231,1.231h-3.284a5.323,5.323,0,0,0-3.771,1.561,5.33,5.33,0,0,0-1.563,3.771v3.284a1.229,1.229,0,0,1-1.228,1.23A1.233,1.233,0,0,1-4613,10757.078Z" transform="translate(4613.001 -10746.001)"/>
</svg>
