<svg xmlns="http://www.w3.org/2000/svg" xmlns:xlink="http://www.w3.org/1999/xlink" width="32" height="32" viewBox="0 0 32 32">
  <defs>
    <style>
      .cls-1 {
        fill: url(#linear-gradient);
      }
    </style>
    <linearGradient id="linear-gradient" x1="0.5" x2="0.5" y2="1" gradientUnits="objectBoundingBox">
      <stop offset="0" stop-color="#112436"/>
      <stop offset="1" stop-color="#235684"/>
    </linearGradient>
  </defs>
  <g id="interrogation_1_" data-name="interrogation(1)" transform="translate(0.001 -0.001)">
    <path id="Vereinigungsmenge_53" data-name="Vereinigungsmenge 53" class="cls-1" d="M-4647,11037a16,16,0,0,1,16-16,16.012,16.012,0,0,1,16,16,16,16,0,0,1-16,16A16,16,0,0,1-4647,11037Zm2.669,0a13.333,13.333,0,0,0,13.332,13.332,13.348,13.348,0,0,0,13.334-13.332,13.333,13.333,0,0,0-13.334-13.334A13.332,13.332,0,0,0-4644.333,11037Zm11.961,7.872a1.624,1.624,0,0,1,1.625-1.625,1.626,1.626,0,0,1,1.625,1.625,1.628,1.628,0,0,1-1.625,1.626A1.626,1.626,0,0,1-4632.372,11044.873Zm.039-3.872v-.99a5.27,5.27,0,0,1,2.627-4.674,2.669,2.669,0,0,0,1.334-2.832,2.7,2.7,0,0,0-2.133-2.128,2.662,2.662,0,0,0-2.2.568,2.666,2.666,0,0,0-.965,2.056,1.332,1.332,0,0,1-1.334,1.331,1.331,1.331,0,0,1-1.332-1.331,5.325,5.325,0,0,1,1.914-4.1,5.332,5.332,0,0,1,4.375-1.154,5.335,5.335,0,0,1,4.313,4.391,5.329,5.329,0,0,1-2.7,5.531,2.648,2.648,0,0,0-1.24,2.339v.99a1.332,1.332,0,0,1-1.334,1.331A1.331,1.331,0,0,1-4632.333,11041Z" transform="translate(4647 -11021)"/>
  </g>
</svg>
