<svg xmlns="http://www.w3.org/2000/svg" xmlns:xlink="http://www.w3.org/1999/xlink" width="32" height="32" viewBox="0 0 32 32">
  <defs>
    <style>
      .cls-1 {
        fill: url(#linear-gradient);
      }
    </style>
    <linearGradient id="linear-gradient" x1="0.5" x2="0.5" y2="1" gradientUnits="objectBoundingBox">
      <stop offset="0" stop-color="#112436"/>
      <stop offset="1" stop-color="#235684"/>
    </linearGradient>
  </defs>
  <path id="search-heart" class="cls-1" d="M31.937,29.9l-7.952-7.952A13.343,13.343,0,1,0,22.1,23.83l7.952,7.952A1.332,1.332,0,0,0,31.937,29.9ZM3.018,13.521A10.658,10.658,0,1,1,13.676,24.179,10.658,10.658,0,0,1,3.018,13.521ZM16.341,8.192a3.851,3.851,0,0,0-2.664,1.087,3.852,3.852,0,0,0-2.664-1.087,4.142,4.142,0,0,0-4,4.263c0,2.664,2.719,5.413,5,7.247a2.664,2.664,0,0,0,3.32,0c2.282-1.834,5-4.583,5-7.247A4.142,4.142,0,0,0,16.341,8.192Zm-2.656,9.432c-2.47-1.985-4-3.97-4-5.169a1.484,1.484,0,0,1,1.332-1.6,1.484,1.484,0,0,1,1.332,1.6,1.332,1.332,0,0,0,2.664,0,1.484,1.484,0,0,1,1.332-1.6,1.484,1.484,0,0,1,1.332,1.6c0,1.2-1.535,3.184-3.989,5.169Z" transform="translate(-0.311 -0.156)"/>
</svg>
