<svg xmlns="http://www.w3.org/2000/svg" xmlns:xlink="http://www.w3.org/1999/xlink" width="32.002" height="31.999" viewBox="0 0 32.002 31.999">
  <defs>
    <style>
      .cls-1 {
        fill: url(#linear-gradient);
      }
    </style>
    <linearGradient id="linear-gradient" x1="0.5" x2="0.5" y2="1" gradientUnits="objectBoundingBox">
      <stop offset="0" stop-color="#112436"/>
      <stop offset="1" stop-color="#235684"/>
    </linearGradient>
  </defs>
  <path id="Vereinigungsmenge_63" data-name="Vereinigungsmenge 63" class="cls-1" d="M-3637.666,10776.667a9.334,9.334,0,0,0-9.335-9.332,9.333,9.333,0,0,0-9.332,9.332,1.334,1.334,0,0,1-1.333,1.333,1.334,1.334,0,0,1-1.333-1.333,12.012,12.012,0,0,1,12-12,12.014,12.014,0,0,1,12,12,1.334,1.334,0,0,1-1.333,1.333A1.332,1.332,0,0,1-3637.666,10776.667Zm4.506-11.021c-1.5-1.2-4.506-3.905-4.506-6.213a2.809,2.809,0,0,1,2.667-2.935,2.808,2.808,0,0,1,2.664,2.68,2.811,2.811,0,0,1,2.667-2.68,2.811,2.811,0,0,1,2.667,2.935c0,2.308-3.008,5.013-4.507,6.213a1.327,1.327,0,0,1-.827.288A1.319,1.319,0,0,1-3633.159,10765.646ZM-3655,10754a8,8,0,0,1,8-8,8,8,0,0,1,8,8,8,8,0,0,1-8,8A8.007,8.007,0,0,1-3655,10754Zm2.667,0a5.333,5.333,0,0,0,5.332,5.335,5.335,5.335,0,0,0,5.334-5.335,5.332,5.332,0,0,0-5.334-5.331A5.33,5.33,0,0,0-3652.332,10754Z" transform="translate(3659 -10746.001)"/>
</svg>
