<svg xmlns="http://www.w3.org/2000/svg" xmlns:xlink="http://www.w3.org/1999/xlink" width="31.998" height="32" viewBox="0 0 31.998 32">
  <defs>
    <style>
      .cls-1 {
        fill: url(#linear-gradient);
      }
    </style>
    <linearGradient id="linear-gradient" x1="0.5" x2="0.5" y2="1" gradientUnits="objectBoundingBox">
      <stop offset="0" stop-color="#112436"/>
      <stop offset="1" stop-color="#235684"/>
    </linearGradient>
  </defs>
  <path id="gift-card_1_" data-name="gift-card(1)" class="cls-1" d="M25.331,8H23.7A4.526,4.526,0,0,0,18.077.907a7.671,7.671,0,0,0-2.063,2.417A7.657,7.657,0,0,0,13.952.907a4.531,4.531,0,0,0-6.345.907C6.17,3.73,6.448,6.133,8.337,8H6.666A6.674,6.674,0,0,0,0,14.666V25.332A6.674,6.674,0,0,0,6.666,32H25.331A6.674,6.674,0,0,0,32,25.332V14.666A6.674,6.674,0,0,0,25.331,8ZM19.679,3.04a1.852,1.852,0,0,1,1.116-.373,2.1,2.1,0,0,1,1.5.747A1.952,1.952,0,0,1,21.834,6.1,7.291,7.291,0,0,1,17.357,8H17.34a1.315,1.315,0,0,0,.023-.377l0-.028c.119-.8.615-3.277,2.318-4.554ZM10.234,6.128a1.969,1.969,0,0,1-.493-2.716,1.858,1.858,0,0,1,1.229-.728,1.882,1.882,0,0,1,1.384.356c1.705,1.279,2.2,3.762,2.32,4.554l0,.028A1.315,1.315,0,0,0,14.694,8h-.017a7.226,7.226,0,0,1-4.442-1.871ZM6.666,10.665h7.765c-1,2.6-4.888,2.665-5.1,2.666a1.333,1.333,0,0,0,0,2.666c1.889,0,4.929-.651,6.666-2.741C17.735,15.349,20.774,16,22.664,16a1.333,1.333,0,0,0,0-2.666c-.189,0-4.1-.035-5.1-2.666H25.33a4,4,0,0,1,4,4v8H2.666v-8a4,4,0,0,1,4-4ZM25.331,29.33H6.666a4,4,0,0,1-4-4H29.331A4,4,0,0,1,25.331,29.33Z" transform="translate(0 0.002)"/>
</svg>
