<svg xmlns="http://www.w3.org/2000/svg" xmlns:xlink="http://www.w3.org/1999/xlink" width="35.271" height="35.075" viewBox="0 0 35.271 35.075">
  <defs>
    <style>
      .cls-1 {
        fill: url(#linear-gradient);
      }
    </style>
    <linearGradient id="linear-gradient" x1="0.5" x2="0.5" y2="1" gradientUnits="objectBoundingBox">
      <stop offset="0" stop-color="#112436"/>
      <stop offset="1" stop-color="#235684"/>
    </linearGradient>
  </defs>
  <path id="Vereinigungsmenge_62" data-name="Vereinigungsmenge 62" class="cls-1" d="M-3963.106,10782.615l-1.973-2.044a2.694,2.694,0,0,1-.33-3.28,2.666,2.666,0,0,0-.374-3.213,2.668,2.668,0,0,0-3.2-.486,2.693,2.693,0,0,1-3.267-.441l-1.973-2.044a4,4,0,0,1,.1-5.656l15.348-14.818a6.673,6.673,0,0,1,9.427.163l.119.124a2.7,2.7,0,0,1,.327,3.283,2.667,2.667,0,0,0,.376,3.213,2.668,2.668,0,0,0,3.2.486,2.693,2.693,0,0,1,3.267.441l.119.125a6.673,6.673,0,0,1-.165,9.427l-15.346,14.82a3.983,3.983,0,0,1-2.777,1.123A3.986,3.986,0,0,1-3963.106,10782.615Zm-.8-10.412a5.334,5.334,0,0,1,.788,6.446l1.924,2.114a1.334,1.334,0,0,0,1.886.032l3.838-3.705-1.854-1.919a1.331,1.331,0,0,1,.032-1.884,1.334,1.334,0,0,1,1.886.032l1.851,1.919,9.592-9.264a4,4,0,0,0,.1-5.654l-.1-.1a5.43,5.43,0,0,1-6.485-.955,5.351,5.351,0,0,1-.755-6.42l-.071-.2a4,4,0,0,0-5.656-.1l-9.592,9.264,1.854,1.916a1.334,1.334,0,0,1-.035,1.887,1.333,1.333,0,0,1-1.884-.032l-1.854-1.919-3.835,3.705a1.331,1.331,0,0,0-.032,1.884l1.973,2.043a5.319,5.319,0,0,1,2.621-.689A5.327,5.327,0,0,1-3963.9,10772.2Zm2.877-.866-1.851-1.919a1.334,1.334,0,0,1,.032-1.887,1.333,1.333,0,0,1,1.884.035l1.854,1.917a1.336,1.336,0,0,1-.032,1.886,1.334,1.334,0,0,1-.928.375A1.326,1.326,0,0,1-3961.025,10771.337Z" transform="translate(3975.344 -10748.763)"/>
</svg>
