<svg xmlns="http://www.w3.org/2000/svg" xmlns:xlink="http://www.w3.org/1999/xlink" width="32.722" height="29.977" viewBox="0 0 32.722 29.977">
  <defs>
    <style>
      .cls-1 {
        fill: url(#linear-gradient);
      }
    </style>
    <linearGradient id="linear-gradient" x1="0.5" x2="0.5" y2="1" gradientUnits="objectBoundingBox">
      <stop offset="0" stop-color="#112436"/>
      <stop offset="1" stop-color="#235684"/>
    </linearGradient>
  </defs>
  <path id="eye-crossed" class="cls-1" d="M31.718,12.474a21.624,21.624,0,0,0-4.594-5.328L30.94,3.33A1.363,1.363,0,1,0,29.013,1.4l-4.15,4.156a16.429,16.429,0,0,0-8.506-2.3C7.919,3.255,3.11,9.031,1,12.474a6.689,6.689,0,0,0,0,7.036A21.624,21.624,0,0,0,5.59,24.837L1.773,28.653A1.363,1.363,0,1,0,3.7,30.58l4.159-4.16a16.429,16.429,0,0,0,8.5,2.307c8.438,0,13.246-5.776,15.362-9.219A6.689,6.689,0,0,0,31.718,12.474Zm-28.4,5.609a3.977,3.977,0,0,1,0-4.182c1.818-2.952,5.927-7.92,13.039-7.92a13.765,13.765,0,0,1,6.5,1.588l-2.744,2.744a6.8,6.8,0,0,0-9.431,9.432L7.529,22.892a18.7,18.7,0,0,1-4.211-4.81Zm17.128-2.091a4.089,4.089,0,0,1-4.089,4.089,4.022,4.022,0,0,1-1.751-.409l5.431-5.431A4.022,4.022,0,0,1,20.445,15.991Zm-8.178,0A4.089,4.089,0,0,1,16.357,11.9a4.022,4.022,0,0,1,1.751.409l-5.431,5.431a4.022,4.022,0,0,1-.409-1.751ZM29.4,18.082C27.578,21.034,23.468,26,16.357,26a13.765,13.765,0,0,1-6.5-1.588L12.6,21.671a6.8,6.8,0,0,0,9.431-9.432l3.148-3.148A18.7,18.7,0,0,1,29.4,13.9a3.977,3.977,0,0,1,0,4.182Z" transform="translate(0.004 -1.003)"/>
</svg>
