<svg xmlns="http://www.w3.org/2000/svg" xmlns:xlink="http://www.w3.org/1999/xlink" width="24.005" height="32" viewBox="0 0 24.005 32">
  <defs>
    <style>
      .cls-1 {
        fill: url(#linear-gradient);
      }
    </style>
    <linearGradient id="linear-gradient" x1="0.5" x2="0.5" y2="1" gradientUnits="objectBoundingBox">
      <stop offset="0" stop-color="#112436"/>
      <stop offset="1" stop-color="#235684"/>
    </linearGradient>
  </defs>
  <path id="bulb" class="cls-1" d="M22.992,3.049A12,12,0,0,0,6.825,20.776a8.35,8.35,0,0,1,2.842,6.087v.215A4.925,4.925,0,0,0,14.587,32h.827a4.925,4.925,0,0,0,4.919-4.919v-.732a7.1,7.1,0,0,1,2.576-5.333,11.991,11.991,0,0,0,.083-17.967ZM15.414,29.331h-.827a2.256,2.256,0,0,1-2.253-2.253s-.009-.347-.011-.413h5.343v.413a2.256,2.256,0,0,1-2.253,2.253Zm5.733-10.32A10.222,10.222,0,0,0,17.995,24H16.334V14.421A4,4,0,0,0,19,10.666a1.333,1.333,0,1,0-2.666,0,1.333,1.333,0,1,1-2.666,0,1.333,1.333,0,0,0-2.666,0,4,4,0,0,0,2.666,3.754V24H11.9a11.511,11.511,0,0,0-3.264-5.174,9.332,9.332,0,0,1,5.267-16.1,9.935,9.935,0,0,1,1.1-.061,9.227,9.227,0,0,1,6.2,2.37,9.323,9.323,0,0,1-.064,13.973Z" transform="translate(-2.995 0.002)"/>
</svg>
