<svg xmlns="http://www.w3.org/2000/svg" xmlns:xlink="http://www.w3.org/1999/xlink" width="26.667" height="32" viewBox="0 0 26.667 32">
  <defs>
    <style>
      .cls-1 {
        fill: url(#linear-gradient);
      }
    </style>
    <linearGradient id="linear-gradient" x1="0.5" x2="0.5" y2="1" gradientUnits="objectBoundingBox">
      <stop offset="0" stop-color="#112436"/>
      <stop offset="1" stop-color="#235684"/>
    </linearGradient>
  </defs>
  <path id="dokumentieren" class="cls-1" d="M22,18.667A1.333,1.333,0,0,1,20.667,20H10a1.333,1.333,0,0,1,0-2.667H20.667A1.333,1.333,0,0,1,22,18.667Zm-5.333,4H10a1.333,1.333,0,0,0,0,2.667h6.667a1.333,1.333,0,0,0,0-2.667Zm12-8.687V25.333A6.675,6.675,0,0,1,22,32H8.667A6.675,6.675,0,0,1,2,25.333V6.667A6.675,6.675,0,0,1,8.667,0h6.02a9.277,9.277,0,0,1,6.6,2.733l4.645,4.648A9.268,9.268,0,0,1,28.667,13.98ZM19.4,4.619A6.68,6.68,0,0,0,18,3.579V9.333a1.333,1.333,0,0,0,1.333,1.333h5.755a6.644,6.644,0,0,0-1.041-1.4ZM26,13.98c0-.22-.043-.431-.063-.647h-6.6a4,4,0,0,1-4-4v-6.6c-.216-.02-.428-.063-.647-.063H8.667a4,4,0,0,0-4,4V25.333a4,4,0,0,0,4,4H22a4,4,0,0,0,4-4Z" transform="translate(-2 0)"/>
</svg>
