<svg id="sign-out-alt" xmlns="http://www.w3.org/2000/svg" xmlns:xlink="http://www.w3.org/1999/xlink" width="34.492" height="32" viewBox="0 0 34.492 32">
  <defs>
    <style>
      .cls-1 {
        fill: url(#linear-gradient);
      }
    </style>
    <linearGradient id="linear-gradient" x1="0.5" x2="0.5" y2="1" gradientUnits="objectBoundingBox">
      <stop offset="0" stop-color="#112436"/>
      <stop offset="1" stop-color="#235684"/>
    </linearGradient>
  </defs>
  <path id="Pfad_3470" data-name="Pfad 3470" class="cls-1" d="M16.671,20a1.4,1.4,0,0,0-1.453,1.333v4a4.19,4.19,0,0,1-4.358,4h-3.6a4.19,4.19,0,0,1-4.358-4V6.667a4.19,4.19,0,0,1,4.358-4h3.6a4.19,4.19,0,0,1,4.358,4v4a1.458,1.458,0,0,0,2.905,0v-4C18.118,2.987,14.869,0,10.86,0h-3.6C3.254,0,0,2.987,0,6.667V25.333C0,29.013,3.254,32,7.263,32h3.6c4.009,0,7.258-2.987,7.263-6.667v-4A1.4,1.4,0,0,0,16.671,20Z"/>
  <path id="Pfad_3471" data-name="Pfad 3471" class="cls-1" d="M30.954,11.09,24.293,5.366a1.625,1.625,0,0,0-2.054,0,1.128,1.128,0,0,0,0,1.765l6.191,5.321-21.977.037A1.362,1.362,0,0,0,5,13.737a1.362,1.362,0,0,0,1.453,1.248h0l22.063-.039-6.28,5.4a1.128,1.128,0,0,0,0,1.765,1.626,1.626,0,0,0,2.054,0l6.662-5.724a3.384,3.384,0,0,0,0-5.294Z" transform="translate(2.263 2.263)"/>
</svg>
