<?xml version="1.0" encoding="utf-8"?>
<!-- Generator: Adobe Illustrator 27.8.1, SVG Export Plug-In . SVG Version: 6.00 Build 0)  -->
<svg version="1.1" id="sign-out-alt" xmlns="http://www.w3.org/2000/svg" xmlns:xlink="http://www.w3.org/1999/xlink" x="0px"
	 y="0px" viewBox="0 0 34.5 32" style="enable-background:new 0 0 34.5 32;" xml:space="preserve">
<style type="text/css">
	.st0{fill:#FFFFFF;}
</style>
<path id="Pfad_3470" class="st0" d="M16.7,20c-0.8,0-1.4,0.6-1.5,1.3v4c-0.1,2.3-2.1,4.1-4.4,4H7.3c-2.3,0.1-4.3-1.7-4.4-4V6.7
	C3,4.4,5,2.6,7.3,2.7h3.6c2.3-0.1,4.3,1.7,4.4,4v4c0.1,0.8,0.8,1.4,1.6,1.3c0.7-0.1,1.3-0.6,1.3-1.3v-4C18.1,3,14.9,0,10.9,0H7.3
	C3.3,0,0,3,0,6.7v18.7C0,29,3.3,32,7.3,32h3.6c4,0,7.3-3,7.3-6.7v-4C18.1,20.6,17.4,20,16.7,20z"/>
<path id="Pfad_3471" class="st0" d="M33.2,13.4l-6.7-5.7c-0.6-0.5-1.5-0.5-2.1,0C24,8,23.9,8.7,24.3,9.2c0.1,0.1,0.1,0.1,0.2,0.2
	l6.2,5.3l-22,0C8,14.7,7.3,15.3,7.3,16c0.1,0.7,0.7,1.3,1.5,1.2l0,0l22.1,0l-6.3,5.4c-0.5,0.4-0.6,1.1-0.2,1.6
	c0.1,0.1,0.1,0.1,0.2,0.2c0.6,0.5,1.5,0.5,2.1,0l6.7-5.7c1.5-1.2,1.7-3.3,0.5-4.8C33.6,13.7,33.4,13.5,33.2,13.4L33.2,13.4z"/>
</svg>
