<svg xmlns="http://www.w3.org/2000/svg" xmlns:xlink="http://www.w3.org/1999/xlink" width="32" height="32" viewBox="0 0 32 32">
  <defs>
    <style>
      .cls-1 {
        fill: url(#linear-gradient);
      }
    </style>
    <linearGradient id="linear-gradient" x1="0.5" x2="0.5" y2="1" gradientUnits="objectBoundingBox">
      <stop offset="0" stop-color="#112436"/>
      <stop offset="1" stop-color="#235684"/>
    </linearGradient>
  </defs>
  <g id="Gruppe_8384" data-name="Gruppe 8384" transform="translate(-43 -518.465)">
    <path id="badge-percent" class="cls-1" d="M16,32a7.319,7.319,0,0,1-5.611-2.612,7.016,7.016,0,0,1-5.7-2.073A7.327,7.327,0,0,1,2.567,21.5,7.027,7.027,0,0,1,0,16a7.316,7.316,0,0,1,2.613-5.611,7.025,7.025,0,0,1,2.073-5.7A7.307,7.307,0,0,1,10.5,2.567,7.031,7.031,0,0,1,16,0a7.319,7.319,0,0,1,5.611,2.612,7.018,7.018,0,0,1,5.7,2.073,7.327,7.327,0,0,1,2.12,5.816A7.027,7.027,0,0,1,32,16a7.316,7.316,0,0,1-2.613,5.611,7.025,7.025,0,0,1-2.073,5.7,7.324,7.324,0,0,1-5.815,2.12A7.031,7.031,0,0,1,16,32Zm-5.5-5.232a2.5,2.5,0,0,1,1.931.9,4.666,4.666,0,0,0,7.144,0,2.509,2.509,0,0,1,2.155-.893,4.666,4.666,0,0,0,5.051-5.051,2.5,2.5,0,0,1,.893-2.156,4.665,4.665,0,0,0,0-7.141,2.5,2.5,0,0,1-.893-2.156,4.666,4.666,0,0,0-5.049-5.051,2.493,2.493,0,0,1-2.156-.892,4.666,4.666,0,0,0-7.144,0,2.522,2.522,0,0,1-2.155.893,4.666,4.666,0,0,0-5.051,5.051,2.5,2.5,0,0,1-.893,2.156,4.665,4.665,0,0,0,0,7.141,2.5,2.5,0,0,1,.893,2.156,4.666,4.666,0,0,0,5.049,5.051c.076-.007.151-.009.225-.009Zm1.5-16.1A1.333,1.333,0,1,0,13.333,12,1.334,1.334,0,0,0,12,10.667Zm8,8A1.333,1.333,0,1,0,21.333,20,1.334,1.334,0,0,0,20,18.667ZM14.443,20.74l5.333-8a1.333,1.333,0,1,0-2.219-1.48l-5.333,8a1.333,1.333,0,0,0,2.219,1.48Z" transform="translate(43 518.465)"/>
  </g>
</svg>
