<svg xmlns="http://www.w3.org/2000/svg" xmlns:xlink="http://www.w3.org/1999/xlink" width="35.371" height="35.848" viewBox="0 0 35.371 35.848">
  <defs>
    <style>
      .cls-1 {
        fill: url(#linear-gradient);
      }
    </style>
    <linearGradient id="linear-gradient" x1="0.5" x2="0.5" y2="1" gradientUnits="objectBoundingBox">
      <stop offset="0" stop-color="#112436"/>
      <stop offset="1" stop-color="#235684"/>
    </linearGradient>
  </defs>
  <path id="envelope-dot" class="cls-1" d="M35.371,14.937V28.379A7.422,7.422,0,0,1,28,35.848H7.369A7.422,7.422,0,0,1,0,28.379V11.949A7.422,7.422,0,0,1,7.369,4.481h11.79a1.494,1.494,0,0,1,0,2.987H7.369A4.438,4.438,0,0,0,3.463,9.843l11.1,11.247a4.379,4.379,0,0,0,6.249,0l5.63-5.706a1.454,1.454,0,0,1,2.078,0,1.5,1.5,0,0,1,0,2.106L22.888,23.2a7.331,7.331,0,0,1-10.434,0L2.948,13.547V28.379A4.465,4.465,0,0,0,7.369,32.86H28a4.465,4.465,0,0,0,4.421-4.481V14.937a1.474,1.474,0,1,1,2.948,0ZM23.581,5.975a5.9,5.9,0,1,1,11.79,0,5.9,5.9,0,1,1-11.79,0Zm2.948,0a2.948,2.948,0,1,0,2.948-2.987A2.976,2.976,0,0,0,26.528,5.975Z"/>
</svg>
