<svg xmlns="http://www.w3.org/2000/svg" xmlns:xlink="http://www.w3.org/1999/xlink" width="30.488" height="32" viewBox="0 0 30.488 32">
  <defs>
    <style>
      .cls-1 {
        fill: url(#linear-gradient);
      }
    </style>
    <linearGradient id="linear-gradient" x1="0.5" x2="0.5" y2="1" gradientUnits="objectBoundingBox">
      <stop offset="0" stop-color="#112436"/>
      <stop offset="1" stop-color="#235684"/>
    </linearGradient>
  </defs>
  <path id="Pfad_3049" data-name="Pfad 3049" class="cls-1" d="M30.836,21.593,27.371,9.1a12.423,12.423,0,0,0-24.1.628L.589,21.793a4,4,0,0,0,3.9,4.865H9.3a6.664,6.664,0,0,0,13.062,0h4.625a4,4,0,0,0,3.852-5.065ZM15.83,29.324a4,4,0,0,1-3.753-2.666h7.506A4,4,0,0,1,15.83,29.324Zm12.215-5.858a1.323,1.323,0,0,1-1.066.526H4.491a1.333,1.333,0,0,1-1.3-1.622l2.68-12.062a9.758,9.758,0,0,1,18.926-.5L28.262,22.3a1.323,1.323,0,0,1-.217,1.164Z" transform="translate(-0.494 0.004)"/>
</svg>
