<svg xmlns="http://www.w3.org/2000/svg" xmlns:xlink="http://www.w3.org/1999/xlink" width="27.197" height="32.637" viewBox="0 0 27.197 32.637">
  <defs>
    <style>
      .cls-1 {
        fill: url(#linear-gradient);
      }
    </style>
    <linearGradient id="linear-gradient" x1="0.5" x2="0.5" y2="1" gradientUnits="objectBoundingBox">
      <stop offset="0" stop-color="#112436"/>
      <stop offset="1" stop-color="#235684"/>
    </linearGradient>
  </defs>
  <path id="file-pdf" class="cls-1" d="M26.41,7.534,21.664,2.788A9.464,9.464,0,0,0,14.932,0H8.8A6.8,6.8,0,0,0,2,6.8V25.837a6.8,6.8,0,0,0,6.8,6.8H22.4a6.8,6.8,0,0,0,6.8-6.8V14.265A9.464,9.464,0,0,0,26.41,7.534ZM24.492,9.451a6.911,6.911,0,0,1,1.1,1.428h-5.9a1.364,1.364,0,0,1-1.36-1.36v-5.9a6.911,6.911,0,0,1,1.428,1.1l4.746,4.746Zm1.985,16.386a4.092,4.092,0,0,1-4.08,4.08H8.8a4.092,4.092,0,0,1-4.08-4.08V6.8A4.092,4.092,0,0,1,8.8,2.72h6.133a5.46,5.46,0,0,1,.666.027V9.519a4.092,4.092,0,0,0,4.08,4.08H26.45a5.35,5.35,0,0,1,.027.666ZM8.922,17.678H7.439a1.364,1.364,0,0,0-1.36,1.36v6.038a.839.839,0,0,0,.843.843.847.847,0,0,0,.843-.843V23.417H8.908a2.87,2.87,0,1,0,0-5.739Zm0,4.039H7.793V19.378H8.935a1.17,1.17,0,1,1,0,2.339Zm16.223-3.182a.839.839,0,0,1-.843.843H22v1.55H23.69a.839.839,0,0,1,.843.843.847.847,0,0,1-.843.843H22v2.448a.839.839,0,0,1-.843.843.847.847,0,0,1-.843-.843V18.521a.839.839,0,0,1,.843-.843H24.3a.839.839,0,0,1,.843.843Zm-9.424-.843H14.239a1.364,1.364,0,0,0-1.36,1.36v6.038a.773.773,0,0,0,.843.762h1.985a2.9,2.9,0,0,0,2.91-2.869V20.561a2.9,2.9,0,0,0-2.91-2.869Zm1.21,5.29a1.205,1.205,0,0,1-1.21,1.169H14.592v-4.76h1.142a1.205,1.205,0,0,1,1.21,1.169v2.421Z" transform="translate(-2)"/>
</svg>
