<svg id="eye" xmlns="http://www.w3.org/2000/svg" xmlns:xlink="http://www.w3.org/1999/xlink" width="31.861" height="24.803" viewBox="0 0 31.861 24.803">
  <defs>
    <style>
      .cls-1 {
        fill: url(#linear-gradient);
      }
    </style>
    <linearGradient id="linear-gradient" x1="0.5" x2="0.5" y2="1" gradientUnits="objectBoundingBox">
      <stop offset="0" stop-color="#112436"/>
      <stop offset="1" stop-color="#235684"/>
    </linearGradient>
  </defs>
  <path id="Pfad_3480" data-name="Pfad 3480" class="cls-1" d="M30.884,11.631c-2.058-3.352-6.74-8.976-14.957-8.976S3.027,8.279.969,11.631a6.513,6.513,0,0,0,0,6.85c2.058,3.352,6.74,8.976,14.957,8.976s12.9-5.624,14.957-8.976A6.513,6.513,0,0,0,30.884,11.631Zm-2.263,5.461C26.853,19.967,22.852,24.8,15.926,24.8S5,19.967,3.232,17.092a3.872,3.872,0,0,1,0-4.071C5,10.146,9,5.309,15.926,5.309s10.927,4.832,12.695,7.712A3.872,3.872,0,0,1,28.621,17.092Z" transform="translate(0.004 -2.655)"/>
  <path id="Pfad_3481" data-name="Pfad 3481" class="cls-1" d="M13.635,7a6.635,6.635,0,1,0,6.635,6.635A6.635,6.635,0,0,0,13.635,7Zm0,10.617a3.981,3.981,0,1,1,3.981-3.981A3.981,3.981,0,0,1,13.635,17.617Z" transform="translate(2.295 -1.234)"/>
</svg>
