<svg xmlns="http://www.w3.org/2000/svg" width="45.809" height="30.566" viewBox="0 0 45.809 30.566">
  <defs>
    <style>
      .cls-1 {
        fill: #e24c4b;
      }
    </style>
  </defs>
  <path id="engine-warning" class="cls-1" d="M22.905,4A15.3,15.3,0,0,0,7.623,19.282c.718,20.226,29.849,20.22,30.564,0A15.3,15.3,0,0,0,22.905,4Zm0,26.743C7.759,30.263,7.761,8.3,22.905,7.821,38.052,8.3,38.05,30.264,22.905,30.744Zm1.91-17.192v5.731a1.91,1.91,0,1,1-3.82,0V13.552a1.91,1.91,0,1,1,3.82,0Zm21.013,5.731a22.973,22.973,0,0,1-5.24,14.589,1.911,1.911,0,1,1-2.948-2.434,19.2,19.2,0,0,0,0-24.31,1.911,1.911,0,0,1,2.948-2.434,22.973,22.973,0,0,1,5.24,14.589ZM8.17,31.437a1.91,1.91,0,0,1-2.946,2.434,23.047,23.047,0,0,1,0-29.177A1.91,1.91,0,1,1,8.17,7.128a19.2,19.2,0,0,0,0,24.31Zm16.646-6.424a1.91,1.91,0,1,1-1.91-1.91A1.91,1.91,0,0,1,24.816,25.013Z" transform="translate(-0.019 -3.999)"/>
</svg>
