<svg xmlns="http://www.w3.org/2000/svg" xmlns:xlink="http://www.w3.org/1999/xlink" width="34.995" height="34.999" viewBox="0 0 34.995 34.999">
  <defs>
    <style>
      .cls-1 {
        fill: url(#linear-gradient);
      }
    </style>
    <linearGradient id="linear-gradient" x1="0.5" x2="0.5" y2="1" gradientUnits="objectBoundingBox">
      <stop offset="0" stop-color="#112436"/>
      <stop offset="1" stop-color="#235684"/>
    </linearGradient>
  </defs>
  <path id="paper-plane" class="cls-1" d="M33.713,1.286A4.325,4.325,0,0,0,29.63.119L6.3,5.034A7.284,7.284,0,0,0,2.137,17.4l2.505,2.5a1.458,1.458,0,0,1,.427,1.032v4.62a4.324,4.324,0,0,0,.437,1.874l-.012.01.038.038a4.375,4.375,0,0,0,1.986,1.977l.038.038.01-.012a4.324,4.324,0,0,0,1.874.437h4.62a1.458,1.458,0,0,1,1.031.426l2.5,2.5A7.238,7.238,0,0,0,22.729,35a7.363,7.363,0,0,0,2.341-.385A7.194,7.194,0,0,0,29.947,28.8L34.868,5.417a4.338,4.338,0,0,0-1.155-4.131ZM6.707,17.847,4.2,15.343A4.287,4.287,0,0,1,3.147,10.86,4.343,4.343,0,0,1,6.793,7.905l23.1-4.863L7.983,24.956V20.938A4.343,4.343,0,0,0,6.707,17.847ZM27.081,28.3a4.375,4.375,0,0,1-7.421,2.5l-2.508-2.508a4.343,4.343,0,0,0-3.09-1.28H10.044L31.958,5.1Z" transform="translate(-0.003 -0.001)"/>
</svg>
