<svg xmlns="http://www.w3.org/2000/svg" xmlns:xlink="http://www.w3.org/1999/xlink" width="31.994" height="32" viewBox="0 0 31.994 32">
  <defs>
    <style>
      .cls-1 {
        fill: url(#linear-gradient);
      }
    </style>
    <linearGradient id="linear-gradient" x1="0.5" x2="0.5" y2="1" gradientUnits="objectBoundingBox">
      <stop offset="0" stop-color="#112436"/>
      <stop offset="1" stop-color="#235684"/>
    </linearGradient>
  </defs>
  <path id="hand-holding-heart" class="cls-1" d="M30.69,11.713a4.013,4.013,0,0,0-5.672.267l-4.289,4.713a4.192,4.192,0,0,0-3.587-2.027H4a4,4,0,0,0-4,4V28a4,4,0,0,0,4,4H17.93L30.98,17.353a4.029,4.029,0,0,0-.289-5.64Zm-1.7,3.867L16.736,29.333H4A1.333,1.333,0,0,1,2.667,28V18.667A1.333,1.333,0,0,1,4,17.333H17.142a1.523,1.523,0,0,1,.217,3.031l-6.883.983.379,2.64L17.737,23a4.208,4.208,0,0,0,3.351-2.744l5.9-6.485a1.333,1.333,0,0,1,.933-.439,1.372,1.372,0,0,1,.971.349,1.353,1.353,0,0,1,.095,1.895ZM13.9,12.2l.769.545.769-.545c.6-.427,5.9-4.277,5.9-7.933a4.145,4.145,0,0,0-4-4.267,4.012,4.012,0,0,0-2.667.969A4.012,4.012,0,0,0,12,0,4.145,4.145,0,0,0,8,4.267C8,7.923,13.293,11.773,13.9,12.2ZM12,2.667A1.253,1.253,0,0,1,13.333,4H16a1.253,1.253,0,0,1,1.333-1.333,1.487,1.487,0,0,1,1.333,1.6c0,1.432-2.133,3.691-4,5.175-1.653-1.333-4-3.636-4-5.175A1.487,1.487,0,0,1,12,2.667Z" transform="translate(0 0)"/>
</svg>
