<svg xmlns="http://www.w3.org/2000/svg" xmlns:xlink="http://www.w3.org/1999/xlink" width="18" height="18" viewBox="0 0 18 18">
  <defs>
    <clipPath id="clip-path">
      <rect id="Rechteck_2683" data-name="Rechteck 2683" width="18" height="18" fill="#5dd166"/>
    </clipPath>
    <clipPath id="clip-path-2">
      <rect id="Rechteck_2684" data-name="Rechteck 2684" width="9.012" height="6.296" fill="none"/>
    </clipPath>
  </defs>
  <g id="Gruppe_10227" data-name="Gruppe 10227" transform="translate(-48 -283.866)" style="isolation: isolate">
    <g id="Gruppe_6971" data-name="Gruppe 6971" transform="translate(48 283.866)">
      <g id="Gruppe_6970" data-name="Gruppe 6970" clip-path="url(#clip-path)">
        <path id="Pfad_2640" data-name="Pfad 2640" d="M9,0A9,9,0,1,1,0,9,9,9,0,0,1,9,0" transform="translate(0 0)" fill="#5dd166"/>
      </g>
    </g>
    <g id="Gruppe_6973" data-name="Gruppe 6973" transform="translate(52.727 290.202)">
      <g id="Gruppe_6972" data-name="Gruppe 6972" clip-path="url(#clip-path-2)">
        <path id="Pfad_2641" data-name="Pfad 2641" d="M10.117,3.427l-4.5,4.5a.905.905,0,0,1-1.275,0l-2.7-2.7a.9.9,0,0,1,1.252-1.3l.023.023L4.973,6.018,8.842,2.152a.9.9,0,0,1,1.275,1.275" transform="translate(-1.359 -1.898)" fill="#fff"/>
      </g>
    </g>
  </g>
</svg>
