<?xml version="1.0" encoding="UTF-8"?>
<svg id="Ebene_2" data-name="Ebene 2" xmlns="http://www.w3.org/2000/svg" viewBox="0 0 178.75 81.83">
  <defs>
    <style>
      .cls-1 {
        fill: #0d933a;
      }

      .cls-1, .cls-2, .cls-3, .cls-4 {
        stroke-width: 0px;
      }

      .cls-2 {
        fill: #5dc4e9;
      }

      .cls-3 {
        fill: #004d86;
      }

      .cls-4 {
        fill: #1f3a6a;
      }
    </style>
  </defs>
  <g id="Original">
    <g>
      <polygon class="cls-4" points="21.98 9.41 19.48 9.41 19.48 10.08 21.44 10.08 26.32 30.14 1.14 30.14 6.02 10.08 7.98 10.08 7.98 9.41 5.48 9.41 0 31.04 27.46 31.04 21.98 9.41"/>
      <path class="cls-2" d="m18.53.66h-9.61c-.58,0-1.06.48-1.06,1.06v9.43h.89V1.72c0-.09.08-.17.17-.17h1.93v6.85h-1.79l2.57,2.75h4.19l2.57-2.75h-1.79V1.55h1.93c.09,0,.17.08.17.17v9.43h.89V1.72c0-.58-.48-1.06-1.06-1.06Z"/>
      <g>
        <path class="cls-4" d="m11.71,22.79h4.04c.27,0,.48-.22.46-.49l-.15-2.65c-.02-.27-.25-.49-.52-.49h-3.62c-.27,0-.5.22-.52.49l-.15,2.65c-.02.27.19.49.46.49Z"/>
        <path class="cls-4" d="m9.69,19.17h-3.65c-.27,0-.53.22-.58.48l-.54,2.66c-.05.26.12.48.39.48h4.07c.27,0,.51-.22.53-.49l.23-2.65c.02-.27-.18-.49-.45-.49Z"/>
        <path class="cls-4" d="m11.87,18.11h3.71c.21,0,.38-.18.37-.39l-.12-2.12c-.01-.21-.2-.39-.41-.39h-3.37c-.21,0-.4.18-.41.39l-.12,2.12c-.01.21.15.39.37.39Z"/>
        <path class="cls-4" d="m10.15,15.22h-3.41c-.21,0-.43.17-.47.38l-.43,2.13c-.04.21.1.38.31.38h3.75c.21,0,.41-.18.42-.39l.18-2.12c.02-.21-.14-.39-.36-.39Z"/>
        <path class="cls-4" d="m21.3,18.11c.21,0,.36-.17.31-.38l-.43-2.13c-.04-.21-.25-.38-.47-.38h-3.4c-.21,0-.38.17-.36.39l.18,2.12c.02.21.21.39.42.39h3.74Z"/>
        <path class="cls-4" d="m12.04,14.29h3.39c.19,0,.33-.15.32-.34l-.1-1.63c-.01-.19-.17-.34-.36-.34h-3.12c-.19,0-.35.15-.36.34l-.1,1.63c-.01.19.13.34.32.34Z"/>
        <path class="cls-4" d="m20.58,14.29c.19,0,.31-.15.27-.34l-.33-1.65c-.04-.18-.22-.33-.41-.33h-3.14c-.19,0-.33.15-.31.34l.14,1.64c.02.19.18.34.37.34h3.41Z"/>
        <path class="cls-4" d="m10.49,11.97h-3.16c-.19,0-.37.15-.41.34l-.33,1.65c-.04.18.09.34.27.34h3.43c.19,0,.35-.15.37-.34l.14-1.64c.02-.19-.12-.34-.31-.34Z"/>
        <path class="cls-4" d="m22.14,22.79c.27,0,.44-.22.39-.48l-.54-2.66c-.05-.26-.32-.48-.58-.48h-3.64c-.27,0-.47.22-.45.49l.23,2.65c.02.27.26.49.53.49h4.06Z"/>
        <path class="cls-4" d="m15.71,23.99h-3.96c-.32,0-.6.26-.62.59l-.2,3.36c-.02.32.23.58.55.58h4.49c.32,0,.57-.26.55-.58l-.2-3.36c-.02-.32-.3-.59-.62-.59Z"/>
        <path class="cls-4" d="m9.17,23.99h-3.98c-.32,0-.64.26-.7.57l-.68,3.38c-.06.32.15.57.47.57h4.51c.32,0,.61-.26.64-.58l.29-3.36c.03-.32-.21-.58-.54-.58Z"/>
        <path class="cls-4" d="m22.97,24.56c-.06-.32-.38-.57-.7-.57h-3.98c-.32,0-.56.26-.54.58l.29,3.36c.03.32.31.58.64.58h4.51c.32,0,.53-.26.47-.57l-.68-3.38Z"/>
      </g>
      <g>
        <path class="cls-4" d="m73.24,9.41h-3.8v21.62h3.8V9.41Zm-12.36,10.95c0,.54,0,2.69-1.25,4.64-1.29,2.04-3.23,3.01-4.93,3.01-1.45,0-2.95-.63-3.97-1.58-1.52-1.51-1.97-3.93-1.97-6.24.03-3.26.97-5.1,2.51-6.51.59-.6,1.8-1.38,3.39-1.38,1.08,0,2.45.42,3.59,1.33,2.75,2.3,2.63,6.53,2.63,6.74m1.94,16.72c1.61-2.13,1.74-4.34,1.85-8.87l-.05-18.81h-3.62v3.34c-.12-.2-.82-1.29-1.75-2.04-.96-.84-2.74-1.76-5.17-1.73-2.17,0-3.88.83-4.72,1.38-1.4.93-2.14,1.88-2.54,2.48-1.69,2.33-2.14,5.13-2.14,7.51,0,.6,0,2.64.64,4.56.17.54.89,2.96,3.03,4.76,1.18.96,2.99,1.93,5.74,1.8,1.53-.08,3.64-.58,5.17-1.88.49-.42.78-.7,1.46-1.63l-.03,2.97c-.09.96-.14,1.93-.5,2.88-.19.59-.53,1.14-.97,1.64-1.04,1.2-2.37,1.83-4.92,1.92-2.5,0-4.56-.59-5.5-.92-1.04-.38-1.69-.79-2.14-1.04l-.4,3.77c.61.24,1.06.41,1.71.63,1.04.33,3.32.91,6.09.91,2.99,0,4.89-.68,6.18-1.38,1.43-.83,2.1-1.59,2.59-2.26m6.36-32.82h4.16V0h-4.16v4.27Zm18.18,8.35c1.05,0,1.58.19,2.62.52v-3.8c-.19,0-1.36-.18-2.33-.18-1.58,0-3.56.38-5.09,2.22-.24.29-.61.88-1.06,1.64l-.2-3.6h-3.64c.12,2.71.21,4.6.21,7.27,0,3.13-.06,5.34-.06,8.44v5.9h3.93v-10.58c.12-2.05.24-4.76,2.34-6.61,1.41-1.22,2.78-1.22,3.27-1.22m19.88,7.39c0,2.36-.73,5.82-3.64,7.46-.58.29-1.58.76-3,.76-.32,0-1.49-.04-2.62-.59-.24-.13-.48-.26-1.06-.68-.59-.44-1.4-1.34-2.05-2.84-.56-1.33-.76-2.75-.72-4.18.07-3,1.32-5.13,2.62-6.22.85-.71,2.22-1.55,4.25-1.55,3.35.04,4.83,2.34,5.56,4.1.24.63.65,2.04.65,3.75m.85,8.64c2.5-2.52,3.22-5.94,3.18-8.71-.12-5.31-2.9-8.48-5.53-9.87-.92-.45-2.5-1.04-4.71-1.04-4.85,0-7.96,2.51-9.46,5.1-1.06,1.84-1.45,3.98-1.5,6.15-.04,4.34,1.5,6.9,3.35,8.7.45.37.89.72,1.38,1.01,1.21.79,2.95,1.45,5.81,1.45,2.19,0,3.64-.41,4.57-.84.97-.41,2.03-1.07,2.91-1.95"/>
        <path class="cls-4" d="m114.62,14.01c.12,4.18.12,7.15.12,11.35,0,5.24-.09,10.48-.12,15.72h3.86v-12.97c.62.75.76.95,1.22,1.38,1.05.92,2.78,1.96,5.33,1.96.75,0,4.16-.05,6.83-2.96,3.23-3.47,2.96-8.16,2.96-8.86-.05-1.51-.25-3.18-.87-4.74-1.04-2.68-3.5-5.98-8.6-5.98-.55,0-3.52,0-5.77,2.23-.41.33-.69.7-1.34,1.58l-.17-3.3h-3.64c.1,1.72.12,2.89.18,4.6Zm3.79,6.03c0-.39.03-1.69.44-3.01,1.01-3.06,3.3-4.72,5.85-4.72,2.06,0,4.12,1.13,5.26,3.56.63,1.36.88,2.92.8,4.43,0,.54-.03,1.8-.56,3.33-1.41,4.02-4.6,4.41-5.66,4.41-2.46,0-4.71-1.65-5.68-4.64-.16-.64-.49-1.8-.44-3.36Z"/>
        <path class="cls-4" d="m174.65,9.41l-4.82,11.7-2.18,5.67-.15.31c-.55-1.62-1.3-3.65-1.99-5.57l-4.47-12.11h-4.15l8.68,21.62-4.23,10.05h3.87l13.54-31.67h-4.1Z"/>
        <path class="cls-4" d="m154.05,12.21c-1.13-1.89-4.04-3.22-7.43-3.22-4.12,0-6.21,1.48-6.78,1.83v3.4c.87-.52,3.37-2.05,6.05-2.05s4.68,1.51,5.23,2.92c.31.88.39,1.95.39,2.85-1-.05-2.07-.09-3.11-.09-2.13,0-5.13.09-7.26,1.14-1.66.79-3.93,2.33-3.93,5.79,0,2.37,1.11,4.11,2.18,5.02,1.21,1.03,2.84,1.43,4.49,1.53,2.47.07,4.58-.68,5.65-1.44.92-.7,1.48-1.37,2.29-2.3v3.43h3.3v-13.96c0-2.16-.5-3.99-1.08-4.86Zm-2.45,9.08c0,1.43-.13,2.26-.33,2.92-.08.29-.33,1.01-.97,1.85-1.25,1.71-3.35,2.29-4.9,2.29-1.78,0-4.14-.93-4.14-3.46s2.94-3.85,4.57-4.12c.73-.12,1.52-.18,2.86-.18.97,0,1.94.03,2.91.11v.59h0Z"/>
      </g>
      <path class="cls-3" d="m143.44,53.49v2.37h-3.1v-2.37h3.1Zm-7.36-1.66v5.83c-.55-.59-1.11-.99-1.64-1.22-.67-.28-1.36-.41-2.09-.41-1.44,0-2.72.51-3.83,1.54-1.21,1.12-1.81,2.65-1.81,4.58,0,1.7.46,3.08,1.39,4.13,1.05,1.19,2.44,1.79,4.19,1.79.91,0,1.73-.19,2.43-.58.45-.24.9-.68,1.35-1.29v1.47h3.11v-15.85h-3.11Zm-.73,12.6c-.59.76-1.34,1.14-2.29,1.14-.83,0-1.53-.3-2.12-.9-.62-.62-.93-1.46-.93-2.51,0-.83.21-1.55.61-2.18.59-.9,1.41-1.36,2.47-1.36.87,0,1.58.33,2.15,1,.57.66.85,1.5.85,2.51,0,.88-.24,1.65-.73,2.29Zm8.09-8.01v11.26h-3.1v-11.26h3.1Zm31.56,2.54v5.4c0,.29.07.47.2.57.15.1.38.15.68.15h2.08v2.59h-4.02c-.72,0-1.25-.18-1.6-.54-.29-.31-.44-.84-.44-1.61v-13.16h3.1v3.99h2.96v2.6h-2.97Zm-3.4-2.54h-3.58l-3.15,4.32v-8.32h-3.11v7.72c-.22-.73-.58-1.4-1.06-1.99-1.17-1.41-2.75-2.12-4.75-2.12-1.17,0-2.23.26-3.14.78-.44.25-.82.55-1.16.89v-1.32h-3.54c-.65.06-1.24.22-1.76.49-.44.22-.84.55-1.21.99-.38.44-.56,1.04-.56,1.81v7.99h3.11v-7.61c.05-.17.15-.34.28-.49.12-.12.29-.23.5-.33.21-.1.48-.15.82-.15h1.4c-.45.91-.68,1.89-.68,2.95,0,1.68.51,3.06,1.52,4.13,1.21,1.27,2.75,1.91,4.62,1.91,1.4,0,2.65-.43,3.77-1.3.69-.54,1.25-1.25,1.7-2.13l-2.83-.78c-.19.37-.46.68-.8.9-.55.37-1.15.56-1.8.56-.94,0-1.7-.34-2.28-1.02-.34-.39-.56-.89-.67-1.51h8.54v4.9h3.11v-4.67l3.14,4.67h3.59l-3.84-5.86,3.84-5.4Zm-18.39,4.59c.12-.6.33-1.07.63-1.43.54-.63,1.25-.94,2.14-.94s1.67.31,2.24.94c.33.36.54.83.64,1.43h-5.65Z"/>
      <g>
        <path class="cls-1" d="m107.92,79.52c-.55-1.73.41-3.59,2.14-4.15,1.74-.55,3.6.4,4.15,2.14.55,1.74-.41,3.6-2.14,4.15-1.74.56-3.59-.4-4.15-2.14Z"/>
        <path class="cls-1" d="m100.85,79.69c-.4-1.26.29-2.59,1.54-2.98,1.25-.4,2.58.29,2.98,1.54.4,1.24-.29,2.58-1.54,2.98-1.25.39-2.58-.3-2.98-1.54Z"/>
        <path class="cls-1" d="m95.39,76.8c-.32-1,.23-2.08,1.24-2.39,1-.32,2.07.24,2.39,1.24.32,1-.24,2.07-1.24,2.39-1,.32-2.07-.24-2.39-1.24Z"/>
        <path class="cls-1" d="m122.47,56.43l-2.63,6.7-2.28-6.7h-6.16v1.43c-.45-.53-.89-.92-1.31-1.18-.7-.42-1.49-.63-2.38-.63-1.07,0-2.03.26-2.89.79-.85.51-1.5,1.19-1.96,2.06-.17.31-.31.63-.42.96-.4-1.18-1.14-2.14-2.23-2.88-.93-.63-1.97-.94-3.13-.94-.97,0-1.81.21-2.51.63-.41.25-.81.63-1.2,1.15v-1.39h-3.1v15.74h3.1v-5.7c.94,1.08,2.19,1.62,3.77,1.62,1.31,0,2.44-.34,3.39-1.04.89-.65,1.51-1.5,1.88-2.54.22.62.52,1.17.93,1.67,1.05,1.27,2.43,1.91,4.15,1.91,1.59,0,2.89-.64,3.91-1.94v1.54h3.1v-10.59l3.71,10.33-1.09,3.12c1.11-.24,2.24.16,2.97.97l5.68-15.09h-3.3Zm-23.61,7.88c-.58.85-1.41,1.27-2.49,1.27-.87,0-1.59-.3-2.15-.9-.56-.6-.84-1.43-.84-2.48,0-.89.2-1.64.61-2.24.6-.88,1.42-1.32,2.49-1.32.86,0,1.58.32,2.15.96.57.64.86,1.5.86,2.57,0,.83-.21,1.54-.62,2.14Zm11.79.11c-.61.78-1.38,1.16-2.32,1.16-.78,0-1.44-.28-2-.84-.66-.66-.99-1.52-.99-2.59,0-.9.24-1.68.73-2.36.55-.75,1.31-1.13,2.28-1.13s1.8.37,2.38,1.12c.48.62.71,1.38.71,2.27s-.27,1.69-.8,2.37Zm7.56,11.91c1.26-.4,1.95-1.74,1.55-3-.4-1.26-1.75-1.96-3-1.55-1.26.4-1.95,1.74-1.55,3,.4,1.26,1.75,1.95,3,1.55Z"/>
      </g>
    </g>
  </g>
</svg>