<svg xmlns="http://www.w3.org/2000/svg" width="49.174" height="12.567" viewBox="0 0 49.174 12.567">
  <g id="Gruppe_10235" data-name="Gruppe 10235" transform="translate(-24 -44.268)">
    <g id="paypal" transform="translate(24 44.268)">
      <g id="Gruppe_10232" data-name="Gruppe 10232" transform="translate(0 0)">
        <path id="Pfad_3561" data-name="Pfad 3561" d="M351.337,221.2h-2.654a.519.519,0,0,0-.39.312l-1.093,6.869a.207.207,0,0,0,.234.234h1.4a.207.207,0,0,0,.234-.234l.312-1.951a.357.357,0,0,1,.39-.312h.859a2.72,2.72,0,0,0,3.044-2.576,2.046,2.046,0,0,0-.312-1.717,3.148,3.148,0,0,0-2.029-.624m.312,2.576c-.156.937-.859.937-1.561.937h-.468l.312-1.8c0-.078.078-.156.234-.156h.156c.468,0,.937,0,1.171.312.156.078.156.312.156.7" transform="translate(-313.325 -217.922)" fill="#139ad6"/>
        <g id="Gruppe_10230" data-name="Gruppe 10230" transform="translate(14.752 3.278)">
          <path id="Pfad_3562" data-name="Pfad 3562" d="M155.337,221.2h-2.654a.519.519,0,0,0-.39.312l-1.093,6.869a.207.207,0,0,0,.234.234h1.249a.519.519,0,0,0,.39-.312l.312-1.873a.357.357,0,0,1,.39-.312h.859a2.72,2.72,0,0,0,3.044-2.576,2.046,2.046,0,0,0-.312-1.717,3,3,0,0,0-2.029-.624m.312,2.576c-.156.937-.859.937-1.561.937h-.39l.312-1.8c0-.078.078-.156.234-.156h.156c.468,0,.937,0,1.171.312a.836.836,0,0,1,.078.7" transform="translate(-151.2 -221.2)" fill="#263b80"/>
          <path id="Pfad_3563" data-name="Pfad 3563" d="M219.958,245.356h-1.249c-.078,0-.234.078-.234.156l-.078.39-.078-.156a1.836,1.836,0,0,0-1.483-.546,3,3,0,0,0-2.888,2.576,2.326,2.326,0,0,0,.468,1.951,1.967,1.967,0,0,0,1.639.624,2.5,2.5,0,0,0,1.8-.7l-.078.39a.207.207,0,0,0,.234.234h1.171a.519.519,0,0,0,.39-.312l.7-4.371c-.078-.078-.234-.234-.312-.234m-1.8,2.5a1.51,1.51,0,0,1-1.483,1.249,1.248,1.248,0,0,1-.859-.312,1.665,1.665,0,0,1-.234-.937,1.392,1.392,0,0,1,2.264-.937,1.363,1.363,0,0,1,.312.937" transform="translate(-207.782 -242.858)" fill="#263b80"/>
        </g>
        <path id="Pfad_3564" data-name="Pfad 3564" d="M415.158,245.356h-1.249c-.078,0-.234.078-.234.156l-.078.39-.078-.156a1.836,1.836,0,0,0-1.483-.546,3,3,0,0,0-2.888,2.576,2.327,2.327,0,0,0,.468,1.951,1.967,1.967,0,0,0,1.639.624,2.5,2.5,0,0,0,1.8-.7l-.078.39a.207.207,0,0,0,.234.234h1.171a.519.519,0,0,0,.39-.312l.7-4.371c-.078-.078-.156-.234-.312-.234m-1.8,2.5a1.51,1.51,0,0,1-1.483,1.249,1.248,1.248,0,0,1-.859-.312,1.665,1.665,0,0,1-.234-.937,1.392,1.392,0,0,1,2.264-.937.9.9,0,0,1,.312.937" transform="translate(-369.185 -239.58)" fill="#139ad6"/>
        <path id="Pfad_3565" data-name="Pfad 3565" d="M290.01,246.8h-1.327a.406.406,0,0,0-.312.156l-1.717,2.654-.781-2.5a.361.361,0,0,0-.39-.234h-1.249c-.156,0-.234.156-.234.312l1.4,4.137-1.327,1.873c-.078.156,0,.39.156.39h1.249a.405.405,0,0,0,.312-.156l4.293-6.166c.234-.234.078-.468-.078-.468" transform="translate(-256.291 -241.024)" fill="#263b80"/>
        <path id="Pfad_3566" data-name="Pfad 3566" d="M476.293,221.873,475.2,228.9a.207.207,0,0,0,.234.234h1.093a.518.518,0,0,0,.39-.312l1.093-6.869a.207.207,0,0,0-.234-.234h-1.249c-.078-.078-.156,0-.234.156" transform="translate(-428.836 -218.361)" fill="#139ad6"/>
        <path id="Pfad_3567" data-name="Pfad 3567" d="M8.976,188.537A3.856,3.856,0,0,0,6.01,187.6h-3.9a.67.67,0,0,0-.546.468L0,198.293a.357.357,0,0,0,.312.39h2.42l.624-3.825v.156a.67.67,0,0,1,.546-.468H5.073c2.264,0,3.981-.937,4.527-3.512V190.8h0a2.726,2.726,0,0,0-.624-2.264" transform="translate(0 -187.6)" fill="#263b80"/>
        <path id="Pfad_3568" data-name="Pfad 3568" d="M32.625,220.4h0v.234c-.546,2.654-2.264,3.512-4.527,3.512H26.927a.67.67,0,0,0-.546.468l-.781,4.761a.286.286,0,0,0,.312.312h2.029a.437.437,0,0,0,.468-.39v-.078l.39-2.42v-.156a.437.437,0,0,1,.468-.39h.312c1.951,0,3.512-.781,3.9-3.122a2.87,2.87,0,0,0-.39-2.342.8.8,0,0,0-.468-.39" transform="translate(-23.102 -217.2)" fill="#139ad6"/>
        <path id="Pfad_3569" data-name="Pfad 3569" d="M40.02,215.834c-.078,0-.156-.078-.234-.078a.287.287,0,0,1-.234-.078,4.124,4.124,0,0,0-1.015-.078H35.493a.287.287,0,0,0-.234.078.429.429,0,0,0-.234.39l-.624,4.059v.156a.67.67,0,0,1,.546-.468h1.171c2.264,0,3.981-.937,4.527-3.512a.287.287,0,0,1,.078-.234c-.156-.078-.234-.156-.39-.156-.234-.078-.234-.078-.312-.078" transform="translate(-31.044 -212.868)" fill="#232c65"/>
      </g>
    </g>
  </g>
</svg>
