<svg xmlns="http://www.w3.org/2000/svg" width="37.895" height="11.489" viewBox="0 0 37.895 11.489">
  <g id="Gruppe_10234" data-name="Gruppe 10234" transform="translate(-30 -45)">
    <g id="visa" transform="translate(30 45)">
      <path id="Pfad_3570" data-name="Pfad 3570" d="M184.8,191.227l1.925-10.827h3.008l-1.865,10.827Z" transform="translate(-170.905 -180.039)" fill="#3c58bf"/>
      <path id="Pfad_3571" data-name="Pfad 3571" d="M184.8,191.227l2.466-10.827h2.466l-1.865,10.827Z" transform="translate(-170.905 -180.039)" fill="#293688"/>
      <path id="Pfad_3572" data-name="Pfad 3572" d="M257.2,176.081a7.629,7.629,0,0,0-2.767-.481c-3.008,0-5.173,1.5-5.173,3.669,0,1.624,1.5,2.466,2.707,3.008s1.564.9,1.564,1.383c0,.722-.962,1.083-1.8,1.083a6.538,6.538,0,0,1-2.887-.6l-.421-.18L248,186.427a9.753,9.753,0,0,0,3.429.6c3.188,0,5.293-1.5,5.293-3.79,0-1.263-.782-2.226-2.587-3.008-1.083-.541-1.744-.842-1.744-1.383,0-.481.541-.962,1.744-.962a5.517,5.517,0,0,1,2.286.421l.3.12.481-2.346Z" transform="translate(-229.353 -175.6)" fill="#3c58bf"/>
      <path id="Pfad_3573" data-name="Pfad 3573" d="M257.2,176.081a7.629,7.629,0,0,0-2.767-.481c-3.008,0-4.632,1.5-4.632,3.669a3.144,3.144,0,0,0,2.165,3.008c1.2.541,1.564.9,1.564,1.383,0,.722-.962,1.083-1.8,1.083a6.538,6.538,0,0,1-2.887-.6l-.421-.18L248,186.427a9.753,9.753,0,0,0,3.429.6c3.188,0,5.293-1.5,5.293-3.79,0-1.263-.782-2.226-2.587-3.008-1.083-.541-1.744-.842-1.744-1.383,0-.481.541-.962,1.744-.962a5.517,5.517,0,0,1,2.286.421l.3.12.481-2.346Z" transform="translate(-229.353 -175.6)" fill="#293688"/>
      <path id="Pfad_3574" data-name="Pfad 3574" d="M364.475,180.4c-.722,0-1.263.06-1.564.782L358.4,191.227h3.248l.6-1.8h3.85l.361,1.8h2.887L366.821,180.4Zm-1.383,7.218c.18-.541,1.2-3.188,1.2-3.188s.241-.662.421-1.083l.18,1.023s.6,2.707.722,3.308h-2.526Z" transform="translate(-331.452 -180.039)" fill="#3c58bf"/>
      <path id="Pfad_3575" data-name="Pfad 3575" d="M365.2,180.4c-.722,0-1.263.06-1.564.782L358.4,191.227h3.248l.6-1.8h3.85l.361,1.8h2.887L366.821,180.4Zm-2.105,7.218c.241-.6,1.2-3.188,1.2-3.188s.241-.662.421-1.083l.18,1.023s.6,2.707.722,3.308h-2.526Z" transform="translate(-331.452 -180.039)" fill="#293688"/>
      <path id="Pfad_3576" data-name="Pfad 3576" d="M55.711,188.719l-.3-1.564A8.72,8.72,0,0,0,51.2,182.4l2.707,9.624h3.248L62.027,181.2H58.779Z" transform="translate(-47.35 -180.779)" fill="#3c58bf"/>
      <path id="Pfad_3577" data-name="Pfad 3577" d="M55.711,188.719l-.3-1.564A8.72,8.72,0,0,0,51.2,182.4l2.707,9.624h3.248L62.027,181.2H59.381Z" transform="translate(-47.35 -180.779)" fill="#293688"/>
      <path id="Pfad_3578" data-name="Pfad 3578" d="M0,180.4l.541.12c3.85.9,6.5,3.188,7.519,5.895L6.977,181.3c-.18-.722-.722-.9-1.383-.9Z" transform="translate(0 -180.039)" fill="#ffbc00"/>
      <path id="Pfad_3579" data-name="Pfad 3579" d="M0,180.4H0c3.85.9,7.038,3.248,8.06,5.955l-1.023-4.271a1.468,1.468,0,0,0-1.444-1.143Z" transform="translate(0 -180.039)" fill="#f7981d"/>
      <path id="Pfad_3580" data-name="Pfad 3580" d="M0,180.4H0c3.85.9,7.038,3.248,8.06,5.955l-.722-2.346a2.121,2.121,0,0,0-1.263-1.744Z" transform="translate(0 -180.039)" fill="#ed7c00"/>
      <g id="Gruppe_10231" data-name="Gruppe 10231" transform="translate(3.91 1.564)">
        <path id="Pfad_3581" data-name="Pfad 3581" d="M59.459,202.415l-2.045-2.045-.962,2.286-.241-1.5A8.72,8.72,0,0,0,52,196.4l2.707,9.624h3.248Z" transform="translate(-52 -196.4)" fill="#051244"/>
        <path id="Pfad_3582" data-name="Pfad 3582" d="M187.868,291.847l-2.586-2.647-.481,2.647Z" transform="translate(-174.815 -282.222)" fill="#051244"/>
        <path id="Pfad_3583" data-name="Pfad 3583" d="M253.233,274.8h0c.241.241.361.421.3.662,0,.722-.962,1.083-1.8,1.083a6.538,6.538,0,0,1-2.887-.6l-.421-.18L248,278.229a9.753,9.753,0,0,0,3.429.6,5.956,5.956,0,0,0,4.391-1.5Z" transform="translate(-233.263 -268.905)" fill="#051244"/>
        <path id="Pfad_3584" data-name="Pfad 3584" d="M364,227.48h2.827l.6-1.8h3.85l.361,1.8h2.887l-1.023-4.391-3.609-3.489.18.962s.6,2.707.722,3.308h-2.526c.241-.6,1.2-3.188,1.2-3.188s.241-.662.421-1.083" transform="translate(-340.541 -217.856)" fill="#051244"/>
      </g>
    </g>
  </g>
</svg>
