<svg xmlns="http://www.w3.org/2000/svg" xmlns:xlink="http://www.w3.org/1999/xlink" width="65" height="43" viewBox="0 0 65 43">
  <defs>
    <clipPath id="clip-path">
      <rect id="Rechteck_3032" data-name="Rechteck 3032" width="30.489" height="23.72" transform="translate(0 0)" fill="none"/>
    </clipPath>
  </defs>
  <g id="Gruppe_10236" data-name="Gruppe 10236" transform="translate(-18 -29)">
    <rect id="Rechteck_3035" data-name="Rechteck 3035" width="65" height="43" rx="10" transform="translate(18 29)" fill="#fff"/>
    <g id="Gruppe_10233" data-name="Gruppe 10233" transform="translate(35 39.001)">
      <g id="Gruppe_10233-2" data-name="Gruppe 10233" transform="translate(0 -0.001)" clip-path="url(#clip-path)">
        <path id="Pfad_3585" data-name="Pfad 3585" d="M131.866,1320.42v.061h.057a.059.059,0,0,0,.03-.008.027.027,0,0,0,.011-.023.026.026,0,0,0-.011-.023.057.057,0,0,0-.03-.008h-.057Zm.057-.043a.107.107,0,0,1,.068.02.066.066,0,0,1,.024.054.062.062,0,0,1-.019.047.093.093,0,0,1-.055.023l.076.087h-.059l-.07-.086h-.023v.086h-.049v-.231h.106Zm-.015.31a.183.183,0,0,0,.075-.015.2.2,0,0,0,.061-.041.192.192,0,0,0,.041-.061.194.194,0,0,0-.1-.253.192.192,0,0,0-.075-.014.2.2,0,0,0-.076.014.191.191,0,0,0-.062.041.2.2,0,0,0-.041.213.182.182,0,0,0,.041.061.2.2,0,0,0,.062.041.188.188,0,0,0,.076.015m0-.442a.255.255,0,0,1,.179.073.241.241,0,0,1,.054.079.245.245,0,0,1,0,.193.256.256,0,0,1-.054.079.273.273,0,0,1-.08.053.247.247,0,0,1-.1.02.253.253,0,0,1-.1-.02.261.261,0,0,1-.081-.053.256.256,0,0,1-.053-.082.245.245,0,0,1,0-.193.247.247,0,0,1,.135-.132.249.249,0,0,1,.1-.02m-23.34-.888a.758.758,0,1,1,.759.8.751.751,0,0,1-.759-.8m2.025,0V1318.1h-.544v.3a.948.948,0,0,0-.79-.367,1.315,1.315,0,0,0,0,2.627.949.949,0,0,0,.79-.366v.3h.543v-1.251Zm18.381,0a.758.758,0,1,1,.759.8.751.751,0,0,1-.759-.8m2.026,0V1317.1h-.544v1.309a.948.948,0,0,0-.79-.367,1.315,1.315,0,0,0,0,2.627.949.949,0,0,0,.79-.366v.3H131Zm-13.655-.827a.621.621,0,0,1,.633.607h-1.3a.644.644,0,0,1,.665-.607m.011-.488a1.315,1.315,0,0,0,.036,2.627,1.519,1.519,0,0,0,1.026-.351l-.267-.4a1.193,1.193,0,0,1-.728.262.7.7,0,0,1-.748-.613h1.858c.005-.068.011-.136.011-.209a1.2,1.2,0,0,0-1.188-1.314m6.568,1.314a.758.758,0,1,1,.759.8.751.751,0,0,1-.759-.8m2.025,0v-1.25h-.544v.3a.949.949,0,0,0-.79-.367,1.315,1.315,0,0,0,0,2.627.95.95,0,0,0,.79-.366v.3h.544v-1.251Zm-5.1,0a1.264,1.264,0,0,0,1.335,1.314,1.308,1.308,0,0,0,.9-.3l-.261-.44a1.1,1.1,0,0,1-.655.225.8.8,0,0,1,0-1.6,1.1,1.1,0,0,1,.655.225l.261-.44a1.309,1.309,0,0,0-.9-.3,1.264,1.264,0,0,0-1.335,1.314m7.013-1.314a.738.738,0,0,0-.66.367v-.3h-.539v2.5h.545v-1.4c0-.414.178-.644.533-.644a.882.882,0,0,1,.34.063l.168-.513a1.155,1.155,0,0,0-.388-.068m-14.582.262a1.87,1.87,0,0,0-1.02-.262c-.634,0-1.042.3-1.042.8,0,.408.3.66.863.738l.257.037c.3.042.439.12.439.262,0,.193-.2.3-.57.3a1.333,1.333,0,0,1-.832-.262l-.256.424a1.8,1.8,0,0,0,1.083.325c.722,0,1.141-.34,1.141-.817,0-.44-.33-.67-.874-.748l-.256-.037c-.235-.031-.424-.078-.424-.246,0-.183.178-.293.476-.293a1.614,1.614,0,0,1,.78.214l.236-.44Zm7.019-.261a.737.737,0,0,0-.659.367v-.3H119.1v2.5h.544v-1.4c0-.414.178-.644.533-.644a.882.882,0,0,1,.34.063l.168-.513a1.155,1.155,0,0,0-.388-.068m-4.642.063h-.89v-.759h-.55v.759h-.507v.5h.507v1.141c0,.58.225.926.869.926a1.278,1.278,0,0,0,.681-.193l-.157-.466a1.007,1.007,0,0,1-.482.141c-.272,0-.361-.168-.361-.419v-1.13h.89Zm-8.133,2.5v-1.57a.932.932,0,0,0-.984-.995.969.969,0,0,0-.879.445.918.918,0,0,0-.827-.445.828.828,0,0,0-.733.371v-.309h-.544v2.5h.549v-1.387a.585.585,0,0,1,.613-.665c.361,0,.544.235.544.66v1.392h.55v-1.387a.59.59,0,0,1,.612-.665c.371,0,.549.235.549.66v1.392Z" transform="translate(-101.981 -1297.024)" fill="#231f20"/>
        <path id="Pfad_3586" data-name="Pfad 3586" d="M1929.644,977.586v-.366h-.1l-.11.251-.109-.251h-.1v.366h.068v-.276l.1.238h.07l.1-.238v.276h.067Zm-.6,0v-.3h.122v-.062h-.312v.062h.122v.3h.068Z" transform="translate(-1899.449 -962.325)" fill="#f79410"/>
        <path id="Pfad_3587" data-name="Pfad 3587" d="M737.954,146.965H729.71V132.15h8.244Z" transform="translate(-718.587 -130.135)" fill="#ff5f00"/>
        <path id="Pfad_3588" data-name="Pfad 3588" d="M11.645,9.422a9.407,9.407,0,0,1,3.6-7.408,9.422,9.422,0,1,0,0,14.816,9.407,9.407,0,0,1-3.6-7.408" transform="translate(0 0.001)" fill="#eb001b"/>
        <path id="Pfad_3589" data-name="Pfad 3589" d="M1015.355,9.422a9.422,9.422,0,0,1-15.245,7.408,9.423,9.423,0,0,0,0-14.816,9.422,9.422,0,0,1,15.245,7.408" transform="translate(-984.866 0.001)" fill="#f79e1b"/>
      </g>
    </g>
  </g>
</svg>
