<svg version="1.1" id="Layer_1" xmlns="http://www.w3.org/2000/svg" xmlns:xlink="http://www.w3.org/1999/xlink" x="0px" y="0px"
	 width="100%" viewBox="0 0 816 401" enable-background="new 0 0 816 401" xml:space="preserve">
<path fill="#FFFFFF" opacity="1.000000" stroke="none" 
	d="
M594.000000,402.000000 
	C396.000000,402.000000 198.500000,402.000000 1.000000,402.000000 
	C1.000000,268.333344 1.000000,134.666672 1.000000,1.000000 
	C273.000000,1.000000 545.000000,1.000000 817.000000,1.000000 
	C817.000000,134.666672 817.000000,268.333344 817.000000,402.000000 
	C742.833313,402.000000 668.666687,402.000000 594.000000,402.000000 
M635.980530,275.216797 
	C635.980530,270.229675 635.980530,265.242584 635.980530,260.311035 
	C630.996887,260.311035 626.601196,260.311035 622.358521,260.311035 
	C622.358521,280.336304 622.358521,300.049225 622.358521,319.734558 
	C627.032715,319.734558 631.444397,319.734558 635.833374,319.734558 
	C635.833374,318.312897 635.833374,317.156708 635.981323,315.073425 
	C635.932007,302.048767 635.882690,289.024139 635.980530,275.216797 
M120.008110,74.929459 
	C120.005119,65.780617 120.071800,56.631039 119.975609,47.483177 
	C119.907066,40.963600 118.856499,40.003334 112.536781,40.001244 
	C100.061073,39.997116 87.583450,40.122478 75.110771,39.928104 
	C71.205200,39.867241 69.849518,41.110046 69.924423,45.069912 
	C70.119423,55.377991 69.939316,65.693161 69.018730,76.000679 
	C67.685776,76.000450 66.332573,76.149452 65.023666,75.971939 
	C61.146996,75.446198 59.271282,76.532623 58.388184,80.892418 
	C56.304539,91.179161 53.422474,101.305153 50.829544,111.487549 
	C46.167072,129.796982 41.479805,148.100082 36.715275,166.748810 
	C75.398827,166.748810 113.627060,166.748810 152.455368,166.748810 
	C144.738770,136.336853 137.117447,106.300293 129.390427,75.847267 
	C126.323013,75.847267 123.178963,75.847267 120.008110,74.929459 
M307.000000,147.500000 
	C307.000000,123.748573 307.000000,99.997139 307.000000,76.324646 
	C301.315948,76.324646 296.246552,76.324646 290.907471,76.324646 
	C290.907471,80.226959 290.907471,83.808487 290.907471,87.308510 
	C288.212555,84.802544 285.930664,81.937035 283.007568,80.081902 
	C262.463043,67.043358 236.410156,75.832169 227.153625,99.090851 
	C221.033386,114.469109 221.123886,130.496124 227.161285,145.910721 
	C232.574753,159.732300 243.656570,168.810776 259.555176,169.002808 
	C271.382812,169.145676 281.771332,165.811111 290.447235,155.387222 
	C289.889404,162.338608 290.023071,168.158905 288.826721,173.691605 
	C287.320618,180.656784 283.947845,186.930328 276.876495,189.929916 
	C268.849609,193.334793 260.354706,193.243118 252.070755,191.437408 
	C244.916656,189.877991 237.994156,187.256104 231.328506,185.213943 
	C230.954102,187.553375 230.495056,190.455536 230.024353,193.355804 
	C228.925415,200.127060 229.700012,201.672546 236.394836,203.698624 
	C250.332047,207.916473 264.706268,209.484406 278.779175,205.746506 
	C291.685181,202.318542 302.619934,195.015106 304.826660,180.462723 
	C306.422241,169.940582 306.336121,159.163422 307.000000,147.500000 
M708.058167,312.412872 
	C708.854797,311.115051 709.651489,309.817230 711.102844,307.452820 
	C711.102844,312.327576 711.102844,316.033081 711.102844,319.692139 
	C715.965637,319.692139 720.363831,319.692139 725.255127,319.692139 
	C725.255127,314.074646 725.255127,308.754578 725.255127,302.362549 
	C728.951843,307.936707 731.904663,312.568909 735.073242,317.048431 
	C735.934326,318.265686 737.393799,319.766205 738.669800,319.857117 
	C743.370544,320.192108 748.109558,319.990143 753.512390,319.990143 
	C748.262573,311.894104 743.486572,304.619415 738.842285,297.261688 
	C738.200806,296.245392 737.539246,294.353638 738.023621,293.652496 
	C742.740417,286.825714 747.699341,280.166168 753.000000,272.895721 
	C753.000000,286.199554 752.978333,298.694946 753.009888,311.190186 
	C753.023804,316.703278 755.338989,319.593048 760.749207,319.910950 
	C766.682251,320.259583 772.651489,319.990356 778.750732,319.990356 
	C778.750732,315.812531 778.750732,312.079315 778.750732,307.996002 
	C775.708435,307.996002 772.866455,308.282318 770.133545,307.860992 
	C768.972717,307.682037 767.182495,306.052887 767.143127,305.026611 
	C766.877380,298.102539 767.004517,291.163361 767.004517,283.793396 
	C771.343750,283.793396 775.085449,283.793396 778.644409,283.793396 
	C778.644409,279.600098 778.644409,275.865967 778.644409,271.687683 
	C774.552124,271.687683 770.815369,271.687683 766.816772,271.687683 
	C766.816772,265.949341 766.816772,260.667114 766.816772,255.259354 
	C762.133606,255.259354 757.735962,255.259354 752.885071,255.259354 
	C752.885071,260.915070 752.885071,266.325745 752.885071,272.000000 
	C748.793091,272.000000 745.126282,272.273346 741.519714,271.924469 
	C737.786316,271.563293 735.708496,272.870209 733.840454,276.162628 
	C731.772156,279.808105 728.723328,282.897247 726.101501,286.228668 
	C725.708557,286.067047 725.315674,285.905426 724.922729,285.743805 
	C724.922729,275.553619 724.922729,265.363464 724.922729,255.358002 
	C719.934753,255.358002 715.535156,255.358002 710.713623,255.358002 
	C710.713623,264.417542 710.713623,273.121948 710.713623,282.310486 
	C699.403687,269.213531 686.662109,266.344666 671.983643,274.293091 
	C669.557617,273.295868 668.009338,272.186554 666.399841,272.089172 
	C662.082947,271.828003 657.738770,271.939667 653.407349,272.014069 
	C646.716064,272.128937 640.717529,275.567352 640.227417,282.019867 
	C639.281677,294.471069 639.951477,307.044983 639.951477,319.755615 
	C643.834961,319.755615 648.232117,319.755615 653.000000,319.755615 
	C653.000000,310.888214 652.999146,302.260162 653.000244,293.632111 
	C653.001282,285.105499 655.056946,283.337646 663.974915,284.415680 
	C663.486694,285.947540 662.994446,287.441345 662.533997,288.944916 
	C659.956482,297.360718 663.500793,310.030762 669.680786,315.198975 
	C680.096191,323.909271 698.932007,323.236023 708.058167,312.412872 
M515.101562,282.635681 
	C516.005981,283.598419 517.334778,284.407349 517.748108,285.548004 
	C521.265320,295.253448 524.787109,304.965210 527.892151,314.806122 
	C528.636841,317.166107 528.164734,320.083405 527.650452,322.622467 
	C527.035767,325.656952 525.774597,328.560486 525.040344,330.775940 
	C529.839539,332.298706 533.978027,333.611877 538.586182,335.074036 
	C546.273682,314.578278 554.178772,293.502350 562.187744,272.149567 
	C556.888184,272.149567 552.088867,272.149567 547.150757,272.149567 
	C543.840088,280.521759 540.561829,288.812103 536.751587,298.447723 
	C533.859985,289.934570 531.549744,282.756653 528.919617,275.697968 
	C528.375732,274.238373 526.683411,272.216156 525.449890,272.165344 
	C517.635620,271.843384 509.801422,271.994232 501.973846,272.009094 
	C499.810272,272.013214 497.381195,272.754364 495.526276,272.017975 
	C483.165283,267.110748 469.664185,272.622131 464.559265,283.798584 
	C452.822235,267.436249 438.093323,266.936462 427.226776,275.669495 
	C427.035095,274.411774 426.858124,273.250458 426.725159,272.377869 
	C421.895905,272.377869 417.496674,272.377869 413.211945,272.377869 
	C413.211945,294.691528 413.211945,316.626740 413.211945,338.763489 
	C417.819794,338.763489 422.214752,338.763489 427.086639,338.763489 
	C427.086639,331.200623 427.086639,323.859589 427.086639,315.619415 
	C433.231964,322.422943 440.605194,321.295959 447.507111,320.868652 
	C455.184784,320.393372 460.220032,315.305206 463.850586,308.762085 
	C474.162598,323.887054 486.663422,324.489410 500.885681,315.942413 
	C500.982117,316.975159 501.114288,318.390472 501.235016,319.683167 
	C505.957886,319.683167 510.367065,319.683167 515.008667,319.683167 
	C515.008667,307.395752 515.008667,295.423828 515.101562,282.635681 
M538.096008,80.398567 
	C535.702698,82.988586 533.309448,85.578598 530.916138,88.168617 
	C530.509521,87.885330 530.102844,87.602043 529.696167,87.318756 
	C529.696167,83.585091 529.696167,79.851433 529.696167,76.213348 
	C524.318665,76.213348 519.372864,76.213348 514.500000,76.213348 
	C514.500000,120.488663 514.500000,164.550522 514.500000,208.739716 
	C520.194641,208.739716 525.927856,208.739716 532.161743,208.739716 
	C532.161743,191.509323 532.161743,174.534164 532.161743,157.980499 
	C535.231140,160.249786 537.960632,162.825668 541.153564,164.536987 
	C560.408630,174.857178 583.702881,166.683914 593.737610,147.449905 
	C600.535095,134.420792 600.918518,120.509933 598.107971,106.124031 
	C592.144287,75.598961 560.921753,66.229393 538.096008,80.398567 
M496.572754,98.065590 
	C493.123871,93.387978 490.330688,87.982689 486.101105,84.171440 
	C474.205231,73.452126 459.667175,72.726669 445.031403,76.151207 
	C430.503326,79.550545 420.054718,88.659668 415.149292,102.948357 
	C411.665100,113.097275 410.778534,123.764931 413.066925,134.365829 
	C416.100494,148.418640 423.120483,159.761826 436.989105,165.409424 
	C446.383026,169.234848 456.166382,169.872940 466.287903,168.108047 
	C476.931305,166.252136 485.886200,161.675461 491.925629,152.830093 
	C503.504303,135.871902 503.804779,117.569168 496.572754,98.065590 
M620.000000,93.134750 
	C620.000000,94.366852 620.000000,95.598953 620.000000,97.160950 
	C633.191467,89.916336 637.749512,88.278427 648.755310,89.104042 
	C660.493835,89.984604 670.254761,99.197021 667.490295,111.256317 
	C655.557739,110.631386 643.695435,110.423065 632.140564,113.470932 
	C612.960266,118.530197 605.228882,131.113571 610.266418,150.079880 
	C611.530884,154.840729 615.361389,159.593033 619.267029,162.840546 
	C627.639465,169.802200 638.039551,168.598343 647.966675,167.449936 
	C656.377136,166.476974 662.970337,161.736359 669.007935,154.124756 
	C669.007935,159.219803 669.007935,162.933701 669.007935,166.733948 
	C674.209412,166.733948 678.941711,166.733948 683.996765,166.733948 
	C683.996765,144.670212 684.339233,122.863121 683.846680,101.074913 
	C683.614014,90.783600 678.399353,82.425369 668.656738,78.407585 
	C652.103149,71.581055 635.766785,72.734581 620.000000,81.493423 
	C620.000000,85.237183 620.000000,88.732361 620.000000,93.134750 
M775.946777,93.283081 
	C778.212341,87.600410 780.477905,81.917747 782.790344,76.117615 
	C776.482727,76.117615 770.499512,76.117615 764.451660,76.117615 
	C754.762451,99.988708 745.104919,123.781624 735.330688,147.862152 
	C726.436340,123.713417 717.642822,99.838509 708.984863,76.331581 
	C702.594238,76.331581 696.869934,76.331581 690.947144,76.331581 
	C691.083984,77.324684 691.045227,78.015411 691.278687,78.596832 
	C701.500977,104.053490 711.838867,129.464355 721.916565,154.977997 
	C724.022400,160.309433 728.245667,165.355728 724.675171,171.933334 
	C721.989441,176.881027 720.111084,182.268051 717.890381,187.466812 
	C714.888550,194.494339 711.902954,201.528839 708.723389,208.999802 
	C713.969299,208.999802 718.479797,209.239914 722.939514,208.868774 
	C724.487366,208.739960 726.567505,207.437302 727.268738,206.082779 
	C729.638916,201.504272 731.503967,196.663895 733.554199,191.920197 
	C740.026978,176.944244 746.532166,161.982162 752.957458,146.985855 
	C760.523987,129.326111 768.020203,111.636177 775.946777,93.283081 
M361.001007,78.701546 
	C361.001007,108.091240 361.001007,137.480927 361.001007,166.790512 
	C367.340424,166.790512 372.951965,166.790512 379.000000,166.790512 
	C379.000000,164.969742 379.000000,163.350906 379.000000,161.732056 
	C379.000000,146.910904 378.670471,132.080002 379.109222,117.271851 
	C379.432434,106.364021 383.148132,96.965569 394.035797,91.950035 
	C400.451263,88.994690 406.578156,91.328209 412.749847,92.543472 
	C412.749847,87.026260 412.749847,81.574966 412.749847,76.077538 
	C398.198822,72.956512 385.880951,75.518562 376.704407,88.360535 
	C376.704407,84.287453 376.704407,80.214363 376.704407,76.000931 
	C372.139893,76.000931 367.981720,75.894447 363.836639,76.080215 
	C362.871521,76.123466 361.950958,77.160667 361.001007,78.701546 
M575.039734,317.566742 
	C584.859253,323.494141 594.439026,322.187622 603.838074,316.286957 
	C604.001770,317.696655 604.127686,318.780762 604.229614,319.658752 
	C609.024292,319.658752 613.426697,319.658752 617.677307,319.658752 
	C617.677307,297.280060 617.677307,275.243896 617.677307,253.342087 
	C612.955750,253.342087 608.562439,253.342087 603.771362,253.342087 
	C603.771362,260.721130 603.771362,267.763306 603.771362,274.222076 
	C599.000671,272.767456 594.468262,270.226044 589.924133,270.204895 
	C572.250793,270.122528 561.978210,284.460510 565.440308,302.829407 
	C566.519409,308.554749 568.645691,314.112183 575.039734,317.566742 
M330.624268,167.000000 
	C334.704651,167.000000 338.785034,167.000000 342.658112,167.000000 
	C342.658112,136.249222 342.658112,106.211723 342.658112,76.362305 
	C336.912567,76.362305 331.514252,76.362305 326.000366,76.362305 
	C326.000366,105.679703 326.046478,134.635162 325.931519,163.589981 
	C325.919556,166.600311 327.015808,167.391571 330.624268,167.000000 
M514.000000,362.745239 
	C513.931396,356.782745 510.530609,353.257629 505.351074,351.157043 
	C499.639069,348.840485 494.579865,350.073151 490.202240,354.310760 
	C485.893036,358.482117 484.823242,363.579254 486.670380,369.096619 
	C489.393707,377.231018 497.053497,379.901733 501.793488,378.853760 
	C509.069061,377.245239 514.886719,373.444763 514.000000,362.745239 
M517.337402,350.840912 
	C520.003967,355.196716 524.088196,357.311951 528.809021,355.797516 
	C531.708740,354.867340 534.933716,352.470276 536.303589,349.841370 
	C538.294556,346.020477 537.837402,341.080933 534.343811,338.216248 
	C532.039917,336.327148 528.072510,335.223114 525.113586,335.639740 
	C519.249756,336.465424 515.241333,339.653015 517.337402,350.840912 
M475.990753,360.931244 
	C475.259613,360.054688 474.613770,359.085724 473.782227,358.317902 
	C470.528717,355.313843 466.599213,355.096497 462.890625,356.772461 
	C460.187836,357.993927 456.826447,359.156067 456.960510,363.372620 
	C457.110077,368.077026 456.363190,372.722717 461.870972,375.579468 
	C466.538483,378.000366 470.512665,377.083801 474.053986,374.279694 
	C478.233002,370.970581 477.619385,366.285431 475.990753,360.931244 
M330.597046,37.000000 
	C328.831940,37.000000 327.066864,37.000000 325.277527,37.000000 
	C325.277527,43.602352 325.277527,49.649788 325.277527,55.719284 
	C331.273621,55.719284 336.988708,55.719284 342.717529,55.719284 
	C342.717529,49.387745 342.717529,43.340137 342.717529,37.000000 
	C338.814026,37.000000 335.189697,37.000000 330.597046,37.000000 
M434.004028,356.224304 
	C436.560303,363.102203 443.429169,365.772705 447.938354,361.553009 
	C450.916931,358.765656 452.121185,355.503204 450.147644,351.484497 
	C448.195618,347.509521 445.242401,346.240204 440.887878,346.900787 
	C435.780548,347.675598 434.347565,350.997498 434.004028,356.224304 
z"/>
<path fill="#1F3A6A" opacity="1.000000" stroke="none" 
	d="
M307.000000,148.000000 
	C306.336121,159.163422 306.422241,169.940582 304.826660,180.462723 
	C302.619934,195.015106 291.685181,202.318542 278.779175,205.746506 
	C264.706268,209.484406 250.332047,207.916473 236.394836,203.698624 
	C229.700012,201.672546 228.925415,200.127060 230.024353,193.355804 
	C230.495056,190.455536 230.954102,187.553375 231.328506,185.213943 
	C237.994156,187.256104 244.916656,189.877991 252.070755,191.437408 
	C260.354706,193.243118 268.849609,193.334793 276.876495,189.929916 
	C283.947845,186.930328 287.320618,180.656784 288.826721,173.691605 
	C290.023071,168.158905 289.889404,162.338608 290.447235,155.387222 
	C281.771332,165.811111 271.382812,169.145676 259.555176,169.002808 
	C243.656570,168.810776 232.574753,159.732300 227.161285,145.910721 
	C221.123886,130.496124 221.033386,114.469109 227.153625,99.090851 
	C236.410156,75.832169 262.463043,67.043358 283.007568,80.081902 
	C285.930664,81.937035 288.212555,84.802544 290.907471,87.308510 
	C290.907471,83.808487 290.907471,80.226959 290.907471,76.324646 
	C296.246552,76.324646 301.315948,76.324646 307.000000,76.324646 
	C307.000000,99.997139 307.000000,123.748573 307.000000,148.000000 
M288.997894,133.212463 
	C291.124268,124.555496 291.164490,115.992661 288.008301,107.525040 
	C283.351135,95.030617 277.082886,90.352501 266.479065,89.231827 
	C256.161682,88.141418 249.224014,94.784576 245.033630,103.486542 
	C238.881821,116.261711 239.723434,129.332733 245.599991,142.080338 
	C248.747284,148.907486 260.796112,156.041809 270.930817,152.650055 
	C280.273743,149.523285 285.234344,142.447968 288.997894,133.212463 
z"/>
<path fill="#004D86" opacity="1.000000" stroke="none" 
	d="
M707.809937,312.684998 
	C698.932007,323.236023 680.096191,323.909271 669.680786,315.198975 
	C663.500793,310.030762 659.956482,297.360718 662.533997,288.944916 
	C662.994446,287.441345 663.486694,285.947540 663.974915,284.415680 
	C655.056946,283.337646 653.001282,285.105499 653.000244,293.632111 
	C652.999146,302.260162 653.000000,310.888214 653.000000,319.755615 
	C648.232117,319.755615 643.834961,319.755615 639.951477,319.755615 
	C639.951477,307.044983 639.281677,294.471069 640.227417,282.019867 
	C640.717529,275.567352 646.716064,272.128937 653.407349,272.014069 
	C657.738770,271.939667 662.082947,271.828003 666.399841,272.089172 
	C668.009338,272.186554 669.557617,273.295868 671.983643,274.293091 
	C686.662109,266.344666 699.403687,269.213531 710.713623,282.310486 
	C710.713623,273.121948 710.713623,264.417542 710.713623,255.358002 
	C715.535156,255.358002 719.934753,255.358002 724.922729,255.358002 
	C724.922729,265.363464 724.922729,275.553619 724.922729,285.743805 
	C725.315674,285.905426 725.708557,286.067047 726.101501,286.228668 
	C728.723328,282.897247 731.772156,279.808105 733.840454,276.162628 
	C735.708496,272.870209 737.786316,271.563293 741.519714,271.924469 
	C745.126282,272.273346 748.793091,272.000000 752.885071,272.000000 
	C752.885071,266.325745 752.885071,260.915070 752.885071,255.259354 
	C757.735962,255.259354 762.133606,255.259354 766.816772,255.259354 
	C766.816772,260.667114 766.816772,265.949341 766.816772,271.687683 
	C770.815369,271.687683 774.552124,271.687683 778.644409,271.687683 
	C778.644409,275.865967 778.644409,279.600098 778.644409,283.793396 
	C775.085449,283.793396 771.343750,283.793396 767.004517,283.793396 
	C767.004517,291.163361 766.877380,298.102539 767.143127,305.026611 
	C767.182495,306.052887 768.972717,307.682037 770.133545,307.860992 
	C772.866455,308.282318 775.708435,307.996002 778.750732,307.996002 
	C778.750732,312.079315 778.750732,315.812531 778.750732,319.990356 
	C772.651489,319.990356 766.682251,320.259583 760.749207,319.910950 
	C755.338989,319.593048 753.023804,316.703278 753.009888,311.190186 
	C752.978333,298.694946 753.000000,286.199554 753.000000,272.895721 
	C747.699341,280.166168 742.740417,286.825714 738.023621,293.652496 
	C737.539246,294.353638 738.200806,296.245392 738.842285,297.261688 
	C743.486572,304.619415 748.262573,311.894104 753.512390,319.990143 
	C748.109558,319.990143 743.370544,320.192108 738.669800,319.857117 
	C737.393799,319.766205 735.934326,318.265686 735.073242,317.048431 
	C731.904663,312.568909 728.951843,307.936707 725.255127,302.362549 
	C725.255127,308.754578 725.255127,314.074646 725.255127,319.692139 
	C720.363831,319.692139 715.965637,319.692139 711.102844,319.692139 
	C711.102844,316.033081 711.102844,312.327576 711.102844,307.452820 
	C709.651489,309.817230 708.854797,311.115051 707.809937,312.684998 
M705.041565,304.545898 
	C706.899719,304.990326 708.757935,305.434723 710.818848,305.927643 
	C710.818848,303.636902 710.818848,301.537994 710.818848,299.352936 
	C699.474915,299.352936 688.315491,299.352936 677.147949,299.352936 
	C677.460938,307.423798 688.522644,312.515625 694.907776,306.360077 
	C697.986694,303.391815 700.615906,302.405029 705.041565,304.545898 
M696.598755,287.060638 
	C693.641724,283.230164 689.961670,281.038696 685.008911,282.513702 
	C680.932129,283.727844 677.624390,285.873016 676.973633,290.864563 
	C684.096130,290.864563 690.851807,290.864563 698.168030,290.864563 
	C697.764465,289.623901 697.448914,288.653900 696.598755,287.060638 
z"/>
<path fill="#0D933A" opacity="1.000000" stroke="none" 
	d="
M515.055115,283.043793 
	C515.008667,295.423828 515.008667,307.395752 515.008667,319.683167 
	C510.367065,319.683167 505.957886,319.683167 501.235016,319.683167 
	C501.114288,318.390472 500.982117,316.975159 500.885681,315.942413 
	C486.663422,324.489410 474.162598,323.887054 463.850586,308.762085 
	C460.220032,315.305206 455.184784,320.393372 447.507111,320.868652 
	C440.605194,321.295959 433.231964,322.422943 427.086639,315.619415 
	C427.086639,323.859589 427.086639,331.200623 427.086639,338.763489 
	C422.214752,338.763489 417.819794,338.763489 413.211945,338.763489 
	C413.211945,316.626740 413.211945,294.691528 413.211945,272.377869 
	C417.496674,272.377869 421.895905,272.377869 426.725159,272.377869 
	C426.858124,273.250458 427.035095,274.411774 427.226776,275.669495 
	C438.093323,266.936462 452.822235,267.436249 464.559265,283.798584 
	C469.664185,272.622131 483.165283,267.110748 495.526276,272.017975 
	C497.381195,272.754364 499.810272,272.013214 501.973846,272.009094 
	C509.801422,271.994232 517.635620,271.843384 525.449890,272.165344 
	C526.683411,272.216156 528.375732,274.238373 528.919617,275.697968 
	C531.549744,282.756653 533.859985,289.934570 536.751587,298.447723 
	C540.561829,288.812103 543.840088,280.521759 547.150757,272.149567 
	C552.088867,272.149567 556.888184,272.149567 562.187744,272.149567 
	C554.178772,293.502350 546.273682,314.578278 538.586182,335.074036 
	C533.978027,333.611877 529.839539,332.298706 525.040344,330.775940 
	C525.774597,328.560486 527.035767,325.656952 527.650452,322.622467 
	C528.164734,320.083405 528.636841,317.166107 527.892151,314.806122 
	C524.787109,304.965210 521.265320,295.253448 517.748108,285.548004 
	C517.334778,284.407349 516.005981,283.598419 515.055115,283.043793 
M427.002594,299.038879 
	C427.717468,300.833405 428.189972,302.777374 429.188751,304.396820 
	C433.781219,311.843048 442.765594,311.315491 447.263367,306.511841 
	C451.506439,301.980225 451.638184,296.882141 450.742889,291.817719 
	C449.410217,284.279388 441.573212,280.231842 434.699890,283.196991 
	C428.245544,285.981323 426.720703,291.720917 427.002594,299.038879 
M491.011719,309.967133 
	C498.685242,307.134949 501.527771,301.368774 501.000854,293.544373 
	C500.575470,287.227081 493.101990,280.742157 487.625000,282.171509 
	C478.872162,284.455841 476.508484,290.105347 477.045563,298.863251 
	C477.429077,305.117340 483.127380,309.763367 491.011719,309.967133 
z"/>
<path fill="#1F3A6A" opacity="1.000000" stroke="none" 
	d="
M538.418457,80.217140 
	C560.921753,66.229393 592.144287,75.598961 598.107971,106.124031 
	C600.918518,120.509933 600.535095,134.420792 593.737610,147.449905 
	C583.702881,166.683914 560.408630,174.857178 541.153564,164.536987 
	C537.960632,162.825668 535.231140,160.249786 532.161743,157.980499 
	C532.161743,174.534164 532.161743,191.509323 532.161743,208.739716 
	C525.927856,208.739716 520.194641,208.739716 514.500000,208.739716 
	C514.500000,164.550522 514.500000,120.488663 514.500000,76.213348 
	C519.372864,76.213348 524.318665,76.213348 529.696167,76.213348 
	C529.696167,79.851433 529.696167,83.585091 529.696167,87.318756 
	C530.102844,87.602043 530.509521,87.885330 530.916138,88.168617 
	C533.309448,85.578598 535.702698,82.988586 538.418457,80.217140 
M570.590332,148.059402 
	C571.516174,147.414581 572.692810,146.955688 573.329834,146.096680 
	C581.241089,135.429092 583.756104,123.538231 580.795166,110.618362 
	C578.889771,102.304588 574.473572,95.204254 566.794128,91.491592 
	C551.922302,84.301796 538.838318,93.791359 534.010742,106.384476 
	C530.126526,116.516808 530.302185,126.641846 534.010620,136.790161 
	C539.225281,151.060364 555.774048,159.628250 570.590332,148.059402 
z"/>
<path fill="#1F3A6A" opacity="1.000000" stroke="none" 
	d="
M496.767395,98.404984 
	C503.804779,117.569168 503.504303,135.871902 491.925629,152.830093 
	C485.886200,161.675461 476.931305,166.252136 466.287903,168.108047 
	C456.166382,169.872940 446.383026,169.234848 436.989105,165.409424 
	C423.120483,159.761826 416.100494,148.418640 413.066925,134.365829 
	C410.778534,123.764931 411.665100,113.097275 415.149292,102.948357 
	C420.054718,88.659668 430.503326,79.550545 445.031403,76.151207 
	C459.667175,72.726669 474.205231,73.452126 486.101105,84.171440 
	C490.330688,87.982689 493.123871,93.387978 496.767395,98.404984 
M440.009796,147.513474 
	C450.009277,158.377670 469.891449,155.196014 477.068146,143.527512 
	C484.369019,131.657043 485.420624,119.479530 481.132935,106.354370 
	C475.414276,88.848862 456.810333,84.009529 443.469513,93.315002 
	C435.850800,98.629166 432.118408,106.308441 430.766205,115.777679 
	C429.055176,127.759796 431.790894,137.926208 440.009796,147.513474 
z"/>
<path fill="#1F3A6A" opacity="1.000000" stroke="none" 
	d="
M620.000000,92.681145 
	C620.000000,88.732361 620.000000,85.237183 620.000000,81.493423 
	C635.766785,72.734581 652.103149,71.581055 668.656738,78.407585 
	C678.399353,82.425369 683.614014,90.783600 683.846680,101.074913 
	C684.339233,122.863121 683.996765,144.670212 683.996765,166.733948 
	C678.941711,166.733948 674.209412,166.733948 669.007935,166.733948 
	C669.007935,162.933701 669.007935,159.219803 669.007935,154.124756 
	C662.970337,161.736359 656.377136,166.476974 647.966675,167.449936 
	C638.039551,168.598343 627.639465,169.802200 619.267029,162.840546 
	C615.361389,159.593033 611.530884,154.840729 610.266418,150.079880 
	C605.228882,131.113571 612.960266,118.530197 632.140564,113.470932 
	C643.695435,110.423065 655.557739,110.631386 667.490295,111.256317 
	C670.254761,99.197021 660.493835,89.984604 648.755310,89.104042 
	C637.749512,88.278427 633.191467,89.916336 620.000000,97.160950 
	C620.000000,95.598953 620.000000,94.366852 620.000000,92.681145 
M645.199646,124.305634 
	C642.237061,125.522034 639.237061,126.655472 636.318726,127.970169 
	C627.053101,132.144379 626.195129,138.960251 627.143494,145.040482 
	C627.902161,149.904373 636.120789,155.037552 642.660828,154.971573 
	C659.757080,154.799179 670.049683,141.555435 668.448364,124.031967 
	C661.002686,124.031967 653.528198,124.031967 645.199646,124.305634 
z"/>
<path fill="#1F3A6A" opacity="1.000000" stroke="none" 
	d="
M775.746826,93.621216 
	C768.020203,111.636177 760.523987,129.326111 752.957458,146.985855 
	C746.532166,161.982162 740.026978,176.944244 733.554199,191.920197 
	C731.503967,196.663895 729.638916,201.504272 727.268738,206.082779 
	C726.567505,207.437302 724.487366,208.739960 722.939514,208.868774 
	C718.479797,209.239914 713.969299,208.999802 708.723389,208.999802 
	C711.902954,201.528839 714.888550,194.494339 717.890381,187.466812 
	C720.111084,182.268051 721.989441,176.881027 724.675171,171.933334 
	C728.245667,165.355728 724.022400,160.309433 721.916565,154.977997 
	C711.838867,129.464355 701.500977,104.053490 691.278687,78.596832 
	C691.045227,78.015411 691.083984,77.324684 690.947144,76.331581 
	C696.869934,76.331581 702.594238,76.331581 708.984863,76.331581 
	C717.642822,99.838509 726.436340,123.713417 735.330688,147.862152 
	C745.104919,123.781624 754.762451,99.988708 764.451660,76.117615 
	C770.499512,76.117615 776.482727,76.117615 782.790344,76.117615 
	C780.477905,81.917747 778.212341,87.600410 775.746826,93.621216 
z"/>
<path fill="#1F3A6A" opacity="1.000000" stroke="none" 
	d="
M361.005432,78.221039 
	C361.950958,77.160667 362.871521,76.123466 363.836639,76.080215 
	C367.981720,75.894447 372.139893,76.000931 376.704407,76.000931 
	C376.704407,80.214363 376.704407,84.287453 376.704407,88.360535 
	C385.880951,75.518562 398.198822,72.956512 412.749847,76.077538 
	C412.749847,81.574966 412.749847,87.026260 412.749847,92.543472 
	C406.578156,91.328209 400.451263,88.994690 394.035797,91.950035 
	C383.148132,96.965569 379.432434,106.364021 379.109222,117.271851 
	C378.670471,132.080002 379.000000,146.910904 379.000000,161.732056 
	C379.000000,163.350906 379.000000,164.969742 379.000000,166.790512 
	C372.951965,166.790512 367.340424,166.790512 361.001007,166.790512 
	C361.001007,137.480927 361.001007,108.091240 361.005432,78.221039 
z"/>
<path fill="#004D86" opacity="1.000000" stroke="none" 
	d="
M574.753601,317.317871 
	C568.645691,314.112183 566.519409,308.554749 565.440308,302.829407 
	C561.978210,284.460510 572.250793,270.122528 589.924133,270.204895 
	C594.468262,270.226044 599.000671,272.767456 603.771362,274.222076 
	C603.771362,267.763306 603.771362,260.721130 603.771362,253.342087 
	C608.562439,253.342087 612.955750,253.342087 617.677307,253.342087 
	C617.677307,275.243896 617.677307,297.280060 617.677307,319.658752 
	C613.426697,319.658752 609.024292,319.658752 604.229614,319.658752 
	C604.127686,318.780762 604.001770,317.696655 603.838074,316.286957 
	C594.439026,322.187622 584.859253,323.494141 574.753601,317.317871 
M592.345947,282.005188 
	C580.385193,283.191742 577.675720,294.411957 581.099854,302.675690 
	C582.887939,306.990906 586.571533,310.553772 592.223877,309.991577 
	C597.180481,309.498627 600.428528,306.974609 602.369019,302.242493 
	C606.062744,293.235046 602.899597,286.007141 592.345947,282.005188 
z"/>
<path fill="#5DC4E9" opacity="1.000000" stroke="none" 
	d="
M69.908852,76.005508 
	C69.939316,65.693161 70.119423,55.377991 69.924423,45.069912 
	C69.849518,41.110046 71.205200,39.867241 75.110771,39.928104 
	C87.583450,40.122478 100.061073,39.997116 112.536781,40.001244 
	C118.856499,40.003334 119.907066,40.963600 119.975609,47.483177 
	C120.071800,56.631039 120.005119,65.780617 119.708008,75.580948 
	C119.618462,77.538689 119.829033,78.844933 120.024773,80.562317 
	C120.263664,84.967468 117.780792,84.056870 115.223801,83.602364 
	C115.067848,80.198090 114.915741,76.877708 114.731277,72.851067 
	C108.335709,78.713188 104.267311,85.963333 94.082291,84.291779 
	C85.458557,82.876457 77.849922,79.327591 75.507736,72.249336 
	C77.591805,72.040161 79.665428,71.832031 81.715500,71.626266 
	C81.715500,62.294632 81.715500,53.378632 81.715500,44.509262 
	C74.313683,43.433197 74.003761,43.685490 74.001114,50.613655 
	C73.996918,61.567356 74.000000,72.521057 74.000000,83.355453 
	C69.713356,85.064438 70.033852,82.295708 69.944031,79.596634 
	C69.955887,78.134377 69.932373,77.069946 69.908852,76.005508 
M107.000595,47.743877 
	C107.000595,55.649334 107.000595,63.554794 107.000595,71.657547 
	C109.886436,71.657547 112.245560,71.657547 114.983780,71.657547 
	C114.983780,63.236477 115.114540,55.146336 114.825493,47.071220 
	C114.787506,46.010159 112.728516,44.443680 111.378784,44.148586 
	C109.551598,43.749115 106.731682,43.136112 107.000595,47.743877 
z"/>
<path fill="#1F3A6A" opacity="1.000000" stroke="none" 
	d="
M330.141907,166.999969 
	C327.015808,167.391571 325.919556,166.600311 325.931519,163.589981 
	C326.046478,134.635162 326.000366,105.679703 326.000366,76.362305 
	C331.514252,76.362305 336.912567,76.362305 342.658112,76.362305 
	C342.658112,106.211723 342.658112,136.249222 342.658112,167.000000 
	C338.785034,167.000000 334.704651,167.000000 330.141907,166.999969 
z"/>
<path fill="#1F3A6A" opacity="1.000000" stroke="none" 
	d="
M69.463791,76.003098 
	C69.932373,77.069946 69.955887,78.134377 69.515129,79.599060 
	C64.655754,79.303284 62.483471,80.518639 61.562279,85.558174 
	C59.736343,95.547218 56.806095,105.332695 54.382061,115.214523 
	C50.587437,130.683685 46.834122,146.162979 43.066746,161.623871 
	C77.560295,161.623871 111.719200,161.623871 146.232483,161.623871 
	C145.737366,159.953949 145.315720,158.742996 145.019684,157.502106 
	C139.320709,133.612259 133.591751,109.729385 127.989296,85.816879 
	C126.948685,81.375290 125.112305,78.647499 120.039597,80.151184 
	C119.829033,78.844933 119.618462,77.538689 119.721405,76.039856 
	C123.178963,75.847267 126.323013,75.847267 129.390427,75.847267 
	C137.117447,106.300293 144.738770,136.336853 152.455368,166.748810 
	C113.627060,166.748810 75.398827,166.748810 36.715275,166.748810 
	C41.479805,148.100082 46.167072,129.796982 50.829544,111.487549 
	C53.422474,101.305153 56.304539,91.179161 58.388184,80.892418 
	C59.271282,76.532623 61.146996,75.446198 65.023666,75.971939 
	C66.332573,76.149452 67.685776,76.000450 69.463791,76.003098 
z"/>
<path fill="#0D933A" opacity="1.000000" stroke="none" 
	d="
M514.000000,363.184723 
	C514.886719,373.444763 509.069061,377.245239 501.793488,378.853760 
	C497.053497,379.901733 489.393707,377.231018 486.670380,369.096619 
	C484.823242,363.579254 485.893036,358.482117 490.202240,354.310760 
	C494.579865,350.073151 499.639069,348.840485 505.351074,351.157043 
	C510.530609,353.257629 513.931396,356.782745 514.000000,363.184723 
z"/>
<path fill="#004D86" opacity="1.000000" stroke="none" 
	d="
M635.833374,316.000519 
	C635.833374,317.156708 635.833374,318.312897 635.833374,319.734558 
	C631.444397,319.734558 627.032715,319.734558 622.358521,319.734558 
	C622.358521,300.049225 622.358521,280.336304 622.358521,260.311035 
	C626.601196,260.311035 630.996887,260.311035 635.980530,260.311035 
	C635.980530,265.242584 635.980530,270.229675 635.459778,275.608398 
	C633.941589,276.000000 632.922607,276.133698 631.950317,275.977417 
	C627.122253,275.201477 625.658020,277.187714 625.893738,281.989197 
	C626.284485,289.949677 626.000000,297.943329 626.000000,305.923004 
	C626.000000,315.998932 626.000000,315.998932 635.833374,316.000519 
z"/>
<path fill="#004D86" opacity="1.000000" stroke="none" 
	d="
M635.907349,315.536987 
	C626.000000,315.998932 626.000000,315.998932 626.000000,305.923004 
	C626.000000,297.943329 626.284485,289.949677 625.893738,281.989197 
	C625.658020,277.187714 627.122253,275.201477 631.950317,275.977417 
	C632.922607,276.133698 633.941589,276.000000 635.386169,275.999756 
	C635.882690,289.024139 635.932007,302.048767 635.907349,315.536987 
z"/>
<path fill="#0D933A" opacity="1.000000" stroke="none" 
	d="
M517.187988,350.465912 
	C515.241333,339.653015 519.249756,336.465424 525.113586,335.639740 
	C528.072510,335.223114 532.039917,336.327148 534.343811,338.216248 
	C537.837402,341.080933 538.294556,346.020477 536.303589,349.841370 
	C534.933716,352.470276 531.708740,354.867340 528.809021,355.797516 
	C524.088196,357.311951 520.003967,355.196716 517.187988,350.465912 
z"/>
<path fill="#0D933A" opacity="1.000000" stroke="none" 
	d="
M476.102783,361.326965 
	C477.619385,366.285431 478.233002,370.970581 474.053986,374.279694 
	C470.512665,377.083801 466.538483,378.000366 461.870972,375.579468 
	C456.363190,372.722717 457.110077,368.077026 456.960510,363.372620 
	C456.826447,359.156067 460.187836,357.993927 462.890625,356.772461 
	C466.599213,355.096497 470.528717,355.313843 473.782227,358.317902 
	C474.613770,359.085724 475.259613,360.054688 476.102783,361.326965 
z"/>
<path fill="#1F3A6A" opacity="1.000000" stroke="none" 
	d="
M331.081177,37.000000 
	C335.189697,37.000000 338.814026,37.000000 342.717529,37.000000 
	C342.717529,43.340137 342.717529,49.387745 342.717529,55.719284 
	C336.988708,55.719284 331.273621,55.719284 325.277527,55.719284 
	C325.277527,49.649788 325.277527,43.602352 325.277527,37.000000 
	C327.066864,37.000000 328.831940,37.000000 331.081177,37.000000 
z"/>
<path fill="#0D933A" opacity="1.000000" stroke="none" 
	d="
M434.002258,355.815033 
	C434.347565,350.997498 435.780548,347.675598 440.887878,346.900787 
	C445.242401,346.240204 448.195618,347.509521 450.147644,351.484497 
	C452.121185,355.503204 450.916931,358.765656 447.938354,361.553009 
	C443.429169,365.772705 436.560303,363.102203 434.002258,355.815033 
z"/>
<path fill="#FFFFFF" opacity="1.000000" stroke="none" 
	d="
M288.982635,133.625793 
	C285.234344,142.447968 280.273743,149.523285 270.930817,152.650055 
	C260.796112,156.041809 248.747284,148.907486 245.599991,142.080338 
	C239.723434,129.332733 238.881821,116.261711 245.033630,103.486542 
	C249.224014,94.784576 256.161682,88.141418 266.479065,89.231827 
	C277.082886,90.352501 283.351135,95.030617 288.008301,107.525040 
	C291.164490,115.992661 291.124268,124.555496 288.982635,133.625793 
z"/>
<path fill="#FFFFFF" opacity="1.000000" stroke="none" 
	d="
M704.705078,304.307068 
	C700.615906,302.405029 697.986694,303.391815 694.907776,306.360077 
	C688.522644,312.515625 677.460938,307.423798 677.147949,299.352936 
	C688.315491,299.352936 699.474915,299.352936 710.818848,299.352936 
	C710.818848,301.537994 710.818848,303.636902 710.818848,305.927643 
	C708.757935,305.434723 706.899719,304.990326 704.705078,304.307068 
z"/>
<path fill="#FFFFFF" opacity="1.000000" stroke="none" 
	d="
M696.866089,287.372253 
	C697.448914,288.653900 697.764465,289.623901 698.168030,290.864563 
	C690.851807,290.864563 684.096130,290.864563 676.973633,290.864563 
	C677.624390,285.873016 680.932129,283.727844 685.008911,282.513702 
	C689.961670,281.038696 693.641724,283.230164 696.866089,287.372253 
z"/>
<path fill="#FFFFFF" opacity="1.000000" stroke="none" 
	d="
M427.001404,298.611664 
	C426.720703,291.720917 428.245544,285.981323 434.699890,283.196991 
	C441.573212,280.231842 449.410217,284.279388 450.742889,291.817719 
	C451.638184,296.882141 451.506439,301.980225 447.263367,306.511841 
	C442.765594,311.315491 433.781219,311.843048 429.188751,304.396820 
	C428.189972,302.777374 427.717468,300.833405 427.001404,298.611664 
z"/>
<path fill="#FFFFFF" opacity="1.000000" stroke="none" 
	d="
M490.600952,309.981750 
	C483.127380,309.763367 477.429077,305.117340 477.045563,298.863251 
	C476.508484,290.105347 478.872162,284.455841 487.625000,282.171509 
	C493.101990,280.742157 500.575470,287.227081 501.000854,293.544373 
	C501.527771,301.368774 498.685242,307.134949 490.600952,309.981750 
z"/>
<path fill="#FFFFFF" opacity="1.000000" stroke="none" 
	d="
M570.295044,148.288208 
	C555.774048,159.628250 539.225281,151.060364 534.010620,136.790161 
	C530.302185,126.641846 530.126526,116.516808 534.010742,106.384476 
	C538.838318,93.791359 551.922302,84.301796 566.794128,91.491592 
	C574.473572,95.204254 578.889771,102.304588 580.795166,110.618362 
	C583.756104,123.538231 581.241089,135.429092 573.329834,146.096680 
	C572.692810,146.955688 571.516174,147.414581 570.295044,148.288208 
z"/>
<path fill="#FFFFFF" opacity="1.000000" stroke="none" 
	d="
M439.750488,147.253754 
	C431.790894,137.926208 429.055176,127.759796 430.766205,115.777679 
	C432.118408,106.308441 435.850800,98.629166 443.469513,93.315002 
	C456.810333,84.009529 475.414276,88.848862 481.132935,106.354370 
	C485.420624,119.479530 484.369019,131.657043 477.068146,143.527512 
	C469.891449,155.196014 450.009277,158.377670 439.750488,147.253754 
z"/>
<path fill="#FFFFFF" opacity="1.000000" stroke="none" 
	d="
M645.626648,124.168800 
	C653.528198,124.031967 661.002686,124.031967 668.448364,124.031967 
	C670.049683,141.555435 659.757080,154.799179 642.660828,154.971573 
	C636.120789,155.037552 627.902161,149.904373 627.143494,145.040482 
	C626.195129,138.960251 627.053101,132.144379 636.318726,127.970169 
	C639.237061,126.655472 642.237061,125.522034 645.626648,124.168800 
z"/>
<path fill="#FFFFFF" opacity="1.000000" stroke="none" 
	d="
M592.749268,282.024658 
	C602.899597,286.007141 606.062744,293.235046 602.369019,302.242493 
	C600.428528,306.974609 597.180481,309.498627 592.223877,309.991577 
	C586.571533,310.553772 582.887939,306.990906 581.099854,302.675690 
	C577.675720,294.411957 580.385193,283.191742 592.749268,282.024658 
z"/>
<path fill="#FFFFFF" opacity="1.000000" stroke="none" 
	d="
M120.024773,80.562317 
	C125.112305,78.647499 126.948685,81.375290 127.989296,85.816879 
	C133.591751,109.729385 139.320709,133.612259 145.019684,157.502106 
	C145.315720,158.742996 145.737366,159.953949 146.232483,161.623871 
	C111.719200,161.623871 77.560295,161.623871 43.066746,161.623871 
	C46.834122,146.162979 50.587437,130.683685 54.382061,115.214523 
	C56.806095,105.332695 59.736343,95.547218 61.562279,85.558174 
	C62.483471,80.518639 64.655754,79.303284 69.479759,79.996887 
	C70.033852,82.295708 69.713356,85.064438 74.000000,83.355453 
	C74.000000,72.521057 73.996918,61.567356 74.001114,50.613655 
	C74.003761,43.685490 74.313683,43.433197 81.715500,44.509262 
	C81.715500,53.378632 81.715500,62.294632 81.715500,71.626266 
	C79.665428,71.832031 77.591805,72.040161 75.507736,72.249336 
	C77.849922,79.327591 85.458557,82.876457 94.082291,84.291779 
	C104.267311,85.963333 108.335709,78.713188 114.731277,72.851067 
	C114.915741,76.877708 115.067848,80.198090 115.223801,83.602364 
	C117.780792,84.056870 120.263664,84.967468 120.024773,80.562317 
M55.004978,140.752731 
	C54.336884,144.914963 53.388123,149.063156 53.178452,153.248352 
	C53.118614,154.442825 55.132660,156.742722 56.316807,156.826599 
	C61.779427,157.213608 67.293518,157.165970 72.768959,156.883087 
	C74.208237,156.808746 76.648674,155.493637 76.797325,154.479721 
	C77.621727,148.857086 77.880836,143.151550 78.371162,137.002121 
	C71.459106,137.002121 65.336838,136.822922 59.239574,137.133972 
	C57.798702,137.207474 56.441921,138.929382 55.004978,140.752731 
M133.033722,138.251053 
	C125.752586,137.667160 118.471458,137.083282 110.607582,136.452667 
	C111.147766,142.950607 111.330574,148.199921 112.178925,153.339386 
	C112.408325,154.729172 114.585396,156.729965 115.984596,156.830246 
	C121.593002,157.232162 127.255348,157.176834 132.880417,156.916397 
	C135.394119,156.800003 137.356308,155.869537 136.227890,152.253876 
	C134.890762,147.969467 134.374786,143.428787 133.033722,138.251053 
M94.498055,137.000000 
	C92.175728,137.000046 89.838615,137.166290 87.534531,136.961319 
	C84.055626,136.651825 82.764259,138.016006 82.935486,141.516800 
	C83.103897,144.960098 83.201958,148.526825 82.492058,151.860779 
	C81.716263,155.504181 83.210983,156.759811 86.286682,156.957016 
	C89.260353,157.147690 92.266991,157.162476 95.238693,156.957672 
	C98.750381,156.715652 103.149231,157.254486 105.434532,155.364365 
	C107.085091,153.999237 106.068550,149.217072 105.970619,145.967026 
	C105.700386,136.998306 105.644150,137.000000 96.467194,137.000000 
	C96.135429,137.000000 95.803673,137.000000 94.498055,137.000000 
M64.642700,133.000000 
	C68.302788,132.999268 71.975830,133.171051 75.615417,132.897537 
	C76.776260,132.810287 78.673492,131.678680 78.821640,130.789642 
	C79.560432,126.356201 79.828934,121.844391 80.297607,117.001740 
	C73.802879,117.001740 68.164879,116.850113 62.547619,117.123955 
	C61.360535,117.181831 59.684574,118.575699 59.227436,119.743073 
	C58.417023,121.812576 58.335579,124.175484 58.006535,126.424026 
	C57.045792,132.989349 57.056904,132.990982 64.642700,133.000000 
M110.781227,117.008263 
	C110.452934,117.041817 109.836304,117.085922 109.837090,117.107445 
	C110.017624,122.043877 110.177887,126.983849 110.575356,131.904617 
	C110.610001,132.333420 112.208397,132.931732 113.089638,132.947861 
	C118.410583,133.045197 123.738197,133.101456 129.053375,132.901016 
	C130.043701,132.863678 131.897705,131.444336 131.809647,130.924133 
	C131.084564,126.641457 130.119095,122.383820 128.888412,118.218468 
	C128.692825,117.556442 126.815529,117.084702 125.701210,117.054131 
	C121.047318,116.926460 116.387894,117.000664 110.781227,117.008263 
M84.423668,131.904602 
	C89.618187,132.269730 94.825722,132.508331 100.003044,133.040695 
	C104.019775,133.453720 105.538200,131.857452 105.026901,127.940216 
	C104.856422,126.634087 105.000191,125.286957 104.999969,123.958572 
	C104.998848,117.000961 104.998802,117.000961 97.924377,117.000000 
	C83.832581,116.998085 83.832581,116.998085 84.423668,131.904602 
M81.946106,102.815804 
	C79.340599,99.930779 66.961304,98.680183 63.988190,101.017036 
	C63.633457,101.295853 63.156609,101.646446 63.088337,102.026917 
	C62.501316,105.298416 61.995266,108.584435 61.465050,111.866119 
	C63.991909,112.244080 66.514938,112.651283 69.047829,112.983170 
	C69.866623,113.090462 70.713005,113.034370 71.543877,112.993736 
	C74.342789,112.856850 77.611870,113.501854 79.766724,112.245346 
	C81.121284,111.455505 80.776482,107.792938 81.255577,105.431633 
	C81.379616,104.820251 81.735069,104.255821 81.946106,102.815804 
M114.629753,100.000000 
	C108.000999,100.012787 108.000916,100.012787 108.000076,106.412758 
	C107.999947,107.409554 107.627289,108.646667 108.080948,109.351974 
	C108.963982,110.724846 110.223511,112.713394 111.480690,112.833031 
	C115.925987,113.256088 120.449554,113.183685 124.912041,112.862587 
	C125.989433,112.785065 127.847168,111.001915 127.817284,110.051163 
	C127.553429,101.654633 125.654144,100.000015 117.066681,100.000000 
	C116.568283,100.000000 116.069885,100.000000 114.629753,100.000000 
M103.999664,104.864883 
	C103.999092,104.699181 104.070267,104.465416 103.987267,104.377914 
	C102.593353,102.908630 101.093613,100.149513 99.786774,100.236015 
	C94.937729,100.556976 89.196190,97.561218 85.454231,102.452888 
	C84.227676,104.056305 84.720619,107.329102 85.155861,109.705009 
	C85.384186,110.951385 87.130066,112.769318 88.291489,112.848419 
	C93.365303,113.194000 98.476067,112.997078 103.999985,112.997078 
	C103.999985,110.321800 103.999985,108.049568 103.999664,104.864883 
M81.845200,87.360855 
	C77.386192,87.241219 72.921463,86.923523 68.469612,87.051895 
	C62.862350,87.213593 66.371292,92.756630 64.087303,94.953232 
	C65.546898,95.635445 66.976913,96.817467 68.471642,96.905899 
	C72.907127,97.168297 77.368095,96.999870 82.473579,96.999870 
	C82.473579,93.713348 82.473579,90.861443 81.845200,87.360855 
M106.008797,89.592133 
	C106.462303,91.946175 106.915810,94.300217 107.435913,96.999947 
	C111.699951,96.999947 115.997124,97.156898 120.272156,96.917877 
	C121.844292,96.829979 124.747971,95.545280 124.692307,95.250320 
	C124.172722,92.496918 123.264130,87.588768 122.237297,87.532692 
	C116.885857,87.240456 111.466621,88.189560 106.008797,89.592133 
M86.001396,94.437576 
	C86.662941,95.289459 87.293625,96.849144 87.990990,96.879547 
	C92.902710,97.093712 97.828140,96.993225 102.695450,96.993225 
	C103.468842,87.000000 103.468842,87.000000 94.510468,87.000000 
	C93.846794,87.000000 93.183113,86.999741 92.519440,87.000038 
	C86.015549,87.002945 86.015549,87.002968 86.001396,94.437576 
z"/>
<path fill="#FFFFFF" opacity="1.000000" stroke="none" 
	d="
M107.002609,47.275948 
	C106.731682,43.136112 109.551598,43.749115 111.378784,44.148586 
	C112.728516,44.443680 114.787506,46.010159 114.825493,47.071220 
	C115.114540,55.146336 114.983780,63.236477 114.983780,71.657547 
	C112.245560,71.657547 109.886436,71.657547 107.000595,71.657547 
	C107.000595,63.554794 107.000595,55.649334 107.002609,47.275948 
z"/>
<path fill="#1F3A6A" opacity="1.000000" stroke="none" 
	d="
M55.025719,140.322876 
	C56.441921,138.929382 57.798702,137.207474 59.239574,137.133972 
	C65.336838,136.822922 71.459106,137.002121 78.371162,137.002121 
	C77.880836,143.151550 77.621727,148.857086 76.797325,154.479721 
	C76.648674,155.493637 74.208237,156.808746 72.768959,156.883087 
	C67.293518,157.165970 61.779427,157.213608 56.316807,156.826599 
	C55.132660,156.742722 53.118614,154.442825 53.178452,153.248352 
	C53.388123,149.063156 54.336884,144.914963 55.025719,140.322876 
z"/>
<path fill="#1F3A6A" opacity="1.000000" stroke="none" 
	d="
M133.268311,138.625122 
	C134.374786,143.428787 134.890762,147.969467 136.227890,152.253876 
	C137.356308,155.869537 135.394119,156.800003 132.880417,156.916397 
	C127.255348,157.176834 121.593002,157.232162 115.984596,156.830246 
	C114.585396,156.729965 112.408325,154.729172 112.178925,153.339386 
	C111.330574,148.199921 111.147766,142.950607 110.607582,136.452667 
	C118.471458,137.083282 125.752586,137.667160 133.268311,138.625122 
z"/>
<path fill="#1F3A6A" opacity="1.000000" stroke="none" 
	d="
M94.984985,137.000000 
	C95.803673,137.000000 96.135429,137.000000 96.467194,137.000000 
	C105.644150,137.000000 105.700386,136.998306 105.970619,145.967026 
	C106.068550,149.217072 107.085091,153.999237 105.434532,155.364365 
	C103.149231,157.254486 98.750381,156.715652 95.238693,156.957672 
	C92.266991,157.162476 89.260353,157.147690 86.286682,156.957016 
	C83.210983,156.759811 81.716263,155.504181 82.492058,151.860779 
	C83.201958,148.526825 83.103897,144.960098 82.935486,141.516800 
	C82.764259,138.016006 84.055626,136.651825 87.534531,136.961319 
	C89.838615,137.166290 92.175728,137.000046 94.984985,137.000000 
z"/>
<path fill="#1F3A6A" opacity="1.000000" stroke="none" 
	d="
M64.169884,133.000000 
	C57.056904,132.990982 57.045792,132.989349 58.006535,126.424026 
	C58.335579,124.175484 58.417023,121.812576 59.227436,119.743073 
	C59.684574,118.575699 61.360535,117.181831 62.547619,117.123955 
	C68.164879,116.850113 73.802879,117.001740 80.297607,117.001740 
	C79.828934,121.844391 79.560432,126.356201 78.821640,130.789642 
	C78.673492,131.678680 76.776260,132.810287 75.615417,132.897537 
	C71.975830,133.171051 68.302788,132.999268 64.169884,133.000000 
z"/>
<path fill="#1F3A6A" opacity="1.000000" stroke="none" 
	d="
M111.255859,117.004562 
	C116.387894,117.000664 121.047318,116.926460 125.701210,117.054131 
	C126.815529,117.084702 128.692825,117.556442 128.888412,118.218468 
	C130.119095,122.383820 131.084564,126.641457 131.809647,130.924133 
	C131.897705,131.444336 130.043701,132.863678 129.053375,132.901016 
	C123.738197,133.101456 118.410583,133.045197 113.089638,132.947861 
	C112.208397,132.931732 110.610001,132.333420 110.575356,131.904617 
	C110.177887,126.983849 110.017624,122.043877 109.837090,117.107445 
	C109.836304,117.085922 110.452934,117.041817 111.255859,117.004562 
z"/>
<path fill="#1F3A6A" opacity="1.000000" stroke="none" 
	d="
M84.236176,131.480652 
	C83.832581,116.998085 83.832581,116.998085 97.924377,117.000000 
	C104.998802,117.000961 104.998848,117.000961 104.999969,123.958572 
	C105.000191,125.286957 104.856422,126.634087 105.026901,127.940216 
	C105.538200,131.857452 104.019775,133.453720 100.003044,133.040695 
	C94.825722,132.508331 89.618187,132.269730 84.236176,131.480652 
z"/>
<path fill="#1F3A6A" opacity="1.000000" stroke="none" 
	d="
M81.965164,103.242813 
	C81.735069,104.255821 81.379616,104.820251 81.255577,105.431633 
	C80.776482,107.792938 81.121284,111.455505 79.766724,112.245346 
	C77.611870,113.501854 74.342789,112.856850 71.543877,112.993736 
	C70.713005,113.034370 69.866623,113.090462 69.047829,112.983170 
	C66.514938,112.651283 63.991909,112.244080 61.465050,111.866119 
	C61.995266,108.584435 62.501316,105.298416 63.088337,102.026917 
	C63.156609,101.646446 63.633457,101.295853 63.988190,101.017036 
	C66.961304,98.680183 79.340599,99.930779 81.965164,103.242813 
z"/>
<path fill="#1F3A6A" opacity="1.000000" stroke="none" 
	d="
M115.100616,100.000000 
	C116.069885,100.000000 116.568283,100.000000 117.066681,100.000000 
	C125.654144,100.000015 127.553429,101.654633 127.817284,110.051163 
	C127.847168,111.001915 125.989433,112.785065 124.912041,112.862587 
	C120.449554,113.183685 115.925987,113.256088 111.480690,112.833031 
	C110.223511,112.713394 108.963982,110.724846 108.080948,109.351974 
	C107.627289,108.646667 107.999947,107.409554 108.000076,106.412758 
	C108.000916,100.012787 108.000999,100.012787 115.100616,100.000000 
z"/>
<path fill="#1F3A6A" opacity="1.000000" stroke="none" 
	d="
M103.999825,105.321106 
	C103.999985,108.049568 103.999985,110.321800 103.999985,112.997078 
	C98.476067,112.997078 93.365303,113.194000 88.291489,112.848419 
	C87.130066,112.769318 85.384186,110.951385 85.155861,109.705009 
	C84.720619,107.329102 84.227676,104.056305 85.454231,102.452888 
	C89.196190,97.561218 94.937729,100.556976 99.786774,100.236015 
	C101.093613,100.149513 102.593353,102.908630 103.987267,104.377914 
	C104.070267,104.465416 103.999092,104.699181 103.999825,105.321106 
z"/>
<path fill="#1F3A6A" opacity="1.000000" stroke="none" 
	d="
M82.159393,87.685196 
	C82.473579,90.861443 82.473579,93.713348 82.473579,96.999870 
	C77.368095,96.999870 72.907127,97.168297 68.471642,96.905899 
	C66.976913,96.817467 65.546898,95.635445 64.087303,94.953232 
	C66.371292,92.756630 62.862350,87.213593 68.469612,87.051895 
	C72.921463,86.923523 77.386192,87.241219 82.159393,87.685196 
z"/>
<path fill="#1F3A6A" opacity="1.000000" stroke="none" 
	d="
M106.039886,89.149399 
	C111.466621,88.189560 116.885857,87.240456 122.237297,87.532692 
	C123.264130,87.588768 124.172722,92.496918 124.692307,95.250320 
	C124.747971,95.545280 121.844292,96.829979 120.272156,96.917877 
	C115.997124,97.156898 111.699951,96.999947 107.435913,96.999947 
	C106.915810,94.300217 106.462303,91.946175 106.039886,89.149399 
z"/>
<path fill="#1F3A6A" opacity="1.000000" stroke="none" 
	d="
M86.000771,93.972397 
	C86.015549,87.002968 86.015549,87.002945 92.519440,87.000038 
	C93.183113,86.999741 93.846794,87.000000 94.510468,87.000000 
	C103.468842,87.000000 103.468842,87.000000 102.695450,96.993225 
	C97.828140,96.993225 92.902710,97.093712 87.990990,96.879547 
	C87.293625,96.849144 86.662941,95.289459 86.000771,93.972397 
z"/>
</svg>