<svg xmlns="http://www.w3.org/2000/svg" xmlns:xlink="http://www.w3.org/1999/xlink" width="50.462" height="67.006" viewBox="0 0 50.462 67.006">
  <defs>
    <style>
      .cls-1 {
        stroke: rgba(0,0,0,0);
        stroke-miterlimit: 10;
        fill: url(#linear-gradient);
      }
    </style>
    <linearGradient id="linear-gradient" x1="0.5" x2="0.5" y2="1" gradientUnits="objectBoundingBox">
      <stop offset="0" stop-color="#112436"/>
      <stop offset="1" stop-color="#235684"/>
    </linearGradient>
  </defs>
  <path id="Vereinigungsmenge_50" data-name="Vereinigungsmenge 50" class="cls-1" d="M-5844.342,11472.187l-3.346-8.348h-7.072a1.294,1.294,0,0,1-1.3-1.293,1.294,1.294,0,0,1,1.3-1.3h6.035l-4.342-10.835-21,10.835h8.92a1.294,1.294,0,0,1,1.293,1.3,1.293,1.293,0,0,1-1.293,1.293h-13.7l-3.346,8.348a1.293,1.293,0,0,1-1.685.72,1.3,1.3,0,0,1-.72-1.682l19.542-48.76a5.308,5.308,0,0,1-3.51-4.987,5.3,5.3,0,0,1,5.3-5.3,5.3,5.3,0,0,1,5.3,5.3,5.308,5.308,0,0,1-3.51,4.987l19.54,48.76a1.29,1.29,0,0,1-.72,1.682,1.273,1.273,0,0,1-.478.095A1.293,1.293,0,0,1-5844.342,11472.187Zm-32.975-12.172,19.588-10.106h-15.537Zm6.5-12.7h16.511l-4.489-11.2Zm.012-3.548,8.365-7.794h-4.941a1.331,1.331,0,0,1-.288-.032Zm4.161-10.383h6.755l-3.377-8.428Zm.668-15.909a2.712,2.712,0,0,0,2.709,2.707,2.711,2.711,0,0,0,2.709-2.707,2.712,2.712,0,0,0-2.709-2.709A2.712,2.712,0,0,0-5865.978,11417.478Zm5.272,46.119a1.3,1.3,0,0,1-.489-1.407,1.3,1.3,0,0,1,1.152-.937,1.3,1.3,0,0,1,1.287.795,1.305,1.305,0,0,1-.475,1.572,1.32,1.32,0,0,1-.721.214A1.307,1.307,0,0,1-5860.706,11463.6Zm16.156-36.021a1.293,1.293,0,0,1,0-1.831,11.617,11.617,0,0,0,3.424-8.268,11.606,11.606,0,0,0-3.424-8.267,1.293,1.293,0,0,1,0-1.831,1.29,1.29,0,0,1,1.829,0,14.182,14.182,0,0,1,4.184,10.1,14.193,14.193,0,0,1-4.184,10.1,1.292,1.292,0,0,1-.916.377A1.291,1.291,0,0,1-5844.55,11427.576Zm-39.266,0a14.193,14.193,0,0,1-4.184-10.1,14.182,14.182,0,0,1,4.184-10.1,1.29,1.29,0,0,1,1.829,0,1.293,1.293,0,0,1,0,1.831,11.606,11.606,0,0,0-3.424,8.267,11.617,11.617,0,0,0,3.424,8.268,1.289,1.289,0,0,1,0,1.828,1.292,1.292,0,0,1-.916.38A1.29,1.29,0,0,1-5883.816,11427.576Zm33.583-2.5a1.292,1.292,0,0,1,0-1.828,8.111,8.111,0,0,0,2.393-5.773,8.1,8.1,0,0,0-2.393-5.772,1.3,1.3,0,0,1,0-1.832,1.3,1.3,0,0,1,1.831,0,10.764,10.764,0,0,1,0,15.206,1.289,1.289,0,0,1-.916.381A1.278,1.278,0,0,1-5850.233,11425.079Zm-27.9,0a10.764,10.764,0,0,1,0-15.206,1.294,1.294,0,0,1,1.828,0,1.294,1.294,0,0,1,0,1.832,8.11,8.11,0,0,0-2.39,5.772,8.11,8.11,0,0,0,2.39,5.771,1.293,1.293,0,0,1,0,1.831,1.28,1.28,0,0,1-.916.381A1.283,1.283,0,0,1-5878.132,11425.079Zm22.211-2.493a1.3,1.3,0,0,1,0-1.831,4.64,4.64,0,0,0,0-6.557,1.3,1.3,0,0,1,0-1.831,1.3,1.3,0,0,1,1.832,0,7.236,7.236,0,0,1,0,10.219,1.289,1.289,0,0,1-.916.38A1.288,1.288,0,0,1-5855.92,11422.586Zm-16.528,0a7.231,7.231,0,0,1,0-10.219,1.3,1.3,0,0,1,1.832,0,1.3,1.3,0,0,1,0,1.831,4.641,4.641,0,0,0,0,6.557,1.3,1.3,0,0,1,0,1.831,1.288,1.288,0,0,1-.916.38A1.289,1.289,0,0,1-5872.448,11422.586Z" transform="translate(5888.5 -11406.5)"/>
</svg>
