<svg xmlns="http://www.w3.org/2000/svg" xmlns:xlink="http://www.w3.org/1999/xlink" width="66" height="56.992" viewBox="0 0 66 56.992">
  <defs>
    <style>
      .cls-1 {
        fill: url(#linear-gradient);
      }
    </style>
    <linearGradient id="linear-gradient" x1="0.5" x2="0.5" y2="1" gradientUnits="objectBoundingBox">
      <stop offset="0" stop-color="#112436"/>
      <stop offset="1" stop-color="#235684"/>
    </linearGradient>
  </defs>
  <g id="g4558" transform="translate(-2 -5.009)">
    <path id="Vereinigungsmenge_42" data-name="Vereinigungsmenge 42" class="cls-1" d="M-3623.08,11446.764l-25.466-8.693h-23.682a4.8,4.8,0,0,1-4.772-4.772v-8.966a1.5,1.5,0,0,1,1.04-1.428c1.873-.6,3.459-2.957,3.459-5.835s-1.589-5.229-3.459-5.833a1.5,1.5,0,0,1-1.04-1.428v-5.967a4.784,4.784,0,0,1,4.384-4.734l2-6.033a4.526,4.526,0,0,1,3.919-3.065,6.415,6.415,0,0,1,1.79.212l25.463,8.849h23.676a4.8,4.8,0,0,1,4.772,4.772v5.964a1.5,1.5,0,0,1-1.04,1.429c-1.873.6-3.462,2.956-3.459,5.835s1.586,5.229,3.459,5.832a1.506,1.506,0,0,1,1.04,1.428v8.969a4.78,4.78,0,0,1-4.436,4.735l-1.945,5.878a4.526,4.526,0,0,1-4.276,3.09A4.391,4.391,0,0,1-3623.08,11446.764Zm.971-2.838a1.458,1.458,0,0,0,1.882-.957l1.62-4.9h-20.656Zm-38.391-10.43c0,.523.006,1.055,0,1.572h44.732a1.736,1.736,0,0,0,1.772-1.771v-8.11a9.037,9.037,0,0,1-4.5-8.118,9.035,9.035,0,0,1,4.5-8.122v-5.105a1.736,1.736,0,0,0-1.772-1.772H-3660.5v1.428a1.5,1.5,0,0,1-1.5,1.5,1.5,1.5,0,0,1-1.5-1.5v-1.428h-8.728a1.736,1.736,0,0,0-1.773,1.772v5.108a9.041,9.041,0,0,1,4.5,8.119,9.031,9.031,0,0,1-4.5,8.121v8.107a1.736,1.736,0,0,0,1.773,1.771h8.731c0-.515-.006-1.052,0-1.572a1.5,1.5,0,0,1,1.5-1.5A1.5,1.5,0,0,1-3660.5,11433.5Zm-5.979-40.512a1.464,1.464,0,0,0-1.293,1.032l-1.672,5.053h20.849q-8.64-3-17.284-6.007a1.589,1.589,0,0,0-.5-.081Zm30.752,32.727a4.892,4.892,0,0,1,4.87-4.867,4.888,4.888,0,0,1,4.867,4.867,4.891,4.891,0,0,1-4.867,4.869A4.9,4.9,0,0,1-3635.727,11425.711Zm3,0a1.845,1.845,0,0,0,1.867,1.867,1.845,1.845,0,0,0,1.867-1.867,1.845,1.845,0,0,0-1.867-1.867A1.845,1.845,0,0,0-3632.725,11425.711Zm-30.775,2.563v-3.258a1.5,1.5,0,0,1,1.5-1.5,1.5,1.5,0,0,1,1.5,1.5v3.258a1.5,1.5,0,0,1-1.5,1.5A1.5,1.5,0,0,1-3663.5,11428.273Zm17.3-1.5a1.5,1.5,0,0,1,0-2.123l14.284-14.284a1.522,1.522,0,0,1,2.12,0,1.5,1.5,0,0,1,0,2.12l-14.284,14.287a1.5,1.5,0,0,1-1.061.439A1.489,1.489,0,0,1-3646.2,11426.773Zm-17.3-6.647v-3.258a1.5,1.5,0,0,1,1.5-1.5,1.5,1.5,0,0,1,1.5,1.5v3.258a1.5,1.5,0,0,1-1.5,1.5A1.5,1.5,0,0,1-3663.5,11420.126Zm13.489-8.7a4.894,4.894,0,0,1,4.87-4.867,4.89,4.89,0,0,1,4.867,4.867,4.889,4.889,0,0,1-4.867,4.866A4.893,4.893,0,0,1-3650.011,11411.427Zm3,0a1.846,1.846,0,0,0,1.867,1.867,1.846,1.846,0,0,0,1.867-1.867,1.844,1.844,0,0,0-1.867-1.865A1.844,1.844,0,0,0-3647.009,11411.427Zm-16.491.551v-3.258a1.5,1.5,0,0,1,1.5-1.5,1.5,1.5,0,0,1,1.5,1.5v3.258a1.5,1.5,0,0,1-1.5,1.5A1.5,1.5,0,0,1-3663.5,11411.978Z" transform="translate(3679 -11385)"/>
  </g>
</svg>
