<svg xmlns="http://www.w3.org/2000/svg" xmlns:xlink="http://www.w3.org/1999/xlink" width="59.885" height="66.001" viewBox="0 0 59.885 66.001">
  <defs>
    <style>
      .cls-1 {
        fill: url(#linear-gradient);
      }
    </style>
    <linearGradient id="linear-gradient" x1="0.5" x2="0.5" y2="1" gradientUnits="objectBoundingBox">
      <stop offset="0" stop-color="#112436"/>
      <stop offset="1" stop-color="#235684"/>
    </linearGradient>
  </defs>
  <path id="Vereinigungsmenge_66" data-name="Vereinigungsmenge 66" class="cls-1" d="M-5546.44,11467.777h-.979a3.309,3.309,0,0,1-2.361-.984,3.308,3.308,0,0,1-.961-2.37l.075-7.812a10.6,10.6,0,0,0-2.868-7.2,18.3,18.3,0,0,1-4.886-12.543,18.278,18.278,0,0,1,17.843-18.289,18.232,18.232,0,0,1,13.326,5.194,18.222,18.222,0,0,1,5.56,13.164,18.3,18.3,0,0,1-4.918,12.508,10.744,10.744,0,0,0-2.836,7.356l.075,7.613a3.3,3.3,0,0,1-.962,2.37,3.3,3.3,0,0,1-2.361.987h-.979a6.524,6.524,0,0,1-6.384,5.224A6.523,6.523,0,0,1-5546.44,11467.777Zm6.383,2.644a3.939,3.939,0,0,0,3.717-2.644h-7.435A3.94,3.94,0,0,0-5540.057,11470.421Zm-8.108-5.975a.75.75,0,0,0,.216.532.74.74,0,0,0,.53.219h14.725a.745.745,0,0,0,.53-.219.747.747,0,0,0,.213-.532l-.02-2.094h-16.173Zm.046-4.671h16.125l-.029-2.845h-2.876a1.289,1.289,0,0,1-1.29-1.29,1.287,1.287,0,0,1,1.29-1.287h3.1a13.138,13.138,0,0,1,3.305-6.659,15.728,15.728,0,0,0,4.23-10.752,15.667,15.667,0,0,0-4.783-11.318,15.664,15.664,0,0,0-11-4.469c-.149,0-.3,0-.452.006a15.711,15.711,0,0,0-15.338,15.721,15.739,15.739,0,0,0,4.2,10.783,13.277,13.277,0,0,1,3.352,6.688h3.078a1.29,1.29,0,0,1,1.29,1.287,1.291,1.291,0,0,1-1.29,1.29h-2.879Zm27.411-1.658-4.094-4.095a1.287,1.287,0,0,1,0-1.822,1.291,1.291,0,0,1,1.826,0l4.091,4.095a1.287,1.287,0,0,1,0,1.822,1.284,1.284,0,0,1-.91.377A1.287,1.287,0,0,1-5520.708,11458.117Zm-40.521,0a1.287,1.287,0,0,1,0-1.822l4.092-4.095a1.288,1.288,0,0,1,1.823,0,1.287,1.287,0,0,1,0,1.822l-4.092,4.095a1.291,1.291,0,0,1-.913.377A1.285,1.285,0,0,1-5561.229,11458.117Zm19.882-2.474a1.29,1.29,0,0,1,1.29-1.29,1.29,1.29,0,0,1,1.29,1.29,1.289,1.289,0,0,1-1.29,1.287A1.289,1.289,0,0,1-5541.347,11455.644Zm24.155-17.411a1.29,1.29,0,0,1-1.29-1.29,1.289,1.289,0,0,1,1.29-1.287h5.787a1.287,1.287,0,0,1,1.29,1.287,1.288,1.288,0,0,1-1.29,1.29Zm-51.521,0a1.288,1.288,0,0,1-1.287-1.29,1.287,1.287,0,0,1,1.287-1.287h5.791a1.289,1.289,0,0,1,1.29,1.287,1.29,1.29,0,0,1-1.29,1.29Zm43.91-16.545a1.291,1.291,0,0,1,0-1.825l4.094-4.092a1.288,1.288,0,0,1,1.823,0,1.288,1.288,0,0,1,0,1.823l-4.091,4.094a1.3,1.3,0,0,1-.913.377A1.291,1.291,0,0,1-5524.8,11421.688Zm-32.335,0-4.092-4.094a1.288,1.288,0,0,1,0-1.823,1.288,1.288,0,0,1,1.823,0l4.092,4.092a1.291,1.291,0,0,1,0,1.825,1.285,1.285,0,0,1-.91.377A1.291,1.291,0,0,1-5557.137,11421.688Zm15.79-7.61v-5.787a1.29,1.29,0,0,1,1.29-1.29,1.29,1.29,0,0,1,1.29,1.29v5.787a1.291,1.291,0,0,1-1.29,1.29A1.291,1.291,0,0,1-5541.347,11414.077Z" transform="translate(5570 -11407)"/>
</svg>
