<svg xmlns="http://www.w3.org/2000/svg" xmlns:xlink="http://www.w3.org/1999/xlink" width="56.11" height="66" viewBox="0 0 56.11 66">
  <defs>
    <style>
      .cls-1 {
        fill: url(#linear-gradient);
      }
    </style>
    <linearGradient id="linear-gradient" x1="0.5" x2="0.5" y2="1" gradientUnits="objectBoundingBox">
      <stop offset="0" stop-color="#112436"/>
      <stop offset="1" stop-color="#235684"/>
    </linearGradient>
  </defs>
  <g id="app-store" transform="translate(-38.365 -0.001)">
    <path id="Vereinigungsmenge_41" data-name="Vereinigungsmenge 41" class="cls-1" d="M-3750.347,11456a1.29,1.29,0,0,1-1.288-1.291v-46.162a1.288,1.288,0,0,1,1.288-1.288h8.076v-7.142a10.244,10.244,0,0,1,2.832-7.078,9.543,9.543,0,0,1,6.963-3.039h17.788a9.538,9.538,0,0,1,6.963,3.039,10.233,10.233,0,0,1,2.835,7.078v7.142h8.073a1.288,1.288,0,0,1,1.291,1.288v46.162a1.29,1.29,0,0,1-1.291,1.291Zm10.655-2.579h41.588v-43.586h-6.785v34.757a1.29,1.29,0,0,1-1.291,1.288,1.29,1.29,0,0,1-1.288-1.288v-3.5a18.7,18.7,0,0,1-16.112,9.229,18.7,18.7,0,0,1-16.112-9.229Zm-9.364,0h6.785v-34.451a1.29,1.29,0,0,1,1.291-1.288,1.289,1.289,0,0,1,1.288,1.288v3.2a18.7,18.7,0,0,1,16.112-9.229,18.7,18.7,0,0,1,16.112,9.229v-12.331h-41.588Zm9.364-21.793a16.13,16.13,0,0,0,16.112,16.112,16.13,16.13,0,0,0,16.112-16.112,16.13,16.13,0,0,0-16.112-16.111A16.13,16.13,0,0,0-3739.692,11431.629Zm0-31.511v7.142h32.224v-7.142a7.484,7.484,0,0,0-7.219-7.541h-17.788A7.486,7.486,0,0,0-3739.692,11400.118Zm33.262,50.8a1.651,1.651,0,0,1-.242-.074,1.247,1.247,0,0,1-.224-.121,1.27,1.27,0,0,1-.2-.161,1.293,1.293,0,0,1-.377-.908,1.242,1.242,0,0,1,.026-.253,1.456,1.456,0,0,1,.072-.242,1.254,1.254,0,0,1,.121-.221,1.273,1.273,0,0,1,.158-.2,1.443,1.443,0,0,1,.2-.158,1.367,1.367,0,0,1,.224-.118,1.217,1.217,0,0,1,.242-.075,1.361,1.361,0,0,1,.5,0,1.35,1.35,0,0,1,.242.075,1.232,1.232,0,0,1,.221.118,1.154,1.154,0,0,1,.2.158,1.149,1.149,0,0,1,.161.2,1.479,1.479,0,0,1,.121.221,1.456,1.456,0,0,1,.072.242,1.242,1.242,0,0,1,.026.253,1.284,1.284,0,0,1-.38.908,1.042,1.042,0,0,1-.2.161,1.132,1.132,0,0,1-.221.121,1.9,1.9,0,0,1-.242.074,1.45,1.45,0,0,1-.253.023A1.444,1.444,0,0,1-3706.43,11450.918Zm-24.677-8.74a1.291,1.291,0,0,1-.644-1.115V11422.2a1.3,1.3,0,0,1,.644-1.118,1.292,1.292,0,0,1,1.291,0l16.339,9.436a1.282,1.282,0,0,1,.644,1.115,1.288,1.288,0,0,1-.644,1.116l-16.339,9.433a1.3,1.3,0,0,1-.647.173A1.294,1.294,0,0,1-3731.107,11442.178Zm1.935-3.347,12.472-7.2-3.591-2.072-8.881-5.13Zm-12.061-23.656a1,1,0,0,1-.241-.074,1.46,1.46,0,0,1-.224-.118,1.283,1.283,0,0,1-.193-.158,1.191,1.191,0,0,1-.164-.2,1.366,1.366,0,0,1-.118-.222,1.388,1.388,0,0,1-.072-.241,1.224,1.224,0,0,1-.026-.25,1.232,1.232,0,0,1,.026-.253,1.44,1.44,0,0,1,.072-.241,1.5,1.5,0,0,1,.118-.222,1.063,1.063,0,0,1,.164-.2,1.143,1.143,0,0,1,.193-.161,1.379,1.379,0,0,1,.224-.118,1.156,1.156,0,0,1,.241-.074,1.292,1.292,0,0,1,1.162.354,1.048,1.048,0,0,1,.161.2,1.235,1.235,0,0,1,.118.222,1.406,1.406,0,0,1,.075.241,1.232,1.232,0,0,1,.026.253,1.224,1.224,0,0,1-.026.25,1.354,1.354,0,0,1-.075.241,1.143,1.143,0,0,1-.118.222,1.174,1.174,0,0,1-.161.2,1.3,1.3,0,0,1-.911.377A1.211,1.211,0,0,1-3741.233,11415.175Z" transform="translate(3790 -11390)"/>
  </g>
</svg>
