<svg xmlns="http://www.w3.org/2000/svg" xmlns:xlink="http://www.w3.org/1999/xlink" width="62.769" height="67.76" viewBox="0 0 62.769 67.76">
  <defs>
    <style>
      .cls-1 {
        fill: url(#linear-gradient);
      }
    </style>
    <linearGradient id="linear-gradient" x1="0.5" x2="0.5" y2="1" gradientUnits="objectBoundingBox">
      <stop offset="0" stop-color="#112436"/>
      <stop offset="1" stop-color="#235684"/>
    </linearGradient>
  </defs>
  <g id="tea" transform="translate(-18.848 0.001)">
    <path id="Vereinigungsmenge_28" data-name="Vereinigungsmenge 28" class="cls-1" d="M10.1,67.76a1.326,1.326,0,0,1-1.21-.788A104.591,104.591,0,0,1,2.246,47.489,90.181,90.181,0,0,1,0,27.209V18.253a3.984,3.984,0,0,1,3.978-3.978H45.048a3.982,3.982,0,0,1,3.978,3.978V22.47a16.723,16.723,0,0,1,9.327,5.949,21.388,21.388,0,0,1,0,26.028,16.3,16.3,0,0,1-12.677,6.317,15.319,15.319,0,0,1-2.86-.272c-.806,2.129-1.7,4.283-2.68,6.482a1.322,1.322,0,0,1-1.207.788Zm.861-2.653h27.1c5.744-13.1,8.312-24.823,8.312-37.9V18.253a1.328,1.328,0,0,0-1.328-1.325H33.669v7.861l5.98,5.144a1.332,1.332,0,0,1,.457,1.006V41.527a1.323,1.323,0,0,1-1.325,1.325H25.906a1.327,1.327,0,0,1-1.325-1.325V30.939a1.317,1.317,0,0,1,.464-1.006l5.974-5.144V16.928H3.978a1.327,1.327,0,0,0-1.325,1.325v8.956A88.165,88.165,0,0,0,8.784,59.8H26.337a1.327,1.327,0,1,1,0,2.654H9.834C10.2,63.331,10.572,64.214,10.962,65.107ZM43.74,57.962a12.589,12.589,0,0,0,1.936.153A13.667,13.667,0,0,0,56.284,52.79a18.753,18.753,0,0,0,0-22.717,14.156,14.156,0,0,0-7.258-4.87v2c0,.266,0,.528,0,.793a11.778,11.778,0,0,1,5.561,4.649A15.748,15.748,0,0,1,57.058,41.3c0,7.689-5.163,13.946-11.515,13.946-.293,0-.587-.014-.88-.042C44.372,56.116,44.064,57.038,43.74,57.962Zm3.04-10.473q-.58,2.542-1.322,5.1c.029,0,.059,0,.086,0,4.888,0,8.864-5.068,8.864-11.3,0-4.578-2.22-8.684-5.448-10.417A89.2,89.2,0,0,1,46.78,47.489ZM27.234,31.547V40.2H37.456V31.547l-5.109-4.4Zm3.789,29.788a1.323,1.323,0,1,1,1.518,1.095,1.3,1.3,0,0,1-.216.018A1.32,1.32,0,0,1,31.024,61.335ZM26.907,11.293A1.324,1.324,0,0,1,26.5,9.464a5.086,5.086,0,0,0,.755-2.613,5.146,5.146,0,0,0-.755-2.8,1.325,1.325,0,1,1,2.237-1.422A7.755,7.755,0,0,1,29.906,6.9a7.728,7.728,0,0,1-1.169,3.987,1.326,1.326,0,0,1-1.83.407ZM20.289,8.876A7.776,7.776,0,0,1,19.12,4.605,7.749,7.749,0,0,1,20.289.613a1.326,1.326,0,0,1,2.237,1.424,5.09,5.09,0,0,0-.756,2.611,5.14,5.14,0,0,0,.756,2.8,1.326,1.326,0,0,1-2.237,1.426Z" transform="translate(18.848 -0.001)"/>
  </g>
</svg>
