<svg xmlns="http://www.w3.org/2000/svg" xmlns:xlink="http://www.w3.org/1999/xlink" width="67" height="67" viewBox="0 0 67 67">
  <defs>
    <style>
      .cls-1 {
        stroke: rgba(0,0,0,0);
        stroke-miterlimit: 10;
        fill: url(#linear-gradient);
      }
    </style>
    <linearGradient id="linear-gradient" x1="0.5" x2="0.5" y2="1" gradientUnits="objectBoundingBox">
      <stop offset="0" stop-color="#112436"/>
      <stop offset="1" stop-color="#235684"/>
    </linearGradient>
  </defs>
  <g id="Gruppe_9045" data-name="Gruppe 9045" transform="translate(0.5 0.499)">
    <path id="Vereinigungsmenge_45" data-name="Vereinigungsmenge 45" class="cls-1" d="M-3233.373,11456a1.29,1.29,0,0,1-1.288-1.291v-4.52a27.673,27.673,0,0,1-7.852-3.254l-3.2,3.2a1.288,1.288,0,0,1-1.823,0l-7.6-7.6a1.288,1.288,0,0,1-.377-.911,1.288,1.288,0,0,1,.377-.911l3.2-3.2a27.824,27.824,0,0,1-3.258-7.854h-4.52a1.288,1.288,0,0,1-1.288-1.288v-10.744a1.288,1.288,0,0,1,1.288-1.288h4.52a27.742,27.742,0,0,1,3.258-7.854l-3.2-3.2a1.29,1.29,0,0,1,0-1.823l7.6-7.6a1.29,1.29,0,0,1,1.823,0l3.2,3.2a27.71,27.71,0,0,1,7.852-3.255v-4.52a1.288,1.288,0,0,1,1.288-1.288h10.744a1.287,1.287,0,0,1,1.291,1.288v4.52a27.709,27.709,0,0,1,7.852,3.255l3.2-3.2a1.293,1.293,0,0,1,1.826,0l7.6,7.6a1.3,1.3,0,0,1,0,1.823l-3.2,3.2a27.734,27.734,0,0,1,3.257,7.853h4.517a1.288,1.288,0,0,1,1.291,1.288v10.744a1.288,1.288,0,0,1-1.291,1.288h-4.517a27.781,27.781,0,0,1-3.257,7.854l3.2,3.2a1.294,1.294,0,0,1,0,1.822l-7.6,7.6a1.291,1.291,0,0,1-1.826,0l-3.2-3.2a27.706,27.706,0,0,1-7.852,3.254v4.52a1.29,1.29,0,0,1-1.291,1.291Zm-8.614-11.784a25.165,25.165,0,0,0,8.873,3.68,1.287,1.287,0,0,1,1.029,1.262v4.264h8.168v-4.264a1.289,1.289,0,0,1,1.032-1.262,25.129,25.129,0,0,0,8.87-3.68,1.293,1.293,0,0,1,1.622.166l3.019,3.017,5.773-5.776-3.016-3.016a1.285,1.285,0,0,1-.161-1.622,25.174,25.174,0,0,0,3.674-8.869,1.291,1.291,0,0,1,1.262-1.032h4.264v-8.168h-4.264a1.287,1.287,0,0,1-1.262-1.032,25.168,25.168,0,0,0-3.677-8.87,1.284,1.284,0,0,1,.164-1.621l3.016-3.017-5.773-5.775-3.019,3.016a1.289,1.289,0,0,1-1.622.167,25.149,25.149,0,0,0-8.87-3.681,1.289,1.289,0,0,1-1.032-1.262v-4.261h-8.168v4.261a1.286,1.286,0,0,1-1.029,1.262,25.185,25.185,0,0,0-8.873,3.681,1.289,1.289,0,0,1-1.622-.167l-3.016-3.016-5.776,5.775,3.016,3.017a1.284,1.284,0,0,1,.164,1.621,25.235,25.235,0,0,0-3.677,8.87,1.287,1.287,0,0,1-1.262,1.032h-4.261v8.168h4.261a1.29,1.29,0,0,1,1.265,1.032,25.148,25.148,0,0,0,3.677,8.869,1.289,1.289,0,0,1-.167,1.622l-3.016,3.016,5.776,5.776,3.016-3.017a1.293,1.293,0,0,1,.915-.379A1.28,1.28,0,0,1-3241.987,11444.217Zm8.41-8.16a1.231,1.231,0,0,1-.607-1.633,1.229,1.229,0,0,1,1.633-.606,11.52,11.52,0,0,0,4.813,1.041,11.609,11.609,0,0,0,11.593-11.593,11.5,11.5,0,0,0-.969-4.646,1.232,1.232,0,0,1,.633-1.624,1.23,1.23,0,0,1,1.622.636,13.934,13.934,0,0,1,1.179,5.635,14.074,14.074,0,0,1-14.059,14.057A13.96,13.96,0,0,1-3233.577,11436.057Zm-5.434-3.826a1.234,1.234,0,0,1,1.231-1.233,1.234,1.234,0,0,1,1.23,1.233,1.232,1.232,0,0,1-1.23,1.23A1.232,1.232,0,0,1-3239.011,11432.23Zm-2.372-4.428a13.963,13.963,0,0,1-.949-5.08,14.076,14.076,0,0,1,14.059-14.06,13.947,13.947,0,0,1,5.284,1.032,1.226,1.226,0,0,1,.678,1.6,1.23,1.23,0,0,1-1.6.679,11.572,11.572,0,0,0-4.359-.849,11.608,11.608,0,0,0-11.6,11.6,11.512,11.512,0,0,0,.782,4.191,1.233,1.233,0,0,1-.7,1.593,1.285,1.285,0,0,1-.446.083A1.233,1.233,0,0,1-3241.383,11427.8Zm21.534-14.438a1.234,1.234,0,0,1,1.23-1.233,1.236,1.236,0,0,1,1.23,1.233,1.234,1.234,0,0,1-1.23,1.23A1.232,1.232,0,0,1-3219.849,11413.364Z" transform="translate(3261 -11390)"/>
  </g>
</svg>
