<svg xmlns="http://www.w3.org/2000/svg" xmlns:xlink="http://www.w3.org/1999/xlink" width="63.999" height="52.097" viewBox="0 0 63.999 52.097">
  <defs>
    <style>
      .cls-1 {
        fill: url(#linear-gradient);
      }
    </style>
    <linearGradient id="linear-gradient" x1="0.5" x2="0.5" y2="1" gradientUnits="objectBoundingBox">
      <stop offset="0" stop-color="#112436"/>
      <stop offset="1" stop-color="#235684"/>
    </linearGradient>
  </defs>
  <path id="Vereinigungsmenge_54" data-name="Vereinigungsmenge 54" class="cls-1" d="M-6298.973,11459.1a8.888,8.888,0,0,1-5.285-1.754l-14.139-9.957a3.85,3.85,0,0,0-2.3-.764h-8.976a1.332,1.332,0,0,1-1.331-1.331v-17.3a1.331,1.331,0,0,1,1.331-1.328h16.491a11.272,11.272,0,0,1,8.015,3.313l12.692,12.666a5.334,5.334,0,0,1,.808,6.474h11.411a5,5,0,0,1,5,4.991,5,5,0,0,1-5,4.99Zm-21.278-14.953a6.373,6.373,0,0,1,3.34,1.233l14.108,9.939a6.393,6.393,0,0,0,3.83,1.283h18.721a2.5,2.5,0,0,0,2.5-2.493,2.5,2.5,0,0,0-2.5-2.494h-15.473a5.9,5.9,0,0,1-4.375-1.541l-6.05-5.387a1.243,1.243,0,0,1-.1-1.76,1.252,1.252,0,0,1,1.765-.1s6.063,5.4,6.069,5.4a3.432,3.432,0,0,0,2.554.895,2.552,2.552,0,0,0,1.636-.739,2.831,2.831,0,0,0-.013-3.975l-12.692-12.666a8.775,8.775,0,0,0-6.248-2.583h-7.073Zm-8.249-.019h5.75v-14.968h-5.75Zm18.25-3.74a1.248,1.248,0,0,1,1.25-1.247,1.248,1.248,0,0,1,1.25,1.247,1.25,1.25,0,0,1-1.25,1.247A1.25,1.25,0,0,1-6310.25,11440.384Zm18.148-4a1.248,1.248,0,0,1-.5-1.221l1.573-9.167-6.671-6.492a1.244,1.244,0,0,1-.315-1.278,1.25,1.25,0,0,1,1.01-.849l9.22-1.338,4.125-8.34a1.25,1.25,0,0,1,1.121-.7,1.249,1.249,0,0,1,1.12.7l4.125,8.34,9.223,1.337a1.249,1.249,0,0,1,1.007.85,1.248,1.248,0,0,1-.316,1.278l-6.673,6.492,1.576,9.167a1.25,1.25,0,0,1-.5,1.219,1.254,1.254,0,0,1-1.318.1l-8.246-4.328-8.247,4.328a1.251,1.251,0,0,1-.582.144A1.259,1.259,0,0,1-6292.1,11436.38Zm10.146-6.746,6.587,3.457-1.257-7.322a1.249,1.249,0,0,1,.36-1.1l5.33-5.185-7.365-1.068a1.251,1.251,0,0,1-.942-.683l-3.293-6.663-3.293,6.663a1.26,1.26,0,0,1-.942.683l-7.365,1.068,5.33,5.185a1.24,1.24,0,0,1,.357,1.1l-1.257,7.322,6.589-3.457a1.231,1.231,0,0,1,.581-.144A1.243,1.243,0,0,1-6281.956,11429.634Z" transform="translate(6330.999 -11406.999)"/>
</svg>
