<svg xmlns="http://www.w3.org/2000/svg" xmlns:xlink="http://www.w3.org/1999/xlink" width="48.385" height="66" viewBox="0 0 48.385 66">
  <defs>
    <style>
      .cls-1 {
        fill: url(#linear-gradient);
      }
    </style>
    <linearGradient id="linear-gradient" x1="0.5" x2="0.5" y2="1" gradientUnits="objectBoundingBox">
      <stop offset="0" stop-color="#112436"/>
      <stop offset="1" stop-color="#235684"/>
    </linearGradient>
  </defs>
  <g id="smartphone" transform="translate(5.331 -0.001)">
    <path id="Vereinigungsmenge_35" data-name="Vereinigungsmenge 35" class="cls-1" d="M-4407.3,11455.389a1.291,1.291,0,0,1,.417-1.773l2.142-1.325a13.438,13.438,0,0,0,6.339-10.213h-21.566a18.066,18.066,0,0,1,.293,3.24v1.1a1.291,1.291,0,0,1-1.288,1.291,1.291,1.291,0,0,1-1.291-1.291v-1.1a15.105,15.105,0,0,0-4.457-10.759,1.293,1.293,0,0,1-.376-.911v-15.16a5.8,5.8,0,0,0-4.772-5.713.761.761,0,0,0-.627.164.76.76,0,0,0-.273.584v36.033a1.288,1.288,0,0,1-1.288,1.288,1.288,1.288,0,0,1-1.288-1.288v-36.033a3.327,3.327,0,0,1,1.2-2.562,3.347,3.347,0,0,1,2.737-.725,8.4,8.4,0,0,1,4.315,2.2v-18.131a4.312,4.312,0,0,1,4.307-4.307h26.965a4.311,4.311,0,0,1,4.307,4.307v3.036a4.368,4.368,0,0,1,3.272,1.279,4.359,4.359,0,0,1,1.285,3.1,4.359,4.359,0,0,1-1.285,3.1l-1.38,1.38a4.336,4.336,0,0,1,1.38.932,4.357,4.357,0,0,1,1.285,3.1,4.357,4.357,0,0,1-1.285,3.1l-1.377,1.377a4.363,4.363,0,0,1,1.377.929,4.369,4.369,0,0,1,1.285,3.1,4.367,4.367,0,0,1-1.285,3.1l-1.38,1.378a4.352,4.352,0,0,1,1.38.932,4.367,4.367,0,0,1,1.285,3.1,4.369,4.369,0,0,1-1.285,3.1l-3.2,3.2-.069.065v4.129a4.311,4.311,0,0,1-4.307,4.307h0a16.13,16.13,0,0,1-1.978,6.547,16.132,16.132,0,0,1-5.589,5.856l-2.139,1.325a1.278,1.278,0,0,1-.678.2A1.292,1.292,0,0,1-4407.3,11455.389Zm-13.343-15.888h24.83a1.732,1.732,0,0,0,1.728-1.73v-2.912h-.414c-.011,0-.026,0-.04,0s-.029,0-.04,0h-28.486A17.609,17.609,0,0,1-4420.64,11439.5Zm28.026-13.51-3.2,3.2a1.8,1.8,0,0,0-.532,1.279,1.8,1.8,0,0,0,.532,1.279,1.8,1.8,0,0,0,1.259.529h.04a1.8,1.8,0,0,0,1.259-.529l3.2-3.2a1.8,1.8,0,0,0,.529-1.279,1.788,1.788,0,0,0-.529-1.279,1.8,1.8,0,0,0-1.28-.529A1.8,1.8,0,0,0-4392.613,11425.991Zm-31.89,6.291h25.968a4.4,4.4,0,0,1-.388-1.812,4.357,4.357,0,0,1,1.285-3.1l1.377-1.38a4.342,4.342,0,0,1-1.377-.932,4.363,4.363,0,0,1-1.285-3.1,4.367,4.367,0,0,1,1.285-3.1l1.374-1.374a4.3,4.3,0,0,1-1.374-.932,4.359,4.359,0,0,1-1.285-3.1,4.364,4.364,0,0,1,1.285-3.1l1.377-1.377a4.384,4.384,0,0,1-1.377-.935,4.357,4.357,0,0,1-1.285-3.1,4.362,4.362,0,0,1,1.285-3.1l2.024-2.024H-4424.5v2.519h9.022a1.291,1.291,0,0,1,1.291,1.288,1.29,1.29,0,0,1-1.291,1.288h-9.022Zm31.89-14.81-3.2,3.205a1.789,1.789,0,0,0-.532,1.277,1.8,1.8,0,0,0,.532,1.282,1.8,1.8,0,0,0,1.279.528,1.8,1.8,0,0,0,1.279-.528l3.2-3.2a1.8,1.8,0,0,0,.529-1.282,1.8,1.8,0,0,0-.529-1.279,1.817,1.817,0,0,0-1.28-.529A1.815,1.815,0,0,0-4392.613,11417.473Zm0-8.511-3.2,3.2a1.8,1.8,0,0,0-.532,1.279,1.8,1.8,0,0,0,.532,1.279,1.794,1.794,0,0,0,1.279.529,1.793,1.793,0,0,0,1.279-.529l3.2-3.2a1.8,1.8,0,0,0,.529-1.279,1.8,1.8,0,0,0-.529-1.279,1.8,1.8,0,0,0-1.28-.53A1.8,1.8,0,0,0-4392.613,11408.962Zm0-8.516-3.2,3.2a1.8,1.8,0,0,0-.532,1.279,1.8,1.8,0,0,0,.532,1.279,1.8,1.8,0,0,0,1.279.531,1.8,1.8,0,0,0,1.279-.531l3.2-3.2a1.8,1.8,0,0,0,.529-1.279,1.8,1.8,0,0,0-.529-1.279,1.8,1.8,0,0,0-1.28-.53A1.8,1.8,0,0,0-4392.613,11400.446Zm-31.89-6.139v2.916h30.421v-2.916a1.732,1.732,0,0,0-1.728-1.73h-26.965A1.732,1.732,0,0,0-4424.5,11394.308Zm-10.451,61.314a1.3,1.3,0,0,1-.376-.912,1.306,1.306,0,0,1,.376-.911,1.3,1.3,0,0,1,.912-.377,1.3,1.3,0,0,1,.911.377,1.3,1.3,0,0,1,.377.911,1.3,1.3,0,0,1-.377.912,1.29,1.29,0,0,1-.911.379A1.292,1.292,0,0,1-4434.955,11455.622Zm25.657-17.239a1.291,1.291,0,0,1-1.291-1.288,1.291,1.291,0,0,1,1.291-1.291,1.3,1.3,0,0,1,1.294,1.291,1.286,1.286,0,0,1-1.285,1.288Zm-8.436-22.728a8.643,8.643,0,0,1,8.631-8.634,8.643,8.643,0,0,1,8.634,8.634,8.642,8.642,0,0,1-8.634,8.631A8.642,8.642,0,0,1-4417.733,11415.655Zm2.576,0a6.063,6.063,0,0,0,6.055,6.055,6.061,6.061,0,0,0,6.055-6.055,6.061,6.061,0,0,0-6.055-6.055A6.063,6.063,0,0,0-4415.157,11415.655Zm4.434,2.651-1.743-1.74a1.293,1.293,0,0,1,0-1.825,1.29,1.29,0,0,1,1.823,0l.831.831,2.57-2.57a1.288,1.288,0,0,1,1.823,0,1.288,1.288,0,0,1,0,1.822l-3.481,3.482a1.292,1.292,0,0,1-.912.379A1.291,1.291,0,0,1-4410.723,11418.307Zm-.512-13.786a1.292,1.292,0,0,1-.38-.912,1.29,1.29,0,0,1,.38-.911,1.288,1.288,0,0,1,.911-.377,1.3,1.3,0,0,1,.912.377,1.3,1.3,0,0,1,.376.911,1.3,1.3,0,0,1-.376.912,1.307,1.307,0,0,1-.912.376A1.3,1.3,0,0,1-4411.235,11404.521Z" transform="translate(4430 -11390)"/>
  </g>
</svg>
