<svg xmlns="http://www.w3.org/2000/svg" xmlns:xlink="http://www.w3.org/1999/xlink" width="66.001" height="54.141" viewBox="0 0 66.001 54.141">
  <defs>
    <style>
      .cls-1 {
        fill: url(#linear-gradient);
      }
    </style>
    <linearGradient id="linear-gradient" x1="0.5" x2="0.5" y2="1" gradientUnits="objectBoundingBox">
      <stop offset="0" stop-color="#112436"/>
      <stop offset="1" stop-color="#235684"/>
    </linearGradient>
  </defs>
  <g id="email" transform="translate(0.001 -46.005)">
    <path id="Vereinigungsmenge_36" data-name="Vereinigungsmenge 36" class="cls-1" d="M-4165.751,11483.767l-31.012-31.012a1.294,1.294,0,0,1,0-1.824l20.552-20.55a1.29,1.29,0,0,1,1.822,0l11.644,11.644a1.289,1.289,0,0,1,0,1.824,1.29,1.29,0,0,1-1.822,0l-9.177-9.177v22.666a3.414,3.414,0,0,0,3.41,3.409h22.665l-9.505-9.5a1.294,1.294,0,0,1,0-1.824,1.29,1.29,0,0,1,1.825,0l11.972,11.973a1.289,1.289,0,0,1,.377.911,1.278,1.278,0,0,1-.377.91l-20.55,20.553a1.288,1.288,0,0,1-.911.378A1.292,1.292,0,0,1-4165.751,11483.767Zm2.2-4.023,16.417-16.417h-16.417Zm-2.58,0v-16.417h-4.205a6,6,0,0,1-5.986-5.988v-4.205h-16.417Zm-26.608-29.187h16.417v-16.417Zm-11.494,24.176a1.288,1.288,0,0,1-1.288-1.289,1.287,1.287,0,0,1,1.288-1.288h18.178a1.287,1.287,0,0,1,1.288,1.288,1.288,1.288,0,0,1-1.288,1.289Zm5.32-8.249a1.287,1.287,0,0,1-1.288-1.288,1.287,1.287,0,0,1,1.288-1.288h7.22a1.288,1.288,0,0,1,1.289,1.288,1.288,1.288,0,0,1-1.289,1.288Zm2.58-7.09a1.287,1.287,0,0,1-1.288-1.288,1.288,1.288,0,0,1,1.288-1.289h.021a1.288,1.288,0,0,1,1.288,1.289,1.287,1.287,0,0,1-1.288,1.288Zm-11.381,0a1.288,1.288,0,0,1-1.289-1.288,1.289,1.289,0,0,1,1.289-1.289h7.56a1.289,1.289,0,0,1,1.289,1.289,1.288,1.288,0,0,1-1.289,1.288Zm47.011-11.679-.009-.009a1.291,1.291,0,0,1,.009-1.824,1.288,1.288,0,0,1,1.821.009,1.292,1.292,0,0,1,0,1.827,1.284,1.284,0,0,1-.911.375A1.268,1.268,0,0,1-4160.7,11447.714Zm-38.673-1.856a1.287,1.287,0,0,1-1.288-1.288,1.287,1.287,0,0,1,1.288-1.288h4.876a1.29,1.29,0,0,1,1.292,1.288,1.29,1.29,0,0,1-1.292,1.288Zm-8.335,0a1.288,1.288,0,0,1-1.289-1.288,1.288,1.288,0,0,1,1.289-1.288h4.124a1.29,1.29,0,0,1,1.292,1.288,1.29,1.29,0,0,1-1.292,1.288Z" transform="translate(4209 -11383.999)"/>
  </g>
</svg>
