<svg xmlns="http://www.w3.org/2000/svg" xmlns:xlink="http://www.w3.org/1999/xlink" width="62.381" height="52.104" viewBox="0 0 62.381 52.104">
  <defs>
    <style>
      .cls-1 {
        stroke: rgba(0,0,0,0);
        stroke-miterlimit: 10;
        fill: url(#linear-gradient);
      }
    </style>
    <linearGradient id="linear-gradient" x1="0.5" x2="0.5" y2="1" gradientUnits="objectBoundingBox">
      <stop offset="0" stop-color="#112436"/>
      <stop offset="1" stop-color="#235684"/>
    </linearGradient>
  </defs>
  <path id="Vereinigungsmenge_65" data-name="Vereinigungsmenge 65" class="cls-1" d="M-5652.6,11457.016a1.093,1.093,0,0,1,1.093-1.089,1.093,1.093,0,0,1,1.092,1.089,1.093,1.093,0,0,1-1.092,1.089A1.093,1.093,0,0,1-5652.6,11457.016Zm5.738,1.056a1.059,1.059,0,0,1-1.059-1.056,1.057,1.057,0,0,1,1.059-1.056h30.126v-2.6h-2.7a2.374,2.374,0,0,1-2.374-2.367v-1.831a2.373,2.373,0,0,1,2.374-2.364h2.7v-5.123h-2.7a2.373,2.373,0,0,1-2.374-2.366v-1.831a2.373,2.373,0,0,1,2.374-2.365h2.7v-5.121h-2.7a2.373,2.373,0,0,1-2.374-2.367v-1.831a2.374,2.374,0,0,1,2.374-2.365h2.7v-5.122h-2.7a2.373,2.373,0,0,1-2.374-2.366v-1.83a2.375,2.375,0,0,1,2.374-2.367h2.7v-2.6h-10.8a1.057,1.057,0,0,1-1.059-1.058,1.057,1.057,0,0,1,1.059-1.057h11.862a1.058,1.058,0,0,1,1.06,1.057v48.929a1.057,1.057,0,0,1-1.06,1.056Zm27.169-8.909v1.831a.252.252,0,0,0,.253.252h2.685v-2.335h-2.685A.253.253,0,0,0-5619.7,11449.162Zm0-11.685v1.831a.253.253,0,0,0,.253.253h2.685v-2.336h-2.685A.254.254,0,0,0-5619.7,11437.478Zm0-11.685v1.831a.252.252,0,0,0,.253.252h2.685v-2.335h-2.685A.254.254,0,0,0-5619.7,11425.793Zm0-11.684v1.83a.252.252,0,0,0,.253.252h2.685v-2.335h-2.685A.254.254,0,0,0-5619.7,11414.109Zm-55.244,43.962a1.059,1.059,0,0,1-1.062-1.056v-48.929a1.059,1.059,0,0,1,1.062-1.057h38.15a1.059,1.059,0,0,1,1.062,1.057,1.06,1.06,0,0,1-1.062,1.058h-37.09v2.6h2.682a2.374,2.374,0,0,1,2.374,2.367v1.83a2.372,2.372,0,0,1-2.374,2.366h-2.682v5.122h2.682a2.373,2.373,0,0,1,2.374,2.365v1.831a2.372,2.372,0,0,1-2.374,2.367h-2.682v5.121h2.682a2.371,2.371,0,0,1,2.374,2.365v1.831a2.372,2.372,0,0,1-2.374,2.366h-2.682v5.123h2.682a2.372,2.372,0,0,1,2.374,2.364v1.831a2.372,2.372,0,0,1-2.374,2.367h-2.682v2.6h17.68a1.057,1.057,0,0,1,1.059,1.056,1.059,1.059,0,0,1-1.059,1.056Zm1.06-6.826h2.682a.251.251,0,0,0,.253-.252v-1.831a.251.251,0,0,0-.253-.252h-2.682Zm0-11.684h2.682a.252.252,0,0,0,.253-.253v-1.831a.252.252,0,0,0-.253-.252h-2.682Zm0-11.686h2.682a.25.25,0,0,0,.253-.252v-1.831a.252.252,0,0,0-.253-.252h-2.682Zm0-11.685h2.682a.25.25,0,0,0,.253-.252v-1.83a.252.252,0,0,0-.253-.253h-2.682Zm14.007,29.8a3.284,3.284,0,0,1-3.286-3.275v-20.328a3.282,3.282,0,0,1,3.286-3.272h24.757a1.1,1.1,0,0,1,.777.319l6.555,6.534a1.1,1.1,0,0,1,.32.775v15.972a3.283,3.283,0,0,1-3.284,3.275Zm-1.087-23.6v20.328a1.088,1.088,0,0,0,1.087,1.084h29.125a1.086,1.086,0,0,0,1.085-1.084V11427.2l-5.908-5.89h-24.3A1.086,1.086,0,0,0-5660.96,11422.387Zm27.672-14.3a1.1,1.1,0,0,1,1.1-1.087,1.09,1.09,0,0,1,1.089,1.087,1.091,1.091,0,0,1-1.089,1.091A1.1,1.1,0,0,1-5633.288,11408.087Z" transform="translate(5676.501 -11406.5)"/>
</svg>
