<svg xmlns="http://www.w3.org/2000/svg" xmlns:xlink="http://www.w3.org/1999/xlink" width="65.732" height="66" viewBox="0 0 65.732 66">
  <defs>
    <style>
      .cls-1 {
        fill: url(#linear-gradient);
      }
    </style>
    <linearGradient id="linear-gradient" x1="0.5" x2="0.5" y2="1" gradientUnits="objectBoundingBox">
      <stop offset="0" stop-color="#112436"/>
      <stop offset="1" stop-color="#235684"/>
    </linearGradient>
  </defs>
  <g id="Gruppe_9011" data-name="Gruppe 9011" transform="translate(-1.04 0)">
    <g id="Gruppe_7768" data-name="Gruppe 7768" transform="translate(1.041)">
      <path id="Vereinigungsmenge_47" data-name="Vereinigungsmenge 47" class="cls-1" d="M-2827.334,11446.335A32.785,32.785,0,0,1-2837,11423a32.805,32.805,0,0,1,2.47-12.55,10.735,10.735,0,0,1-1.369-5.256c0-2.486,1.7-5.767,5.052-9.749a59.263,59.263,0,0,1,4.868-5.109,1.289,1.289,0,0,1,1.737,0c.086.078,1.866,1.705,3.9,3.988A32.96,32.96,0,0,1-2804,11390a33,33,0,0,1,32.437,26.894,1.287,1.287,0,0,1-1.029,1.5,1.18,1.18,0,0,1-.239.022,1.285,1.285,0,0,1-1.265-1.052,30.42,30.42,0,0,0-29.9-24.792,30.37,30.37,0,0,0-14.649,3.755c2.869,3.585,4.324,6.563,4.324,8.863a10.8,10.8,0,0,1-10.787,10.785,10.745,10.745,0,0,1-7.582-3.12,30.3,30.3,0,0,0-1.728,10.141,30.457,30.457,0,0,0,30.421,30.421,30.413,30.413,0,0,0,29.909-24.82,1.285,1.285,0,0,1,1.5-1.032,1.289,1.289,0,0,1,1.032,1.5A32.99,32.99,0,0,1-2804,11456,32.781,32.781,0,0,1-2827.334,11446.335Zm-5.986-41.14a8.219,8.219,0,0,0,8.208,8.209,8.219,8.219,0,0,0,8.208-8.209c0-3.452-5.3-9.317-8.208-12.135C-2828.013,11395.881-2833.32,11401.749-2833.32,11405.2Zm19.617,36.721a1.288,1.288,0,0,1-1.288-1.288v-2.51a10.735,10.735,0,0,1,10.724-10.724,10.735,10.735,0,0,1,10.724,10.724v2.51a1.288,1.288,0,0,1-1.288,1.288Zm1.291-3.8v1.222h16.29v-1.222a8.155,8.155,0,0,0-8.145-8.147A8.155,8.155,0,0,0-2812.413,11438.118Zm14.925-22.049a1.288,1.288,0,0,1,1.288-1.288,1.29,1.29,0,0,1,1.291,1.288,6.52,6.52,0,0,0,6.515,6.515,1.29,1.29,0,0,1,1.288,1.291,1.288,1.288,0,0,1-1.288,1.288A9.1,9.1,0,0,1-2797.488,11416.069Zm-23.941,7.806a1.29,1.29,0,0,1,1.288-1.291,6.52,6.52,0,0,0,6.515-6.515,1.29,1.29,0,0,1,1.291-1.288,1.29,1.29,0,0,1,1.288,1.288,9.1,9.1,0,0,1-9.094,9.094A1.288,1.288,0,0,1-2821.429,11423.875Zm47.66-.439a1.3,1.3,0,0,1,.379-1.418,1.3,1.3,0,0,1,1.512-.112,1.3,1.3,0,0,1,.584,1.346,1.3,1.3,0,0,1-1.262,1.038A1.3,1.3,0,0,1-2773.769,11423.436Z" transform="translate(2837 -11390)"/>
    </g>
  </g>
</svg>
