<svg xmlns="http://www.w3.org/2000/svg" xmlns:xlink="http://www.w3.org/1999/xlink" width="66.001" height="59.778" viewBox="0 0 66.001 59.778">
  <defs>
    <style>
      .cls-1 {
        fill: url(#linear-gradient);
      }
    </style>
    <linearGradient id="linear-gradient" x1="0.5" x2="0.5" y2="1" gradientUnits="objectBoundingBox">
      <stop offset="0" stop-color="#112436"/>
      <stop offset="1" stop-color="#235684"/>
    </linearGradient>
  </defs>
  <g id="Gruppe_7954" data-name="Gruppe 7954" transform="translate(0 -0.001)">
    <path id="Vereinigungsmenge_26" data-name="Vereinigungsmenge 26" class="cls-1" d="M-5251.155,11442.058a26.571,26.571,0,0,1,1.9-9.889c.124-.318.259-.632.391-.936a10.494,10.494,0,0,0-6.87-5,1.285,1.285,0,0,1-1.071-1.188,30.4,30.4,0,0,1,1.76-10.813,32.517,32.517,0,0,1,5.21-9.592,33.958,33.958,0,0,1,6.9-6.552h-9.917l-4.937,4.943a1.313,1.313,0,0,1-1.824,0l-4.265-4.269a1.288,1.288,0,0,1,0-1.82l.494-.5h-4.326a1.289,1.289,0,0,1-1.29-1.289,1.289,1.289,0,0,1,1.29-1.287h7.438a1.3,1.3,0,0,1,1.192.8,1.285,1.285,0,0,1-.284,1.4l-1.781,1.783,2.438,2.441,4.412-4.408a1.28,1.28,0,0,1,.907-.377h49.1a1.291,1.291,0,0,1,1.289,1.29,1.291,1.291,0,0,1-1.289,1.289h-24.975a34.068,34.068,0,0,1,6.985,6.531,32.494,32.494,0,0,1,5.293,9.593,29.944,29.944,0,0,1,1.789,10.836,1.288,1.288,0,0,1-1.071,1.186,10.466,10.466,0,0,0-6.87,5,26.536,26.536,0,0,1,2.292,10.822,1.3,1.3,0,0,1-2.123.979l-6.057-5.146a12.807,12.807,0,0,1-6.979,1.944,12.761,12.761,0,0,1-6.976-1.944l-6.054,5.146a1.23,1.23,0,0,1-.81.3A1.3,1.3,0,0,1-5251.155,11442.058Zm23.025-6.792,4.532,3.851a24.112,24.112,0,0,0-1.941-6.941,31.9,31.9,0,0,1-10.463-11.511,31.776,31.776,0,0,1-10.457,11.511c-.135.308-.27.623-.4.948a24.33,24.33,0,0,0-1.542,5.993l4.535-3.851a1.279,1.279,0,0,1,1.714.043,9.448,9.448,0,0,0,6.149,1.947,9.619,9.619,0,0,0,6.152-1.95,1.307,1.307,0,0,1,.885-.345A1.292,1.292,0,0,1-5228.13,11435.266Zm-17.261-15.5a69.969,69.969,0,0,0-.729,8.993,29.077,29.077,0,0,0,8.714-11.084,30.934,30.934,0,0,1-2.358-10.985v-4.891A56.594,56.594,0,0,0-5245.391,11419.762Zm8.206-13.067c0,8.146,4.549,17.227,11.189,21.965.025.023.051.044.077.063a74.951,74.951,0,0,0-.864-9.136c-.934-5.9-3.036-14.357-7.777-21.5h-2.625Zm12.958,12.551a78.4,78.4,0,0,1,.838,8.107,12.231,12.231,0,0,1,5.629-3.429,29.779,29.779,0,0,0-1.695-8.97,29.8,29.8,0,0,0-4.882-8.779,31.3,31.3,0,0,0-5.7-5.469A62.022,62.022,0,0,1-5224.227,11419.245Zm-23.579-13.01a29.87,29.87,0,0,0-4.8,8.831,29.846,29.846,0,0,0-1.631,8.857,12.165,12.165,0,0,1,5.572,3.369,72.72,72.72,0,0,1,.721-7.844,59.222,59.222,0,0,1,5.864-18.792A31.189,31.189,0,0,0-5247.806,11406.235Zm14.512,27.048a1.289,1.289,0,0,1-1.29-1.289,1.29,1.29,0,0,1,1.29-1.29h2.214a1.29,1.29,0,0,1,1.29,1.29,1.289,1.289,0,0,1-1.29,1.289Zm-7.668,0a1.289,1.289,0,0,1-1.29-1.289,1.29,1.29,0,0,1,1.29-1.29h2.031a1.29,1.29,0,0,1,1.29,1.29,1.289,1.289,0,0,1-1.29,1.289Zm25.323-40.26a1.285,1.285,0,0,1-1.187-.789,1.291,1.291,0,0,1,.264-1.4l2.461-2.511-1.824-1.694-6.261,6.037a1.3,1.3,0,0,1-.9.361h-13.254a6.231,6.231,0,0,1-4.435-1.835,3.664,3.664,0,0,0-2.6-1.083h-4.868a1.287,1.287,0,0,1-1.29-1.289,1.288,1.288,0,0,1,1.29-1.29h4.868a6.2,6.2,0,0,1,4.426,1.839,3.677,3.677,0,0,0,2.614,1.079h12.731l6.775-6.524a1.287,1.287,0,0,1,1.77-.015l3.685,3.429a1.273,1.273,0,0,1,.414.914,1.3,1.3,0,0,1-.371.933l-1.241,1.264h8.286a1.29,1.29,0,0,1,1.287,1.29,1.289,1.289,0,0,1-1.287,1.289Zm-38.164-2.9a1.254,1.254,0,0,1-.692-.207,1.3,1.3,0,0,1-.482-1.536,1.3,1.3,0,0,1,1.264-.824,1.3,1.3,0,0,1,1.177.945,1.3,1.3,0,0,1-1.264,1.622Zm-13.9-.015a1.289,1.289,0,0,1-1.29-1.289,1.29,1.29,0,0,1,1.29-1.29h8.119a1.288,1.288,0,0,1,1.29,1.29,1.287,1.287,0,0,1-1.29,1.289Z" transform="translate(5269 -11383.56)"/>
  </g>
</svg>
