<svg xmlns="http://www.w3.org/2000/svg" xmlns:xlink="http://www.w3.org/1999/xlink" width="58.768" height="67.001" viewBox="0 0 58.768 67.001">
  <defs>
    <style>
      .cls-1 {
        stroke: rgba(0,0,0,0);
        stroke-miterlimit: 10;
        fill: url(#linear-gradient);
      }
    </style>
    <linearGradient id="linear-gradient" x1="0.5" x2="0.5" y2="1" gradientUnits="objectBoundingBox">
      <stop offset="0" stop-color="#112436"/>
      <stop offset="1" stop-color="#235684"/>
    </linearGradient>
  </defs>
  <path id="Vereinigungsmenge_23" data-name="Vereinigungsmenge 23" class="cls-1" d="M-5960.476,11472.905l-10.6-4.327a4.561,4.561,0,0,1-4.552,4.423h-13.809a4.563,4.563,0,0,1-4.558-4.559v-13.81a4.564,4.564,0,0,1,4.558-4.558h5.7v-11.825a1.289,1.289,0,0,1,1.29-1.29h3.1v-10.6a19.387,19.387,0,0,1,19.364-19.364,19.387,19.387,0,0,1,19.364,19.364v6a1.292,1.292,0,0,1-1.29,1.29h-6.334a1.29,1.29,0,0,1-1.29-1.29v-6c0-6.168-4.2-10.312-10.449-10.312s-10.449,4.144-10.449,10.312v10.6h32.919a1.289,1.289,0,0,1,1.287,1.29v6.553a1.286,1.286,0,0,1-1.287,1.287,1.287,1.287,0,0,1-1.29-1.287v-5.266h-32.908l-.009,0h-6.337s-.006,0-.008,0h-3.1v10.538h5.534a4.531,4.531,0,0,1,3.225,1.336,4.523,4.523,0,0,1,1.235,2.28.125.125,0,0,1,.005.029c.009.046.018.092.026.141.005.029.011.061.014.09a.5.5,0,0,1,.009.065,4.349,4.349,0,0,1,.043.616v11.161l11.088,4.523,21.181-8.645v-5.525a1.287,1.287,0,0,1,1.287-1.29,1.288,1.288,0,0,1,1.29,1.29v6.393a1.291,1.291,0,0,1-.8,1.194l-22.47,9.171a1.285,1.285,0,0,1-.487.1A1.292,1.292,0,0,1-5960.476,11472.905Zm-30.947-18.272v13.81a1.982,1.982,0,0,0,1.981,1.979h13.806a1.982,1.982,0,0,0,1.981-1.979v-1.762c0-.009,0-.015,0-.021v-12.027a2.168,2.168,0,0,0-.032-.362c0-.009,0-.018-.006-.026-.006-.034-.018-.068-.023-.1l-.026-.095c-.006-.015-.012-.032-.018-.049-.014-.046-.032-.09-.049-.136,0,0,0,0,0-.006a1.987,1.987,0,0,0-1.609-1.191s-.006,0-.012,0c-.066-.006-.132-.009-.2-.009h-13.806A1.982,1.982,0,0,0-5991.423,11454.633Zm14.65-28.269v10.6h3.758v-10.6c0-7.591,5.355-12.892,13.026-12.892s13.026,5.3,13.026,12.892v4.71h3.757l0-4.71a16.8,16.8,0,0,0-16.787-16.787A16.8,16.8,0,0,0-5976.773,11426.364Zm-8.612,39.53-2.787-2.787a1.288,1.288,0,0,1,0-1.823,1.288,1.288,0,0,1,1.823,0l1.875,1.875,5.721-5.719a1.288,1.288,0,0,1,1.823,0,1.287,1.287,0,0,1,0,1.822l-6.631,6.632a1.278,1.278,0,0,1-.913.377A1.278,1.278,0,0,1-5985.385,11465.895Zm20.47-5.822a4.757,4.757,0,0,1,0-3.161l1.439-4.1a5.354,5.354,0,0,1-.435-.44,5.206,5.206,0,0,1,.509-7.334,5.2,5.2,0,0,1,7.334.507,5.163,5.163,0,0,1,1.264,3.772,5.155,5.155,0,0,1-1.7,3.5l1.44,4.1a4.745,4.745,0,0,1-.245,3.731,5.086,5.086,0,0,1-3.075,2.571,5.394,5.394,0,0,1-1.6.241A5.2,5.2,0,0,1-5964.916,11460.072Zm3.208-13.09a2.621,2.621,0,0,0-.256,3.7,2.79,2.79,0,0,0,.245.248,2.456,2.456,0,0,1,.7,2.663l-1.466,4.178a2.174,2.174,0,0,0,0,1.448,2.675,2.675,0,0,0,3.34,1.538,2.532,2.532,0,0,0,1.538-1.27,2.175,2.175,0,0,0,.115-1.717l-1.466-4.175a2.435,2.435,0,0,1,.68-2.649l.009-.008a2.6,2.6,0,0,0,.9-1.8,2.591,2.591,0,0,0-.639-1.9,2.61,2.61,0,0,0-1.978-.9A2.6,2.6,0,0,0-5961.708,11446.982Zm23.936,4.578a1.356,1.356,0,0,1-.242-.071,1.354,1.354,0,0,1-.222-.121,1.309,1.309,0,0,1-.2-.158,1.472,1.472,0,0,1-.161-.2,1.2,1.2,0,0,1-.118-.225,1.161,1.161,0,0,1-.072-.239,1.229,1.229,0,0,1-.026-.253,1.208,1.208,0,0,1,.026-.25,1.135,1.135,0,0,1,.072-.242,1.268,1.268,0,0,1,.118-.222,1.306,1.306,0,0,1,.161-.2,1.327,1.327,0,0,1,.2-.161,1.594,1.594,0,0,1,.222-.118,1.158,1.158,0,0,1,.242-.074,1.325,1.325,0,0,1,.5,0,1.154,1.154,0,0,1,.242.074,1.32,1.32,0,0,1,.222.118,1.327,1.327,0,0,1,.2.161,1.15,1.15,0,0,1,.161.2,1.268,1.268,0,0,1,.118.222,1.34,1.34,0,0,1,.075.242,1.443,1.443,0,0,1,.023.25,1.468,1.468,0,0,1-.023.253,1.385,1.385,0,0,1-.075.239,1.2,1.2,0,0,1-.118.225,1.472,1.472,0,0,1-.161.2,1.476,1.476,0,0,1-.2.158,1.15,1.15,0,0,1-.222.121,1.35,1.35,0,0,1-.242.071,1.218,1.218,0,0,1-.251.026A1.219,1.219,0,0,1-5937.772,11451.561Z" transform="translate(5994.5 -11406.5)"/>
</svg>
