<svg xmlns="http://www.w3.org/2000/svg" xmlns:xlink="http://www.w3.org/1999/xlink" width="65.978" height="66.002" viewBox="0 0 65.978 66.002">
  <defs>
    <style>
      .cls-1 {
        fill: url(#linear-gradient);
      }
    </style>
    <linearGradient id="linear-gradient" x1="0.5" x2="0.5" y2="1" gradientUnits="objectBoundingBox">
      <stop offset="0" stop-color="#112436"/>
      <stop offset="1" stop-color="#235684"/>
    </linearGradient>
  </defs>
  <g id="Gruppe_9031" data-name="Gruppe 9031" transform="translate(-155.232 -219.68)">
    <path id="Vereinigungsmenge_34" data-name="Vereinigungsmenge 34" class="cls-1" d="M-4338.494,11675.681a1.417,1.417,0,0,1-1.315-.894l-.909-2.271a7.915,7.915,0,0,1,.964-7.646,5.083,5.083,0,0,0,.445-5.31c-1.254-2.265-1.937-4.321-1.208-6.979l.8-2.868a14.044,14.044,0,0,1-5.069-1.308,14.794,14.794,0,0,1-9.62,6.84,11.231,11.231,0,0,1-.809,3.9,7.281,7.281,0,0,0,.258,5.389,10.108,10.108,0,0,1,.478,7.121l-.911,3.015a1.414,1.414,0,0,1-1.357,1.008,1.421,1.421,0,0,1-1.356-1.825c.855-2.912,1.94-5.131.568-8.146a10.091,10.091,0,0,1-.349-7.514,8.827,8.827,0,0,0,.636-2.766c-8.881-.448-14.712-10.142-14.513-18.938-.2-10.353,7.414-17.546,17.247-16.3,5.541-14.012,25.933-14.012,31.474,0,9.833-1.245,17.446,5.945,17.247,16.3.2,8.794-5.635,18.493-14.513,18.938a8.9,8.9,0,0,0,.633,2.766,10.077,10.077,0,0,1-.346,7.514c-1.375,3.021-.284,5.239.568,8.146a1.423,1.423,0,0,1-1.356,1.825,1.414,1.414,0,0,1-1.357-1.008l-.911-3.018a10.119,10.119,0,0,1,.475-7.118,7.253,7.253,0,0,0,.258-5.389,11.243,11.243,0,0,1-.809-3.9,14.8,14.8,0,0,1-9.617-6.843,14.151,14.151,0,0,1-3.973,1.193l-1.041,3.738c-.492,1.768-.012,3.115.994,4.92a7.917,7.917,0,0,1-.674,8.287,5.09,5.09,0,0,0-.622,4.92l.909,2.271a1.428,1.428,0,0,1-1.292,1.946Zm16.3-52.726a23.094,23.094,0,0,1,.545,5.33c.158,7.088-3.138,14.709-8.682,18.683,2.338,3.558,5.764,5.644,9.362,5.644,15.492-.854,17.283-29.733.3-29.73C-4321.157,11622.881-4321.667,11622.905-4322.19,11622.955Zm-34.4,29.656c3.6,0,7.024-2.086,9.362-5.644-5.544-3.974-8.84-11.592-8.682-18.683a23.094,23.094,0,0,1,.545-5.33c-.525-.05-1.032-.074-1.525-.074C-4373.881,11622.882-4372.079,11651.763-4356.594,11652.611Zm3.517-24.326c.794,24.713,27.8,24.707,28.6,0,0-9.562-5.611-15.741-14.3-15.741S-4353.077,11618.724-4353.077,11628.285Zm14.3,7.229-4.337,1.69a1.414,1.414,0,0,1-1.348-.173,1.415,1.415,0,0,1-.58-1.228l.267-4.647-2.948-3.6a1.417,1.417,0,0,1-.252-1.334,1.42,1.42,0,0,1,.987-.935l4.5-1.181,2.514-3.918a1.423,1.423,0,0,1,1.192-.65,1.419,1.419,0,0,1,1.192.65l2.517,3.918,4.5,1.181a1.414,1.414,0,0,1,.987.935,1.416,1.416,0,0,1-.249,1.334l-2.948,3.6.267,4.647a1.424,1.424,0,0,1-1.415,1.5c0,.007-.016.01-.034.01C-4334.39,11637.311-4338.559,11635.567-4338.781,11635.514Zm3.311-1.752-.173-3a1.415,1.415,0,0,1,.319-.979l1.9-2.32-2.9-.763a1.419,1.419,0,0,1-.832-.606l-1.624-2.522-1.621,2.522a1.428,1.428,0,0,1-.832.606l-2.9.763,1.9,2.32a1.429,1.429,0,0,1,.319.979l-.173,3a26.007,26.007,0,0,1,3.308-1.185.206.206,0,0,1,.038,0A31.3,31.3,0,0,1-4335.47,11633.762Z" transform="translate(4527 -11390)"/>
  </g>
</svg>
