<svg xmlns="http://www.w3.org/2000/svg" xmlns:xlink="http://www.w3.org/1999/xlink" width="71.592" height="66" viewBox="0 0 71.592 66">
  <defs>
    <style>
      .cls-1 {
        fill: url(#linear-gradient);
      }
    </style>
    <linearGradient id="linear-gradient" x1="0.5" x2="0.5" y2="1" gradientUnits="objectBoundingBox">
      <stop offset="0" stop-color="#112436"/>
      <stop offset="1" stop-color="#235684"/>
    </linearGradient>
  </defs>
  <g id="gift_1_" data-name="gift(1)" transform="translate(0 -0.001)">
    <path id="Vereinigungsmenge_33" data-name="Vereinigungsmenge 33" class="cls-1" d="M-4587.756,11456a1.4,1.4,0,0,1-1.4-1.4,1.4,1.4,0,0,1,1.4-1.4h11.736a6.938,6.938,0,0,1-1.4-4.2,6.8,6.8,0,0,1,.052-.839h-20.252a6.706,6.706,0,0,1,.052.839,7,7,0,0,1-6.992,6.992H-4628.6a1.4,1.4,0,0,1-1.4-1.4,1.4,1.4,0,0,1,1.4-1.4h7.263a6.973,6.973,0,0,1-1.4-4.2,6.706,6.706,0,0,1,.052-.839h-4.8a1.4,1.4,0,0,1-1.4-1.4v-21.813a1.4,1.4,0,0,1,1.4-1.4,1.4,1.4,0,0,1,1.4,1.4v20.413h4.364a7,7,0,0,1,5.972-3.355,6.987,6.987,0,0,1,5.592,2.8c0-.006.008-.009.011-.015v-29.633H-4628.6a1.4,1.4,0,0,1-1.4-1.4v-11.187a1.4,1.4,0,0,1,1.4-1.4h12.029a6.955,6.955,0,0,1-1.4-4.2,7,7,0,0,1,6.989-6.989,6.987,6.987,0,0,1,5.595,2.8,6.983,6.983,0,0,1,5.592-2.8,7,7,0,0,1,6.992,6.989,6.958,6.958,0,0,1-1.4,4.2h12.029a1.4,1.4,0,0,1,1.4,1.4v11.188a1.4,1.4,0,0,1-1.122,1.368v3.4h10.4a1.4,1.4,0,0,1,.989.411l11.7,11.728a1.4,1.4,0,0,1,.409.989v15.1a1.4,1.4,0,0,1-1.4,1.4h-3.689a6.706,6.706,0,0,1,.052.839,7,7,0,0,1-6.989,6.992Zm13.13-6.992a4.2,4.2,0,0,0,4.195,4.2,4.2,4.2,0,0,0,4.195-4.2,4.2,4.2,0,0,0-4.195-4.194A4.2,4.2,0,0,0-4574.626,11449.009Zm-34.133,0a4.2,4.2,0,0,0,4.195,4.2,4.2,4.2,0,0,0,4.2-4.2,4.2,4.2,0,0,0-4.2-4.194A4.2,4.2,0,0,0-4608.759,11449.009Zm-1.4,4.2h.006s0,0,0-.006S-4610.159,11453.2-4610.159,11453.2Zm-9.784-4.2a4.2,4.2,0,0,0,4.195,4.2,4.2,4.2,0,0,0,4.195-4.2,4.2,4.2,0,0,0-4.195-4.194A4.2,4.2,0,0,0-4619.943,11449.009Zm55.48-3.637h3.257v-7.271h-12.863a4.2,4.2,0,0,1-4.195-4.194v-12.566h-3.637v24.032h5.5a7,7,0,0,1,5.971-3.355A6.992,6.992,0,0,1-4564.462,11445.372Zm-36.174-2.145a7.035,7.035,0,0,1,2.044,2.145h13.9v-30.2h-15.942Zm-6.71-.63a6.917,6.917,0,0,1,2.783-.581,6.986,6.986,0,0,1,1.133.093v-38.127h-3.916Zm36.654-7.294h9.488v-3.057l-3.211-3.22Zm-4.772-4.267v2.869a1.4,1.4,0,0,0,.909,1.309l8.165-8.166-2.539-2.547Zm0-3.956,4.56-4.56-1.179-1.182h-3.381Zm-25.171-14.709h17.061v-8.39h-17.061Zm-26.565,0h17.058v-8.39H-4627.2Zm27.6-15.577a1.4,1.4,0,0,1,0,1.978l-2.415,2.415h2.217a4.2,4.2,0,0,0,4.194-4.2,4.2,4.2,0,0,0-4.194-4.194,4.2,4.2,0,0,0-4.195,4.194v2.22l2.415-2.415a1.393,1.393,0,0,1,.989-.41A1.394,1.394,0,0,1-4599.6,11396.795Zm-15.58.2a4.2,4.2,0,0,0,4.195,4.2h2.217l-2.413-2.415a1.4,1.4,0,0,1,0-1.978,1.4,1.4,0,0,1,1.978,0l2.413,2.415v-2.22a4.2,4.2,0,0,0-4.195-4.194A4.2,4.2,0,0,0-4615.179,11396.99Zm20.841,58.6a1.4,1.4,0,0,1-.411-.988,1.407,1.407,0,0,1,.411-.989,1.412,1.412,0,0,1,.989-.408,1.416,1.416,0,0,1,.989.408,1.417,1.417,0,0,1,.408.989,1.411,1.411,0,0,1-.408.988,1.418,1.418,0,0,1-.989.411A1.414,1.414,0,0,1-4594.337,11455.59Zm-34.136-35.236a1.417,1.417,0,0,1-.408-.989,1.417,1.417,0,0,1,.408-.989,1.422,1.422,0,0,1,.989-.408,1.411,1.411,0,0,1,.989.408,1.407,1.407,0,0,1,.411.989,1.407,1.407,0,0,1-.411.989,1.411,1.411,0,0,1-.989.408A1.422,1.422,0,0,1-4628.473,11420.354Z" transform="translate(4630 -11390)"/>
  </g>
</svg>
