<svg xmlns="http://www.w3.org/2000/svg" xmlns:xlink="http://www.w3.org/1999/xlink" width="66.003" height="66" viewBox="0 0 66.003 66">
  <defs>
    <style>
      .cls-1 {
        fill: url(#linear-gradient);
      }
    </style>
    <linearGradient id="linear-gradient" x1="0.5" x2="0.5" y2="1" gradientUnits="objectBoundingBox">
      <stop offset="0" stop-color="#112436"/>
      <stop offset="1" stop-color="#235684"/>
    </linearGradient>
  </defs>
  <g id="basket" transform="translate(-0.001 -0.012)">
    <path id="Vereinigungsmenge_39" data-name="Vereinigungsmenge 39" class="cls-1" d="M-3985.824,11456.01a3.869,3.869,0,0,1-3.807-3.178l-4.612-26.12a3.876,3.876,0,0,1-2.757-3.706v-3.352a3.872,3.872,0,0,1,3.867-3.867h2.32a12.871,12.871,0,0,1,12.633-10.311,12.887,12.887,0,0,1,2.579.259v-4.125a3.872,3.872,0,0,1,3.867-3.87H-3964a3.872,3.872,0,0,1,3.867,3.87v6.132l16.6-16.6a3.874,3.874,0,0,1,5.469,0,3.873,3.873,0,0,1,0,5.469l-8.867,8.869h3.553a3.87,3.87,0,0,1,3.867,3.867v6.443h4.64a3.874,3.874,0,0,1,3.87,3.867v3.352a3.875,3.875,0,0,1-2.76,3.706l-4.612,26.114a3.865,3.865,0,0,1-3.8,3.184Zm-1.268-3.632a1.288,1.288,0,0,0,1.268,1.053h43.652a1.291,1.291,0,0,0,1.268-1.059l4.5-25.5h-22.44a1.291,1.291,0,0,1-1.291-1.291,1.29,1.29,0,0,1,1.291-1.288h23.975a1.292,1.292,0,0,0,1.291-1.291v-3.352a1.294,1.294,0,0,0-1.291-1.288h-24.953l-1.446,1.446a3.864,3.864,0,0,1-5.469,0,3.871,3.871,0,0,1-.914-1.446h-25.485a1.291,1.291,0,0,0-1.288,1.288v3.352a1.29,1.29,0,0,0,1.288,1.291h23.978a1.29,1.29,0,0,1,1.288,1.288,1.29,1.29,0,0,1-1.288,1.291h-22.44Zm45.386-59.416-23.2,23.2a1.292,1.292,0,0,0,0,1.825,1.287,1.287,0,0,0,1.823,0l23.2-23.205a1.289,1.289,0,0,0,0-1.822,1.293,1.293,0,0,0-.911-.377A1.288,1.288,0,0,0-3941.706,11392.962Zm-15.537,22.825h15.16v-6.443a1.3,1.3,0,0,0-1.291-1.291h-6.133Zm-30.924,0h19.973a10.32,10.32,0,0,0-9.985-7.734A10.293,10.293,0,0,0-3988.167,11415.787Zm15.143-14.177v4.939a12.986,12.986,0,0,1,6.88,7.2l3.433-3.433v-8.711a1.29,1.29,0,0,0-1.288-1.291h-7.734A1.292,1.292,0,0,0-3973.024,11401.61Zm23.2,45.374v-13.665a1.29,1.29,0,0,1,1.288-1.288,1.29,1.29,0,0,1,1.291,1.288v13.665a1.289,1.289,0,0,1-1.291,1.288A1.288,1.288,0,0,1-3949.819,11446.984Zm-7.734,0v-13.665a1.29,1.29,0,0,1,1.288-1.288,1.29,1.29,0,0,1,1.291,1.288v13.665a1.289,1.289,0,0,1-1.291,1.288A1.288,1.288,0,0,1-3957.553,11446.984Zm-7.734,0v-13.665a1.288,1.288,0,0,1,1.288-1.288,1.29,1.29,0,0,1,1.291,1.288v13.665a1.288,1.288,0,0,1-1.291,1.288A1.286,1.286,0,0,1-3965.287,11446.984Zm-7.734,0v-13.665a1.288,1.288,0,0,1,1.288-1.288,1.29,1.29,0,0,1,1.288,1.288v13.665a1.288,1.288,0,0,1-1.288,1.288A1.286,1.286,0,0,1-3973.021,11446.984Zm-7.737,0v-13.665a1.29,1.29,0,0,1,1.291-1.288,1.29,1.29,0,0,1,1.288,1.288v13.665a1.288,1.288,0,0,1-1.288,1.288A1.288,1.288,0,0,1-3980.758,11446.984Zm15.471-21.4a1.29,1.29,0,0,1,1.288-1.291,1.29,1.29,0,0,1,1.288,1.291,1.29,1.29,0,0,1-1.288,1.288A1.29,1.29,0,0,1-3965.287,11425.585Z" transform="translate(3997 -11389.998)"/>
  </g>
</svg>
