<svg id="Gruppe_9040" data-name="Gruppe 9040" xmlns="http://www.w3.org/2000/svg" xmlns:xlink="http://www.w3.org/1999/xlink" width="66" height="66" viewBox="0 0 66 66">
  <defs>
    <style>
      .cls-1, .cls-3 {
        fill: url(#linear-gradient);
      }

      .cls-2 {
        clip-path: url(#clip-path);
      }

      .cls-3 {
        stroke: rgba(0,0,0,0);
        stroke-miterlimit: 10;
      }
    </style>
    <linearGradient id="linear-gradient" x1="0.5" x2="0.5" y2="1" gradientUnits="objectBoundingBox">
      <stop offset="0" stop-color="#112436"/>
      <stop offset="1" stop-color="#235684"/>
    </linearGradient>
    <clipPath id="clip-path">
      <rect id="Rechteck_3024" data-name="Rechteck 3024" class="cls-1" width="66" height="66"/>
    </clipPath>
  </defs>
  <g id="Gruppe_8962" data-name="Gruppe 8962" class="cls-2">
    <path id="Vereinigungsmenge_37" data-name="Vereinigungsmenge 37" class="cls-3" d="M-4064.2,11456a1.29,1.29,0,0,1-1.291-1.291,1.29,1.29,0,0,1,1.291-1.288h24.573a17.765,17.765,0,0,0-16.885-16.431c0,.012.009.023.011.034a1.29,1.29,0,0,1-.176,1.078l-6.095,8.965a1.3,1.3,0,0,1-.946.558c-.04,0-.08.006-.121.006a1.285,1.285,0,0,1-.911-.377l-5.264-5.264-5.261,5.264a1.3,1.3,0,0,1-.911.377c-.04,0-.08,0-.121-.006a1.3,1.3,0,0,1-.946-.558l-6.1-8.965a1.28,1.28,0,0,1-.173-1.078c0-.011.006-.022.009-.031a17.763,17.763,0,0,0-16.863,16.428h24.576a1.29,1.29,0,0,1,1.288,1.288,1.29,1.29,0,0,1-1.288,1.291h-25.91a1.291,1.291,0,0,1-1.291-1.291,20.339,20.339,0,0,1,20.315-20.314h3.933l2.079-.926v-2.484a13.953,13.953,0,0,1-6.311-7.266h-1.762a7.622,7.622,0,0,1-7.613-7.613,7.611,7.611,0,0,1,3.565-6.442v-.869A18.816,18.816,0,0,1-4070,11390a18.816,18.816,0,0,1,18.8,18.794v.869a7.609,7.609,0,0,1,3.562,6.442,7.622,7.622,0,0,1-7.613,7.613h-1.762a13.959,13.959,0,0,1-6.308,7.266v2.5l2.053.915h3.956A20.338,20.338,0,0,1-4037,11454.71a1.29,1.29,0,0,1-1.288,1.291Zm-3.991-15.833,4.163,4.163,4.353-6.4-2.372-1.056-1.969-.877Zm-12.161-2.239,4.356,6.4,4.16-4.163-4.172-4.172Zm6.256-3.669,4.083,4.086,4.109-4.108v-2.153a13.891,13.891,0,0,1-4.1.615,13.868,13.868,0,0,1-4.094-.615Zm-7.2-21.8v6.365a11.312,11.312,0,0,0,11.3,11.3,11.3,11.3,0,0,0,9.5-5.189h-4.922a3.884,3.884,0,0,1-3.657,2.59h-1.725a3.882,3.882,0,0,1-3.878-3.878,3.884,3.884,0,0,1,3.878-3.879h1.725a3.884,3.884,0,0,1,3.657,2.591h6.156a11.243,11.243,0,0,0,.563-3.468v-6.228a17.475,17.475,0,0,1-8.079-3.079,18.142,18.142,0,0,1-10.353,3.2,18.311,18.311,0,0,1-4.16-.475Zm9.192,11.188a1.3,1.3,0,0,0,1.3,1.3h1.725a1.3,1.3,0,0,0,1.3-1.3,1.3,1.3,0,0,0-1.3-1.3h-1.725A1.3,1.3,0,0,0-4072.105,11423.646Zm15.98-10.575c0,.006,0,.012,0,.018v5.735c0,.023,0,.044,0,.066v2.251h.871a5.04,5.04,0,0,0,5.037-5.034,5.043,5.043,0,0,0-5.037-5.037h-.871Zm-33.656,3.036a5.038,5.038,0,0,0,5.034,5.034h.871v-10.071h-.871A5.041,5.041,0,0,0-4089.781,11416.106Zm8.516-7.1v.656a15.663,15.663,0,0,0,4.128.549,15.6,15.6,0,0,0,9.577-3.249,1.3,1.3,0,0,1,1.587.012,14.9,14.9,0,0,0,7.245,3.091c0-.034-.006-.069-.006-.106V11409a11.279,11.279,0,0,0-11.268-11.267A11.277,11.277,0,0,0-4081.265,11409Zm25.1-.509h.911a7.653,7.653,0,0,1,1.469.142,16.236,16.236,0,0,0-16.216-16.058,16.238,16.238,0,0,0-16.215,16.058,7.676,7.676,0,0,1,1.469-.142h.911a13.862,13.862,0,0,1,13.835-13.337A13.86,13.86,0,0,1-4056.166,11408.493Zm-13.961,47.5a.9.9,0,0,1-.124-.018,1.352,1.352,0,0,1-.241-.075,1.264,1.264,0,0,1-.224-.117c-.034-.023-.069-.049-.1-.075s-.066-.055-.095-.086a1.3,1.3,0,0,1-.377-.912c0-.04,0-.083.006-.126s.011-.083.02-.124a1.159,1.159,0,0,1,.072-.241,1.146,1.146,0,0,1,.121-.225c.023-.034.046-.068.072-.1s.057-.065.086-.095.063-.058.095-.086.066-.049.1-.072a1.109,1.109,0,0,1,.224-.12,1.142,1.142,0,0,1,.241-.072c.04-.009.083-.015.124-.021a1.368,1.368,0,0,1,.253,0c.043.006.083.012.127.021a1.206,1.206,0,0,1,.241.072,1.087,1.087,0,0,1,.221.12c.034.023.069.046.1.072s.063.058.092.086a.972.972,0,0,1,.086.095c.026.032.052.066.075.1a1.33,1.33,0,0,1,.118.225,1.4,1.4,0,0,1,.075.241.862.862,0,0,1,.017.124.943.943,0,0,1,.009.126.884.884,0,0,1-.009.127.9.9,0,0,1-.017.127,1.51,1.51,0,0,1-.075.241,1.3,1.3,0,0,1-.118.222c-.023.034-.049.068-.075.1a1.006,1.006,0,0,1-.086.095c-.029.031-.06.058-.092.086s-.069.052-.1.075a1.238,1.238,0,0,1-.221.117,1.445,1.445,0,0,1-.241.075.941.941,0,0,1-.127.018,1.056,1.056,0,0,1-.126.008A1.141,1.141,0,0,1-4070.127,11455.993Z" transform="translate(4103 -11390)"/>
  </g>
</svg>
