<svg xmlns="http://www.w3.org/2000/svg" xmlns:xlink="http://www.w3.org/1999/xlink" width="59.992" height="67.001" viewBox="0 0 59.992 67.001">
  <defs>
    <style>
      .cls-1 {
        stroke: rgba(0,0,0,0);
        stroke-miterlimit: 10;
        fill: url(#linear-gradient);
      }
    </style>
    <linearGradient id="linear-gradient" x1="0.5" x2="0.5" y2="1" gradientUnits="objectBoundingBox">
      <stop offset="0" stop-color="#112436"/>
      <stop offset="1" stop-color="#235684"/>
    </linearGradient>
  </defs>
  <path id="Vereinigungsmenge_49" data-name="Vereinigungsmenge 49" class="cls-1" d="M-5768.711,11473a1.293,1.293,0,0,1-1.293-1.293v-18.258l-1.828-5.961a34.889,34.889,0,0,1-1.535-10.244v-10.965h-4.02a1.292,1.292,0,0,1-1.034-.519l-3.32-4.42a1.292,1.292,0,0,1,0-1.552l3.32-4.423a1.288,1.288,0,0,1,1.034-.515h3.438a1.289,1.289,0,0,1,1.29,1.29,1.29,1.29,0,0,1-1.29,1.292h-2.793l-2.352,3.13,2.352,3.133h28.673a1.291,1.291,0,0,1,1.2.826,10.956,10.956,0,0,0,3.968,5.054,10.916,10.916,0,0,0,6.28,1.97,10.994,10.994,0,0,0,10.981-10.982,10.994,10.994,0,0,0-10.981-10.981,10.937,10.937,0,0,0-6.28,1.97,11,11,0,0,0-3.968,5.056,1.291,1.291,0,0,1-1.2.826h-3.795a1.291,1.291,0,0,1-1.29-1.292,1.291,1.291,0,0,1,1.29-1.29h2.939a13.524,13.524,0,0,1,4.549-5.416,13.464,13.464,0,0,1,7.757-2.437,13.579,13.579,0,0,1,13.564,13.564,13.581,13.581,0,0,1-13.564,13.567,13.921,13.921,0,0,1-2.111-.164v3.162a34.9,34.9,0,0,1-1.6,10.469l-1.84,5.856-.018,18.256a1.292,1.292,0,0,1-1.293,1.29Zm-2.073-35.756a32.408,32.408,0,0,0,1.422,9.487l1.886,6.147a1.294,1.294,0,0,1,.055.377v17.161h22.649l0-2.583h-10.539a1.29,1.29,0,0,1-1.29-1.293,1.288,1.288,0,0,1,1.29-1.29h10.541l.012-12a1.249,1.249,0,0,1,.061-.386l1.9-6.047a32.281,32.281,0,0,0,1.486-9.694v-3.833a13.661,13.661,0,0,1-3.064-1.6,13.829,13.829,0,0,1-1.986-1.69l0,10.683a9.741,9.741,0,0,1-9.729,9.729,9.741,9.741,0,0,1-9.727-9.729v-14.408h-4.97Zm14.7,10.59a7.154,7.154,0,0,0,7.022-5.839,9.774,9.774,0,0,1-5.4-2.243,8.834,8.834,0,0,1-6.053,1.935,13.291,13.291,0,0,1-2.686-.359A7.155,7.155,0,0,0-5756.088,11447.835Zm2.488-10.746a10.328,10.328,0,0,0,1.742,1.337,6.25,6.25,0,0,0,2.8.984,7.154,7.154,0,0,0-7.028-5.865,7.157,7.157,0,0,0-6.867,5.177c1.3.36,5.131,1.12,7.463-1.569a1.3,1.3,0,0,1,.933-.446h.042A1.287,1.287,0,0,1-5753.6,11437.089Zm-9.631-2.991a9.7,9.7,0,0,1,7.144-3.136,9.7,9.7,0,0,1,7.144,3.133v-7.814h-14.287Zm.8,32.444a1.289,1.289,0,0,1,1.287-1.29,1.292,1.292,0,0,1,1.29,1.29,1.292,1.292,0,0,1-1.29,1.29A1.289,1.289,0,0,1-5762.429,11466.542Zm7.913-22.775a1.29,1.29,0,0,1,1.29-1.293,1.293,1.293,0,0,1,1.293,1.293,1.292,1.292,0,0,1-1.293,1.29A1.29,1.29,0,0,1-5754.516,11443.767Zm-5.771,0a1.293,1.293,0,0,1,1.293-1.293,1.293,1.293,0,0,1,1.29,1.293,1.292,1.292,0,0,1-1.29,1.29A1.292,1.292,0,0,1-5760.287,11443.767Zm21.688-23.2a4.858,4.858,0,0,1,4.854-4.852,4.858,4.858,0,0,1,4.852,4.852,4.858,4.858,0,0,1-4.852,4.854A4.859,4.859,0,0,1-5738.6,11420.564Zm2.583,0a2.275,2.275,0,0,0,2.272,2.272,2.273,2.273,0,0,0,2.269-2.272,2.27,2.27,0,0,0-2.269-2.269A2.272,2.272,0,0,0-5736.017,11420.564Zm-22.3-2.585v-4.587a1.288,1.288,0,0,1,1.29-1.29,1.29,1.29,0,0,1,1.292,1.29v4.587a1.292,1.292,0,0,1-1.292,1.29A1.29,1.29,0,0,1-5758.32,11417.979Zm-5.877,0v-4.587a1.288,1.288,0,0,1,1.29-1.29,1.291,1.291,0,0,1,1.293,1.29v4.587a1.293,1.293,0,0,1-1.293,1.29A1.29,1.29,0,0,1-5764.2,11417.979Zm-5.876,0v-4.587a1.29,1.29,0,0,1,1.29-1.29,1.29,1.29,0,0,1,1.293,1.29v4.587a1.292,1.292,0,0,1-1.293,1.29A1.292,1.292,0,0,1-5770.073,11417.979Z" transform="translate(5782.545 -11406.5)"/>
</svg>
