<svg xmlns="http://www.w3.org/2000/svg" xmlns:xlink="http://www.w3.org/1999/xlink" width="65.999" height="59.297" viewBox="0 0 65.999 59.297">
  <defs>
    <style>
      .cls-1 {
        fill: url(#linear-gradient);
      }
    </style>
    <linearGradient id="linear-gradient" x1="0.5" x2="0.5" y2="1" gradientUnits="objectBoundingBox">
      <stop offset="0" stop-color="#112436"/>
      <stop offset="1" stop-color="#235684"/>
    </linearGradient>
  </defs>
  <g id="store" transform="translate(0 -25.998)">
    <g id="Gruppe_7962" data-name="Gruppe 7962" transform="translate(0 25.998)">
      <g id="Gruppe_7961" data-name="Gruppe 7961">
        <path id="Vereinigungsmenge_40" data-name="Vereinigungsmenge 40" class="cls-1" d="M-3826.32,11446.3a1.29,1.29,0,0,1-1.29-1.29,1.288,1.288,0,0,1,1.29-1.287h.032a1.287,1.287,0,0,1,1.287,1.287,1.289,1.289,0,0,1-1.287,1.29Zm-6.311,0h-53.345a1.29,1.29,0,0,1-1.29-1.29,1.288,1.288,0,0,1,1.29-1.287h1.319v-27.086a7.642,7.642,0,0,1-6.343-7.521v-3.169a1.277,1.277,0,0,1,.141-.583l6.2-12.223v-4.85a1.289,1.289,0,0,1,1.287-1.289h50.739a1.29,1.29,0,0,1,1.29,1.289v4.847l6.2,12.226a1.275,1.275,0,0,1,.138.583v3.169a7.642,7.642,0,0,1-6.34,7.521v27.086h1.318a1.29,1.29,0,0,1,1.29,1.287,1.29,1.29,0,0,1-1.29,1.29Zm-15.469-25.782h10.313a1.29,1.29,0,0,1,1.29,1.29v21.915h2.577v-27.086a7.65,7.65,0,0,1-5.053-3.28,7.628,7.628,0,0,1-6.343,3.393,7.629,7.629,0,0,1-6.343-3.393,7.623,7.623,0,0,1-6.34,3.393,7.625,7.625,0,0,1-6.343-3.393,7.629,7.629,0,0,1-6.343,3.393,7.628,7.628,0,0,1-6.343-3.393,7.643,7.643,0,0,1-5.053,3.28v27.086h32.691v-2.579h-28.824a1.29,1.29,0,0,1-1.287-1.29V11421.8a1.289,1.289,0,0,1,1.287-1.29Zm1.29,19.336v3.869h7.733v-20.625h-7.733v9.022h1.29a1.289,1.289,0,0,1,1.287,1.29,1.287,1.287,0,0,1-1.287,1.287h-1.29Zm-30.114-4.186v2.9h27.534v-15.469h-6.825l-4.275,4.274a1.284,1.284,0,0,1-.91.376,1.284,1.284,0,0,1-.911-.376,1.291,1.291,0,0,1,0-1.824l2.45-2.45h-4.49Zm0-3.646,8.925-8.925h-8.925Zm39.183-26.451a1.273,1.273,0,0,1,.057.376v3.169a5.061,5.061,0,0,0,5.053,5.056,5.061,5.061,0,0,0,5.053-5.056v-2.861l-5.846-11.517h-7.615Zm-12.634.244c0,.043.006.089.006.132v3.169a5.061,5.061,0,0,0,5.053,5.056,5.061,5.061,0,0,0,5.053-5.056v-2.979l-3.47-11.4h-7.765Zm-12.677.2v3.105a5.061,5.061,0,0,0,5.053,5.056,5.061,5.061,0,0,0,5.053-5.056v-3.105l-1.146-11.272h-7.816Zm-12.686.127v2.979a5.061,5.061,0,0,0,5.053,5.056,5.061,5.061,0,0,0,5.053-5.056v-3.169c0-.043,0-.089.006-.132l1.126-11.077h-7.768Zm-12.686.117v2.861a5.061,5.061,0,0,0,5.053,5.056,5.063,5.063,0,0,0,5.056-5.056v-3.169a1.27,1.27,0,0,1,.055-.376l3.3-10.833h-7.615Zm6.343-14.1h48.16v-2.577h-48.16Zm-7.63,54.141a1.29,1.29,0,0,1-1.29-1.29,1.288,1.288,0,0,1,1.29-1.287h.029a1.288,1.288,0,0,1,1.29,1.287,1.29,1.29,0,0,1-1.29,1.29Zm24.757-16.291a1.289,1.289,0,0,1,.006-1.824l.02-.02a1.29,1.29,0,0,1,1.824,0,1.289,1.289,0,0,1-.006,1.824l-.023.021a1.282,1.282,0,0,1-.908.376A1.29,1.29,0,0,1-3864.954,11430.006Z" transform="translate(3891 -11387)"/>
      </g>
    </g>
  </g>
</svg>
