<svg xmlns="http://www.w3.org/2000/svg" xmlns:xlink="http://www.w3.org/1999/xlink" width="65.999" height="44.837" viewBox="0 0 65.999 44.837">
  <defs>
    <style>
      .cls-1 {
        fill: url(#linear-gradient);
      }
    </style>
    <linearGradient id="linear-gradient" x1="0.5" x2="0.5" y2="1" gradientUnits="objectBoundingBox">
      <stop offset="0" stop-color="#112436"/>
      <stop offset="1" stop-color="#235684"/>
    </linearGradient>
  </defs>
  <g id="sim" transform="translate(-0.001 0.001)">
    <path id="Vereinigungsmenge_29" data-name="Vereinigungsmenge 29" class="cls-1" d="M-5052.426,11423.836a4.579,4.579,0,0,1-4.573-4.573v-14.41a4.584,4.584,0,0,1,3.412-4.426,11.632,11.632,0,0,1,5.3-8.923c.158-1.382.694-3.529,1.872-4.516l8.019-6.717a5.4,5.4,0,0,1,3.449-1.253h25.817a1.3,1.3,0,0,1,1.3,1.3,1.3,1.3,0,0,1-1.3,1.3h-25.817a2.782,2.782,0,0,0-1.783.647l-8.019,6.715a3.281,3.281,0,0,0-.659,1.345,9.215,9.215,0,0,1,2.079-.235c5.358,0,9.771,4.573,10.264,10.4a4.584,4.584,0,0,1,3.208,4.366v7.719h33.483a2.783,2.783,0,0,0,2.781-2.778v-25.4a2.783,2.783,0,0,0-2.781-2.778h-2.577a1.3,1.3,0,0,1-1.3-1.3,1.3,1.3,0,0,1,1.3-1.3h2.577a5.378,5.378,0,0,1,5.373,5.373v25.4a5.378,5.378,0,0,1-5.373,5.373h-33.483v4.1a4.581,4.581,0,0,1-4.573,4.573Zm-1.981-4.573a1.981,1.981,0,0,0,1.981,1.979h18a1.981,1.981,0,0,0,1.979-1.979v-14.41a1.983,1.983,0,0,0-1.979-1.98h-18a1.983,1.983,0,0,0-1.981,1.98v1.867h3.759a1.3,1.3,0,0,1,1.3,1.3,1.3,1.3,0,0,1-1.3,1.3h-3.759v5.951h3.759a1.3,1.3,0,0,1,1.3,1.3,1.3,1.3,0,0,1-1.3,1.3h-3.759Zm17.242-18.982h1.471c-.545-4.295-3.762-7.6-7.635-7.6s-7.087,3.309-7.632,7.6h1.471c.519-3.486,3.085-6.145,6.161-6.145S-5037.684,11396.794-5037.165,11400.28Zm-9.693,0h7.062c-.43-2.047-1.85-3.553-3.532-3.553S-5046.428,11398.233-5046.858,11400.28Zm8.34,19.716a1.3,1.3,0,0,1-1.3-1.3,1.3,1.3,0,0,1,1.3-1.3h2.056v-1.385a1.3,1.3,0,0,1,1.3-1.3,1.3,1.3,0,0,1,1.3,1.3V11418a2,2,0,0,1-2,2Zm-5.972-3.437v-2.847a4.056,4.056,0,0,1-2.758-3.839,4.057,4.057,0,0,1,4.054-4.051,4.056,4.056,0,0,1,4.051,4.051,4.057,4.057,0,0,1-2.755,3.839v2.847a1.3,1.3,0,0,1-1.3,1.3A1.3,1.3,0,0,1-5044.49,11416.559Zm-.167-6.686a1.465,1.465,0,0,0,1.462,1.462,1.464,1.464,0,0,0,1.459-1.462,1.463,1.463,0,0,0-1.459-1.459A1.464,1.464,0,0,0-5044.657,11409.873Zm8.177,1.514-.017-.04a1.3,1.3,0,0,1,.72-1.686,1.294,1.294,0,0,1,1.686.717l.017.04a1.3,1.3,0,0,1-.719,1.686,1.25,1.25,0,0,1-.485.095A1.3,1.3,0,0,1-5036.48,11411.387Zm12.824-3.131a5.38,5.38,0,0,1-5.373-5.372V11391.1a5.38,5.38,0,0,1,5.373-5.372h20.582a5.378,5.378,0,0,1,5.373,5.372v11.784a5.378,5.378,0,0,1-5.373,5.372Zm17.927-2.592h2.655a2.783,2.783,0,0,0,2.781-2.78v-1.5h-5.436Zm-6.339,0h3.747v-4.283h-3.747Zm-6.3,0h3.713v-4.283h-3.713Zm-8.062-2.78a2.783,2.783,0,0,0,2.778,2.78h2.692V11395h-5.47Zm20.706-4.095h5.436V11395h-5.436Zm-6.339,0h3.747V11395h-3.747Zm-6.3,0h3.713V11395h-3.713Zm12.644-6.385h5.436v-1.3a2.783,2.783,0,0,0-2.781-2.777h-2.655Zm-6.339,0h3.747v-4.082h-3.747Zm-6.3,0h3.713v-4.082h-3.713Zm-8.062-1.3v1.3h5.47v-4.082h-2.692A2.782,2.782,0,0,0-5026.434,11391.1Zm21.2-10.28-.014-.038a1.3,1.3,0,0,1,.717-1.688,1.3,1.3,0,0,1,1.688.72l.015.037a1.3,1.3,0,0,1-.72,1.688,1.291,1.291,0,0,1-.482.095A1.3,1.3,0,0,1-5005.238,11380.819Z" transform="translate(5057 -11379)"/>
  </g>
</svg>
