<svg xmlns="http://www.w3.org/2000/svg" xmlns:xlink="http://www.w3.org/1999/xlink" width="66.003" height="66" viewBox="0 0 66.003 66">
  <defs>
    <style>
      .cls-1 {
        fill: url(#linear-gradient);
      }
    </style>
    <linearGradient id="linear-gradient" x1="0.5" x2="0.5" y2="1" gradientUnits="objectBoundingBox">
      <stop offset="0" stop-color="#112436"/>
      <stop offset="1" stop-color="#235684"/>
    </linearGradient>
  </defs>
  <g id="no-results" transform="translate(0.001 -0.002)">
    <path id="Vereinigungsmenge_31" data-name="Vereinigungsmenge 31" class="cls-1" d="M-4843.36,11454.36a5.616,5.616,0,0,1,0-7.935.135.135,0,0,0,.021-.021l17.086-16.371a25.646,25.646,0,0,1-4.307-14.254,25.635,25.635,0,0,1,1.36-8.267h-10a4.368,4.368,0,0,1-4.353-4.372,4.383,4.383,0,0,1,3.858-4.345,7.467,7.467,0,0,1,7.352-6.2,7.507,7.507,0,0,1,5.882,2.875c.155-.015.313-.021.472-.021a5.291,5.291,0,0,1,3.648,1.469,25.683,25.683,0,0,1,17.561-6.92A25.809,25.809,0,0,1-4779,11415.78a25.68,25.68,0,0,1-3.755,13.4,5.349,5.349,0,0,1,.664,1.443,4.2,4.2,0,0,1,3.091,4.042,4.194,4.194,0,0,1-4.192,4.189h-10.089a25.488,25.488,0,0,1-11.5,2.7,25.624,25.624,0,0,1-14.252-4.307l-16.374,17.087a.109.109,0,0,0-.02.02,5.6,5.6,0,0,1-3.968,1.642A5.6,5.6,0,0,1-4843.36,11454.36Zm1.814-6.1a3.039,3.039,0,0,0,.008,4.281,3.039,3.039,0,0,0,4.281.009l11.193-11.679-3.8-3.8Zm13.542-12.976,3.723,3.724,3.16-3.3a25.96,25.96,0,0,1-3.585-3.588Zm.023-19.5a23.229,23.229,0,0,0,23.2,23.2,23.724,23.724,0,0,0,3.4-.244,4.383,4.383,0,0,1-2.9-2.337c-.146,0-.3,0-.494,0a20.649,20.649,0,0,1-20.626-20.626,20.646,20.646,0,0,1,2.372-9.6,1.288,1.288,0,0,1,1.739-.54,1.292,1.292,0,0,1,.541,1.742,18.073,18.073,0,0,0-2.073,8.4,18.068,18.068,0,0,0,18.047,18.047h.1a4.383,4.383,0,0,1,3.806-3.684,7.473,7.473,0,0,1,7.352-6.2,7.475,7.475,0,0,1,4.135,1.259,17.94,17.94,0,0,0,2.651-9.421,18.065,18.065,0,0,0-18.047-18.044,18.08,18.08,0,0,0-8.4,2.072,1.287,1.287,0,0,1-1.739-.54,1.289,1.289,0,0,1,.538-1.742,20.68,20.68,0,0,1,9.606-2.369,20.647,20.647,0,0,1,20.623,20.623,20.491,20.491,0,0,1-3.186,11.02c.061,0,.121,0,.181,0a5.224,5.224,0,0,1,2.461.615,23.1,23.1,0,0,0,3.123-11.632,23.229,23.229,0,0,0-23.2-23.2A23.229,23.229,0,0,0-4827.981,11415.78Zm25.835,18.705a1.81,1.81,0,0,0,1.774,1.8h17.185a1.616,1.616,0,0,0,1.61-1.613,1.613,1.613,0,0,0-1.613-1.609,1.291,1.291,0,0,1-1.285-1.193,2.7,2.7,0,0,0-2.688-2.49,2.79,2.79,0,0,0-.719.095,1.284,1.284,0,0,1-1.446-.577,4.846,4.846,0,0,0-4.189-2.372,4.885,4.885,0,0,0-4.879,4.879,1.29,1.29,0,0,1-1.288,1.291h-.667A1.8,1.8,0,0,0-4802.146,11434.485Zm-38.828-31.344a1.81,1.81,0,0,0,1.776,1.794h11.029a25.961,25.961,0,0,1,4.031-6.164,2.7,2.7,0,0,0-1.852-.742,2.729,2.729,0,0,0-.719.1,1.29,1.29,0,0,1-1.449-.578,4.844,4.844,0,0,0-4.186-2.372,4.886,4.886,0,0,0-4.882,4.88,1.29,1.29,0,0,1-1.288,1.29h-.664A1.8,1.8,0,0,0-4840.973,11403.142Zm41.349,12.639a1.289,1.289,0,0,1,1.288-1.288h0a1.289,1.289,0,0,1,1.288,1.288,1.291,1.291,0,0,1-1.288,1.291A1.291,1.291,0,0,1-4799.624,11415.78Zm-6.446,0a1.29,1.29,0,0,1,1.291-1.288,1.287,1.287,0,0,1,1.288,1.288,1.288,1.288,0,0,1-1.288,1.291A1.291,1.291,0,0,1-4806.07,11415.78Zm-6.443,0a1.287,1.287,0,0,1,1.288-1.288,1.29,1.29,0,0,1,1.291,1.288,1.291,1.291,0,0,1-1.291,1.291A1.291,1.291,0,0,1-4812.513,11415.78Zm-7.228-13.671a1.288,1.288,0,0,1,1.288-1.291,1.29,1.29,0,0,1,1.291,1.291,1.29,1.29,0,0,1-1.291,1.288A1.29,1.29,0,0,1-4819.741,11402.109Z" transform="translate(4845 -11390)"/>
  </g>
</svg>
