<svg xmlns="http://www.w3.org/2000/svg" xmlns:xlink="http://www.w3.org/1999/xlink" width="52.173" height="63.822" viewBox="0 0 52.173 63.822">
  <defs>
    <style>
      .cls-1 {
        stroke: rgba(0,0,0,0);
        stroke-miterlimit: 10;
        fill: url(#linear-gradient);
      }
    </style>
    <linearGradient id="linear-gradient" x1="0.5" x2="0.5" y2="1" gradientUnits="objectBoundingBox">
      <stop offset="0" stop-color="#112436"/>
      <stop offset="1" stop-color="#235684"/>
    </linearGradient>
  </defs>
  <path id="Vereinigungsmenge_57" data-name="Vereinigungsmenge 57" class="cls-1" d="M-5333.63,11468.6v-13.9a1.224,1.224,0,0,1,1.219-1.228,1.224,1.224,0,0,1,1.216,1.228v13.9a1.223,1.223,0,0,1-1.216,1.228A1.223,1.223,0,0,1-5333.63,11468.6Zm5.483-5.528v-11.11a1.223,1.223,0,0,1,1.216-1.228,1.224,1.224,0,0,1,1.22,1.228v11.11a1.223,1.223,0,0,1-1.22,1.228A1.222,1.222,0,0,1-5328.147,11463.067Zm-10.966,0v-11.11a1.224,1.224,0,0,1,1.219-1.228,1.223,1.223,0,0,1,1.216,1.228v11.11a1.222,1.222,0,0,1-1.216,1.228A1.223,1.223,0,0,1-5339.113,11463.067Zm16.447-9.313v-5.318a1.221,1.221,0,0,1,1.219-1.228,1.221,1.221,0,0,1,1.219,1.228v5.318a1.223,1.223,0,0,1-1.219,1.228A1.223,1.223,0,0,1-5322.666,11453.754Zm-21.931,0v-5.318a1.222,1.222,0,0,1,1.22-1.228,1.219,1.219,0,0,1,1.216,1.228v5.318a1.221,1.221,0,0,1-1.216,1.228A1.224,1.224,0,0,1-5344.6,11453.754Zm17.667-10.229a1.221,1.221,0,0,1-1.216-1.226,1.221,1.221,0,0,1,1.216-1.228h16.01a1.668,1.668,0,0,0,1.66-1.668v-3.382l-12.228-9.309-7.819,5.954a5.081,5.081,0,0,1-3.1,1.05h-.011a5.076,5.076,0,0,1-3.1-1.05l-7.823-5.954-12.224,9.309v3.382a1.668,1.668,0,0,0,1.66,1.668h16.007a1.223,1.223,0,0,1,1.219,1.228,1.223,1.223,0,0,1-1.219,1.226H-5353.9a4.113,4.113,0,0,1-4.1-4.121v-28.281a4.114,4.114,0,0,1,4.1-4.122h42.983a4.114,4.114,0,0,1,4.1,4.122v28.281a4.113,4.113,0,0,1-4.1,4.121Zm7.465-18.349,10.2,7.771v-15.542Zm-36.1,7.771,10.2-7.771-10.2-7.771Zm0-21.824v3.208l21.515,16.379a2.666,2.666,0,0,0,1.632.553h0a2.668,2.668,0,0,0,1.635-.553l21.515-16.379v-3.208a1.666,1.666,0,0,0-1.66-1.669H-5353.9A1.666,1.666,0,0,0-5355.563,11411.123Zm21.934,31.177a1.223,1.223,0,0,1,1.216-1.228h0a1.223,1.223,0,0,1,1.216,1.228,1.221,1.221,0,0,1-1.216,1.226A1.221,1.221,0,0,1-5333.63,11442.3Z" transform="translate(5358.499 -11406.501)"/>
</svg>
