<svg xmlns="http://www.w3.org/2000/svg" xmlns:xlink="http://www.w3.org/1999/xlink" width="42.187" height="56.941" viewBox="0 0 42.187 56.941">
  <defs>
    <style>
      .cls-1 {
        fill: url(#linear-gradient);
      }
    </style>
    <linearGradient id="linear-gradient" x1="0.5" x2="0.5" y2="1" gradientUnits="objectBoundingBox">
      <stop offset="0" stop-color="#112436"/>
      <stop offset="1" stop-color="#235684"/>
    </linearGradient>
  </defs>
  <path id="Vereinigungsmenge_22" data-name="Vereinigungsmenge 22" class="cls-1" d="M15928.428-13545.946l-.012-5.239a1.14,1.14,0,0,1,.328-.789,1.131,1.131,0,0,1,.789-.328h.646v-2.413a2.6,2.6,0,0,0-.768-1.854l-2.043-2.042a6.313,6.313,0,0,1-1.854-4.476v-1.144a13.6,13.6,0,0,0-1.027-5.19l-1.836-4.467a2.931,2.931,0,0,1,.229-2.679,2.937,2.937,0,0,1,3.307-1.232,5.936,5.936,0,0,1,3.408,2.644v-11.747a3.448,3.448,0,0,1,.91-2.331l.012-.011a3.4,3.4,0,0,1,2.391-1.111,3.416,3.416,0,0,1,2.475.9,3.447,3.447,0,0,1,1.111,2.534v4.536a3.494,3.494,0,0,1,3.674.868,3.585,3.585,0,0,1,.887,1.592,3.05,3.05,0,0,1,.57-.2,3.24,3.24,0,0,1,2.5.394l.094.057a3.236,3.236,0,0,1,1.531,2.765v.585a3.345,3.345,0,0,1,1.926-.223,3.445,3.445,0,0,1,1.66.81,3.442,3.442,0,0,1,1.148,2.557v4.308a1.119,1.119,0,0,1-1.117,1.117,1.122,1.122,0,0,1-1.127-1.117v-4.308a1.184,1.184,0,0,0-.395-.887,1.189,1.189,0,0,0-.572-.281,1.184,1.184,0,0,0-1.168.519,1.993,1.993,0,0,0-.355,1.136v1.979a1.112,1.112,0,0,1-1.111,1.115,1.116,1.116,0,0,1-1.121-1.115v-6.194a1.017,1.017,0,0,0-.484-.87l-.082-.053a1.047,1.047,0,0,0-.8-.119,1.089,1.089,0,0,0-.689.512,2.2,2.2,0,0,0-.3,1.151v4.411a1.119,1.119,0,0,1-1.119,1.115,1.116,1.116,0,0,1-1.115-1.115v-7.194a1.244,1.244,0,0,0-.365-.887,1.263,1.263,0,0,0-1.715-.1.945.945,0,0,0-.352.74v6.79a1.118,1.118,0,0,1-1.117,1.117,1.119,1.119,0,0,1-1.117-1.117v-14.395a1.2,1.2,0,0,0-.391-.887,1.16,1.16,0,0,0-.863-.315,1.186,1.186,0,0,0-.844.384l-.014.019a1.214,1.214,0,0,0-.318.815v18.2a1.116,1.116,0,0,1-1.014,1.111,1.122,1.122,0,0,1-1.2-.911l-.2-1.087a12.036,12.036,0,0,0-1.236-3.5l-.41-.759a3.691,3.691,0,0,0-2.219-1.81.692.692,0,0,0-.777.289.693.693,0,0,0-.049.628l1.836,4.468a15.815,15.815,0,0,1,1.191,6.042v1.144a4.068,4.068,0,0,0,1.205,2.9l2.037,2.039a4.824,4.824,0,0,1,1.424,3.437v2.383h13.957v-3a3.954,3.954,0,0,1,.766-2.351l.424-.585a2.666,2.666,0,0,0,.684-1.791,1.117,1.117,0,0,1,1.127-1.117,1.114,1.114,0,0,1,1.117,1.117,4.864,4.864,0,0,1-1.117,3.1l-.428.587a1.772,1.772,0,0,0-.34,1.042v3.019h.328a1.118,1.118,0,0,1,1.117,1.117l.012,5.232a1.147,1.147,0,0,1-.328.8,1.139,1.139,0,0,1-.795.33l-19.393,0A1.118,1.118,0,0,1,15928.428-13545.946Zm2.227-4.124.008,3,17.158-.006-.006-3Zm17.686-13.977-.012-.031a1.106,1.106,0,0,1,.615-1.451,1.114,1.114,0,0,1,1.455.617l.006.021a1.117,1.117,0,0,1-.615,1.46,1.083,1.083,0,0,1-.418.081A1.114,1.114,0,0,1,15948.34-13564.047Zm6.588-9.832a4.848,4.848,0,0,1,4.842-4.842,4.856,4.856,0,0,1,4.848,4.842,4.855,4.855,0,0,1-4.848,4.848A4.847,4.847,0,0,1,15954.928-13573.879Zm2.232,0a2.614,2.614,0,0,0,2.609,2.613,2.613,2.613,0,0,0,2.613-2.613,2.617,2.617,0,0,0-2.613-2.607A2.617,2.617,0,0,0,15957.16-13573.879Zm-2.232-11.52a4.845,4.845,0,0,1,4.842-4.845,4.853,4.853,0,0,1,4.848,4.845,4.852,4.852,0,0,1-4.848,4.842A4.845,4.845,0,0,1,15954.928-13585.4Zm2.232,0a2.613,2.613,0,0,0,2.609,2.606,2.613,2.613,0,0,0,2.613-2.606,2.614,2.614,0,0,0-2.613-2.609A2.614,2.614,0,0,0,15957.16-13585.4Zm-15.488,0a4.851,4.851,0,0,1,4.846-4.845,4.85,4.85,0,0,1,4.846,4.845,4.849,4.849,0,0,1-4.846,4.842A4.85,4.85,0,0,1,15941.672-13585.4Zm2.232,0a2.615,2.615,0,0,0,2.613,2.606,2.608,2.608,0,0,0,2.609-2.606,2.609,2.609,0,0,0-2.609-2.609A2.616,2.616,0,0,0,15943.9-13585.4Zm-20.221-.624a1.119,1.119,0,0,1,.877-1.315l1.945-.393a1.119,1.119,0,0,1,1.316.874,1.116,1.116,0,0,1-.875,1.313l-1.945.4a1.253,1.253,0,0,1-.225.023A1.124,1.124,0,0,1,15923.684-13586.022Zm2.879-3.953-1.721-1a1.117,1.117,0,0,1-.41-1.528,1.118,1.118,0,0,1,1.527-.409l1.721.992a1.12,1.12,0,0,1,.408,1.53,1.112,1.112,0,0,1-.967.555A1.166,1.166,0,0,1,15926.563-13589.976Zm28.365-6.947a4.85,4.85,0,0,1,4.842-4.848,4.857,4.857,0,0,1,4.848,4.848,4.851,4.851,0,0,1-4.848,4.844A4.844,4.844,0,0,1,15954.928-13596.923Zm2.232,0a2.614,2.614,0,0,0,2.609,2.609,2.614,2.614,0,0,0,2.613-2.609,2.614,2.614,0,0,0-2.613-2.607A2.615,2.615,0,0,0,15957.16-13596.923Zm-15.488,0a4.855,4.855,0,0,1,4.846-4.848,4.854,4.854,0,0,1,4.846,4.848,4.848,4.848,0,0,1-4.846,4.844A4.85,4.85,0,0,1,15941.672-13596.923Zm2.232,0a2.616,2.616,0,0,0,2.613,2.609,2.609,2.609,0,0,0,2.609-2.609,2.61,2.61,0,0,0-2.609-2.607A2.617,2.617,0,0,0,15943.9-13596.923Zm-15.488,0a4.856,4.856,0,0,1,4.848-4.848,4.85,4.85,0,0,1,4.842,4.848,4.844,4.844,0,0,1-4.842,4.844A4.85,4.85,0,0,1,15928.416-13596.923Zm2.234,0a2.615,2.615,0,0,0,2.613,2.609,2.609,2.609,0,0,0,2.607-2.609,2.609,2.609,0,0,0-2.607-2.607A2.616,2.616,0,0,0,15930.65-13596.923Z" transform="translate(-15922.431 13601.771)"/>
</svg>
