<svg xmlns="http://www.w3.org/2000/svg" xmlns:xlink="http://www.w3.org/1999/xlink" width="65.998" height="66" viewBox="0 0 65.998 66">
  <defs>
    <style>
      .cls-1 {
        fill: url(#linear-gradient);
      }
    </style>
    <linearGradient id="linear-gradient" x1="0.5" x2="0.5" y2="1" gradientUnits="objectBoundingBox">
      <stop offset="0" stop-color="#112436"/>
      <stop offset="1" stop-color="#235684"/>
    </linearGradient>
  </defs>
  <g id="resume" transform="translate(-0.007 -0.001)">
    <path id="Vereinigungsmenge_46" data-name="Vereinigungsmenge 46" class="cls-1" d="M-3151.126,11456a3.872,3.872,0,0,1-3.867-3.869v-58.264a3.87,3.87,0,0,1,3.867-3.867h46.921a3.87,3.87,0,0,1,3.867,3.867v14.019a1.288,1.288,0,0,1-1.288,1.288,1.288,1.288,0,0,1-1.288-1.288v-14.019a1.293,1.293,0,0,0-1.291-1.291h-46.921a1.29,1.29,0,0,0-1.288,1.291v58.264a1.29,1.29,0,0,0,1.288,1.29h46.921a1.292,1.292,0,0,0,1.291-1.29v-9.5a1.288,1.288,0,0,1,1.288-1.288,1.288,1.288,0,0,1,1.288,1.288v9.5a3.872,3.872,0,0,1-3.867,3.869Zm35.136-7.136a1.287,1.287,0,0,1-.635-1.259l1.141-10.227a1.3,1.3,0,0,1,.167-.5l16.221-28.095a5.353,5.353,0,0,1,3.286-2.521,5.361,5.361,0,0,1,4.109.54,5.417,5.417,0,0,1,1.981,7.395l-16.221,28.1a1.352,1.352,0,0,1-.351.394l-8.286,6.1a1.3,1.3,0,0,1-.768.25A1.294,1.294,0,0,1-3115.99,11448.865Zm2.254-3.9,4.327-3.186-3.732-2.153Zm1.294-7.915,4.914,2.838,13.015-22.547-4.91-2.838Zm17.3-28.3a2.823,2.823,0,0,0-1.722,1.32l-1.271,2.2,4.914,2.835,1.271-2.2a2.833,2.833,0,0,0,.282-2.154,2.823,2.823,0,0,0-1.32-1.722,2.815,2.815,0,0,0-1.415-.38A2.851,2.851,0,0,0-3095.142,11408.749Zm-32.523,40.289a1.286,1.286,0,0,1-1.288-1.288,1.286,1.286,0,0,1,1.288-1.288h6.96a1.289,1.289,0,0,1,1.291,1.288,1.289,1.289,0,0,1-1.291,1.288Zm-11.345-7.217a1.29,1.29,0,0,1-1.288-1.291,1.29,1.29,0,0,1,1.288-1.288h18.306a1.29,1.29,0,0,1,1.291,1.288,1.291,1.291,0,0,1-1.291,1.291Zm-6.417-.379a1.3,1.3,0,0,1-.377-.912,1.3,1.3,0,0,1,.377-.911,1.307,1.307,0,0,1,.911-.377,1.315,1.315,0,0,1,.914.377,1.305,1.305,0,0,1,.376.911,1.3,1.3,0,0,1-.376.912,1.317,1.317,0,0,1-.914.379A1.309,1.309,0,0,1-3145.427,11441.442Zm6.417-6.843a1.288,1.288,0,0,1-1.288-1.288,1.289,1.289,0,0,1,1.288-1.288h18.306a1.29,1.29,0,0,1,1.291,1.288,1.289,1.289,0,0,1-1.291,1.288Zm-6.417-.377a1.3,1.3,0,0,1-.377-.911,1.3,1.3,0,0,1,.377-.909,1.3,1.3,0,0,1,.911-.379,1.3,1.3,0,0,1,.914.379,1.3,1.3,0,0,1,.376.909,1.3,1.3,0,0,1-.376.911,1.3,1.3,0,0,1-.914.377A1.294,1.294,0,0,1-3145.427,11434.223Zm6.417-6.84a1.29,1.29,0,0,1-1.288-1.288,1.29,1.29,0,0,1,1.288-1.291h18.306a1.291,1.291,0,0,1,1.291,1.291,1.29,1.29,0,0,1-1.291,1.288Zm-6.417-.377a1.3,1.3,0,0,1-.377-.911,1.3,1.3,0,0,1,.377-.911,1.293,1.293,0,0,1,.911-.38,1.3,1.3,0,0,1,.914.38,1.3,1.3,0,0,1,.376.911,1.305,1.305,0,0,1-.376.911,1.31,1.31,0,0,1-.914.377A1.3,1.3,0,0,1-3145.427,11427.006Zm9.764-9.436a1.446,1.446,0,0,1-.138-.13,11.831,11.831,0,0,1-3.723-8.619,11.873,11.873,0,0,1,11.86-11.859,11.871,11.871,0,0,1,11.86,11.859,11.832,11.832,0,0,1-3.723,8.619,1.449,1.449,0,0,1-.138.13,11.824,11.824,0,0,1-8,3.11A11.825,11.825,0,0,1-3135.664,11417.57Zm2.392-1.36a9.219,9.219,0,0,0,5.606,1.892,9.22,9.22,0,0,0,5.606-1.892,6.4,6.4,0,0,0-5.606-3.266A6.4,6.4,0,0,0-3133.271,11416.21Zm10.247-8.743v.837a4.622,4.622,0,0,1-.969,2.835,8.931,8.931,0,0,1,3.8,3.186,9.23,9.23,0,0,0,1.811-5.5,9.293,9.293,0,0,0-9.281-9.283,9.293,9.293,0,0,0-9.281,9.283,9.248,9.248,0,0,0,1.811,5.5,8.93,8.93,0,0,1,3.8-3.186,4.624,4.624,0,0,1-.969-2.835v-.837a4.645,4.645,0,0,1,4.64-4.64A4.645,4.645,0,0,1-3123.025,11407.467Zm-6.7,0v.837a2.064,2.064,0,0,0,2.062,2.064,2.066,2.066,0,0,0,2.064-2.064v-.837a2.066,2.066,0,0,0-2.064-2.062A2.063,2.063,0,0,0-3129.727,11407.467Z" transform="translate(3155 -11390)"/>
  </g>
</svg>
