<svg xmlns="http://www.w3.org/2000/svg" xmlns:xlink="http://www.w3.org/1999/xlink" width="41.834" height="67" viewBox="0 0 41.834 67">
  <defs>
    <style>
      .cls-1 {
        stroke: rgba(0,0,0,0);
        stroke-miterlimit: 10;
        fill: url(#linear-gradient);
      }
    </style>
    <linearGradient id="linear-gradient" x1="0.5" x2="0.5" y2="1" gradientUnits="objectBoundingBox">
      <stop offset="0" stop-color="#112436"/>
      <stop offset="1" stop-color="#235684"/>
    </linearGradient>
  </defs>
  <path id="Vereinigungsmenge_21" data-name="Vereinigungsmenge 21" class="cls-1" d="M2152.28,15510a1.293,1.293,0,0,1,0-2.586h6.386a2.586,2.586,0,0,0,2.586-2.582v-2.5h-35.667v2.5a2.585,2.585,0,0,0,2.581,2.582H2140.7a1.293,1.293,0,0,1,0,2.586h-12.535a5.173,5.173,0,0,1-5.167-5.168v-55.666a5.171,5.171,0,0,1,5.167-5.166h30.5a5.172,5.172,0,0,1,5.167,5.166v55.666a5.173,5.173,0,0,1-5.167,5.168Zm-26.695-10.248h35.667v-45.5h-35.667Zm0-50.586v2.5h35.667v-2.5a2.582,2.582,0,0,0-2.586-2.58h-30.5A2.581,2.581,0,0,0,2125.585,15449.166Zm20.652,60.809a1.167,1.167,0,0,1-.243-.076,1.3,1.3,0,0,1-.223-.117,1.163,1.163,0,0,1-.2-.16,1.306,1.306,0,0,1-.374-.918,1.094,1.094,0,0,1,.025-.252,1.314,1.314,0,0,1,.071-.238,1.714,1.714,0,0,1,.122-.223,1.261,1.261,0,0,1,.354-.359,1.294,1.294,0,0,1,.223-.115,1.947,1.947,0,0,1,.243-.076,1.378,1.378,0,0,1,.506,0,1.947,1.947,0,0,1,.243.076,1.294,1.294,0,0,1,.223.115,1.129,1.129,0,0,1,.192.164,1.115,1.115,0,0,1,.162.2,1.684,1.684,0,0,1,.121.223,1.258,1.258,0,0,1,.071.238,1.455,1.455,0,0,1,.025.252,1.288,1.288,0,0,1-.38.918.959.959,0,0,1-.192.16,1.3,1.3,0,0,1-.223.117,1.167,1.167,0,0,1-.243.076,1.274,1.274,0,0,1-.506,0Zm3.441-18.264a1.29,1.29,0,1,1,0-2.58h4.58a1.3,1.3,0,0,0,1.29-1.291v-4.58a1.29,1.29,0,1,1,2.581,0v4.58a3.875,3.875,0,0,1-3.871,3.871Zm-17.1,0a3.879,3.879,0,0,1-3.876-3.871v-4.58a1.293,1.293,0,1,1,2.586,0v4.58a1.293,1.293,0,0,0,1.29,1.291h4.58a1.29,1.29,0,1,1,0,2.58Zm14.433-5.3a1.938,1.938,0,0,1-1.933-1.939v-3.877a1.933,1.933,0,0,1,1.933-1.932h3.876a1.937,1.937,0,0,1,1.938,1.932v3.877a1.942,1.942,0,0,1-1.938,1.939Zm.648-2.582h2.581v-2.586h-2.581Zm-12.358,2.582a1.291,1.291,0,0,1,0-2.582h5.167a1.291,1.291,0,0,1,0,2.582Zm4.428-4.707a1.345,1.345,0,0,1-.243-.07,1.7,1.7,0,0,1-.223-.123,1.252,1.252,0,0,1-.2-.16,1.306,1.306,0,0,1-.38-.912,1.369,1.369,0,0,1,.025-.252,1.453,1.453,0,0,1,.076-.244,1.289,1.289,0,0,1,.116-.223,1.541,1.541,0,0,1,.162-.2,1.347,1.347,0,0,1,.2-.156,1.327,1.327,0,0,1,.223-.121,1.206,1.206,0,0,1,.243-.072,1.272,1.272,0,0,1,.5,0,1.2,1.2,0,0,1,.243.072,1.02,1.02,0,0,1,.223.121,1.36,1.36,0,0,1,.2.156,1.562,1.562,0,0,1,.162.2,1.324,1.324,0,0,1,.116.223,1.452,1.452,0,0,1,.076.244,1.348,1.348,0,0,1,.025.252,1.439,1.439,0,0,1-.025.254,1.319,1.319,0,0,1-.076.236.989.989,0,0,1-.116.223,1.25,1.25,0,0,1-.162.2,1.263,1.263,0,0,1-.2.16,1.42,1.42,0,0,1-.223.123,1.339,1.339,0,0,1-.243.07,1.067,1.067,0,0,1-.248.025A1.087,1.087,0,0,1,2139.729,15481.7Zm-4.681-1.527a1.454,1.454,0,0,1-.243-.078,1.3,1.3,0,0,1-.222-.115,1.186,1.186,0,0,1-.2-.162,1.305,1.305,0,0,1-.374-.916,1.136,1.136,0,0,1,.025-.254,1.321,1.321,0,0,1,.071-.236,1.127,1.127,0,0,1,.122-.223,1.383,1.383,0,0,1,.156-.2,1.259,1.259,0,0,1,.42-.279,1.649,1.649,0,0,1,.243-.076,1.468,1.468,0,0,1,.506,0,1.421,1.421,0,0,1,.238.076.942.942,0,0,1,.223.117,1.006,1.006,0,0,1,.2.162,1.232,1.232,0,0,1,.279.42.994.994,0,0,1,.076.236,1.5,1.5,0,0,1,.025.254,1.348,1.348,0,0,1-.025.252.949.949,0,0,1-.076.244,1.177,1.177,0,0,1-.116.223,1.117,1.117,0,0,1-.162.2,1.205,1.205,0,0,1-.42.277,1.267,1.267,0,0,1-.238.078,1.586,1.586,0,0,1-.253.025A1.534,1.534,0,0,1,2135.049,15480.174Zm.9-4.834a1.937,1.937,0,0,1-1.933-1.937v-3.871a1.935,1.935,0,0,1,1.933-1.939h3.876a1.94,1.94,0,0,1,1.938,1.939v3.871a1.942,1.942,0,0,1-1.938,1.938Zm.648-2.586h2.581v-2.582h-2.581Zm9.56.158a1.291,1.291,0,0,1,0-2.582h4.089v-1.447a1.293,1.293,0,0,1,2.586,0v2.736a1.291,1.291,0,0,1-1.291,1.293Zm9.4-2.174v-4.578a1.292,1.292,0,0,0-1.29-1.291h-4.58a1.291,1.291,0,1,1,0-2.582h4.58a3.875,3.875,0,0,1,3.871,3.873v4.578a1.29,1.29,0,1,1-2.581,0Zm-26.846,0v-4.578a3.88,3.88,0,0,1,3.876-3.873h4.58a1.291,1.291,0,0,1,0,2.582h-4.58a1.289,1.289,0,0,0-1.29,1.291v4.578a1.293,1.293,0,0,1-2.586,0Z" transform="translate(-2122.5 -15443.5)"/>
</svg>
