<svg xmlns="http://www.w3.org/2000/svg" xmlns:xlink="http://www.w3.org/1999/xlink" width="53.031" height="66" viewBox="0 0 53.031 66">
  <defs>
    <style>
      .cls-1 {
        fill: url(#linear-gradient);
      }
    </style>
    <linearGradient id="linear-gradient" x1="0.5" x2="0.5" y2="1" gradientUnits="objectBoundingBox">
      <stop offset="0" stop-color="#112436"/>
      <stop offset="1" stop-color="#235684"/>
    </linearGradient>
  </defs>
  <g id="phone-message" transform="translate(-50.303 -0.001)">
    <g id="Gruppe_8923" data-name="Gruppe 8923" transform="translate(50.303)">
      <g id="Gruppe_8922" data-name="Gruppe 8922" transform="translate(0)">
        <path id="Vereinigungsmenge_32" data-name="Vereinigungsmenge 32" class="cls-1" d="M-4740.3,11456a4.707,4.707,0,0,1-4.7-4.7v-56.6a4.7,4.7,0,0,1,4.7-4.7h25.8a4.707,4.707,0,0,1,4.7,4.7v18.828h11.684a3.651,3.651,0,0,1,3.646,3.646v16.362a3.651,3.651,0,0,1-3.646,3.648h-11.684v14.111a4.709,4.709,0,0,1-4.7,4.7Zm-2.122-4.7a2.126,2.126,0,0,0,2.122,2.124h25.8a2.127,2.127,0,0,0,2.125-2.124v-3.928h-30.047Zm0-6.5h30.047v-7.607h-9.41v2.274a1.291,1.291,0,0,1-1.288,1.291,1.291,1.291,0,0,1-1.291-1.291v-28.106a1.291,1.291,0,0,1,1.291-1.288,1.29,1.29,0,0,1,1.288,1.288v2.176h9.41v-12.325h-30.047Zm20.637-14.476v4.289h23.673a.963.963,0,0,0,.121-.008.145.145,0,0,0,.038-.006.656.656,0,0,0,.081-.015.234.234,0,0,0,.043-.012c.023-.006.049-.015.072-.022a.225.225,0,0,0,.041-.015c.026-.009.049-.021.075-.031a.264.264,0,0,1,.032-.018c.031-.018.066-.037.1-.058,0,0,.006-.006.008-.006.029-.02.055-.043.083-.063l.026-.025a.482.482,0,0,0,.055-.055c.012-.009.02-.021.032-.031s.032-.038.046-.058a.047.047,0,0,0,.014-.021l-12.546-7.239-.141-.081-.857.5a4.1,4.1,0,0,1-1.581.521,4.55,4.55,0,0,1-.475.028,4.128,4.128,0,0,1-2.059-.549l-.854-.5Zm14.427-4.96,10.313,5.949v-11.9Zm-14.427,1.984,3.441-1.984-3.441-1.986Zm0-6.946,6.023,3.473,2.142,1.236a1.544,1.544,0,0,0,1.538,0l2.145-1.236.141-.08,12.546-7.239c-.005-.006-.008-.015-.014-.021s-.032-.04-.046-.058a.317.317,0,0,1-.032-.031.694.694,0,0,0-.055-.052.22.22,0,0,0-.029-.026.844.844,0,0,0-.081-.062l-.008-.009c-.032-.021-.066-.041-.1-.058l-.032-.015c-.026-.012-.049-.025-.075-.034l-.041-.015a.683.683,0,0,0-.072-.023c-.014,0-.029-.008-.043-.011a.656.656,0,0,0-.081-.015c-.012,0-.023,0-.038-.006-.04,0-.081-.006-.121-.006h-23.673Zm-20.637-25.694v3.927h30.047v-3.927a2.127,2.127,0,0,0-2.125-2.125h-25.8A2.126,2.126,0,0,0-4742.421,11394.7Zm13.415,56.983a1.29,1.29,0,0,1-1.291-1.288,1.291,1.291,0,0,1,1.291-1.291h3.217a1.291,1.291,0,0,1,1.288,1.291,1.289,1.289,0,0,1-1.288,1.288Zm25.214-9.608a1.288,1.288,0,0,1-1.288-1.288,1.288,1.288,0,0,1,1.288-1.288h2.838a1.288,1.288,0,0,1,1.288,1.288,1.288,1.288,0,0,1-1.288,1.288Zm-2.835-30.979a1.291,1.291,0,0,1-1.291-1.291,1.29,1.29,0,0,1,1.291-1.288h13.369a1.29,1.29,0,0,1,1.288,1.288,1.29,1.29,0,0,1-1.288,1.291Zm-16.7-3.635a1.358,1.358,0,0,1-.242-.074,1.3,1.3,0,0,1-.221-.118,1.059,1.059,0,0,1-.2-.161,1.291,1.291,0,0,1-.379-.911,1.565,1.565,0,0,1,.026-.253,1.5,1.5,0,0,1,.075-.241,1.382,1.382,0,0,1,.118-.222,1.294,1.294,0,0,1,.161-.2,1.361,1.361,0,0,1,.2-.161,1.3,1.3,0,0,1,.221-.118,1.358,1.358,0,0,1,.242-.074,1.32,1.32,0,0,1,.5,0,1.358,1.358,0,0,1,.242.074,1.3,1.3,0,0,1,.221.118,1.572,1.572,0,0,1,.2.161,1.476,1.476,0,0,1,.158.2,1.627,1.627,0,0,1,.121.222,1.243,1.243,0,0,1,.072.241,1.293,1.293,0,0,1,.026.253,1.271,1.271,0,0,1-.026.253,1.2,1.2,0,0,1-.072.241,1.47,1.47,0,0,1-.121.222,1.174,1.174,0,0,1-.158.2,1.186,1.186,0,0,1-.2.161,1.3,1.3,0,0,1-.221.118,1.358,1.358,0,0,1-.242.074,1.444,1.444,0,0,1-.25.026A1.482,1.482,0,0,1-4723.325,11407.464Zm-9.623-10.571a1.291,1.291,0,0,1-1.288-1.291,1.29,1.29,0,0,1,1.288-1.288h11.1a1.288,1.288,0,0,1,1.288,1.288,1.288,1.288,0,0,1-1.288,1.291Z" transform="translate(4745 -11390)"/>
      </g>
    </g>
  </g>
</svg>
