<svg xmlns="http://www.w3.org/2000/svg" xmlns:xlink="http://www.w3.org/1999/xlink" width="66" height="66" viewBox="0 0 66 66">
  <defs>
    <style>
      .cls-1 {
        fill: url(#linear-gradient);
      }
    </style>
    <linearGradient id="linear-gradient" x1="0.5" x2="0.5" y2="1" gradientUnits="objectBoundingBox">
      <stop offset="0" stop-color="#112436"/>
      <stop offset="1" stop-color="#235684"/>
    </linearGradient>
  </defs>
  <path id="Vereinigungsmenge_19" data-name="Vereinigungsmenge 19" class="cls-1" d="M-3559.333,15500.336A32.786,32.786,0,0,1-3569,15477a32.772,32.772,0,0,1,9.666-23.334A32.77,32.77,0,0,1-3536,15444a32.777,32.777,0,0,1,23.334,9.666A32.773,32.773,0,0,1-3503,15477a32.786,32.786,0,0,1-9.666,23.334A32.781,32.781,0,0,1-3536,15510,32.774,32.774,0,0,1-3559.333,15500.336Zm-7.038-23.334a30.4,30.4,0,0,0,30.372,30.367,30.4,30.4,0,0,0,30.372-30.367A30.407,30.407,0,0,0-3536,15446.63,30.407,30.407,0,0,0-3566.371,15477Zm29.056,27.083a1.318,1.318,0,0,1,1.316-1.315,25.74,25.74,0,0,0,24.972-19.386,1.315,1.315,0,0,1,1.6-.952,1.318,1.318,0,0,1,.951,1.6A28.369,28.369,0,0,1-3536,15505.4,1.314,1.314,0,0,1-3537.316,15504.085Zm-9.037-12.13-9.6-9.6a4.612,4.612,0,0,1,0-6.511,4.612,4.612,0,0,1,6.51,0l6.343,6.343,19.359-19.358a4.612,4.612,0,0,1,6.51,0,4.61,4.61,0,0,1,0,6.51l-22.615,22.612a4.567,4.567,0,0,1-3.253,1.347A4.567,4.567,0,0,1-3546.353,15491.955Zm-7.74-14.247a1.977,1.977,0,0,0,0,2.791l9.6,9.6a1.958,1.958,0,0,0,1.394.578,1.957,1.957,0,0,0,1.393-.578l22.616-22.612a1.977,1.977,0,0,0,0-2.791,1.977,1.977,0,0,0-2.791,0l-20.287,20.29a1.321,1.321,0,0,1-1.863,0l-7.271-7.274a1.964,1.964,0,0,0-1.394-.574A1.966,1.966,0,0,0-3554.093,15477.708Zm45.1,1.79a1.315,1.315,0,0,1-1.258-1.37c.015-.373.023-.749.023-1.126a1.317,1.317,0,0,1,1.316-1.315,1.317,1.317,0,0,1,1.316,1.315c0,.412-.011.83-.027,1.238a1.316,1.316,0,0,1-1.312,1.258Z" transform="translate(3568.999 -15444.002)"/>
</svg>
