<svg xmlns="http://www.w3.org/2000/svg" xmlns:xlink="http://www.w3.org/1999/xlink" width="62.06" height="59.324" viewBox="0 0 62.06 59.324">
  <defs>
    <style>
      .cls-1 {
        fill: url(#linear-gradient);
      }
    </style>
    <linearGradient id="linear-gradient" x1="0.5" x2="0.5" y2="1" gradientUnits="objectBoundingBox">
      <stop offset="0" stop-color="#112436"/>
      <stop offset="1" stop-color="#235684"/>
    </linearGradient>
  </defs>
  <g id="Gruppe_10120" data-name="Gruppe 10120" transform="translate(0 0.001)">
    <path id="Vereinigungsmenge_51" data-name="Vereinigungsmenge 51" class="cls-1" d="M17.756,59.324a5.678,5.678,0,0,1-5.672-5.672V49.094H5.669A5.673,5.673,0,0,1,0,43.426V5C0,2.011,2.279,0,5.669,0H23.806c3.119,0,4.91,1.825,4.91,5v24.85H56.179a5.678,5.678,0,0,1,5.67,5.673V53.652a5.676,5.676,0,0,1-5.67,5.672Zm-2.895-23.8V53.655a2.9,2.9,0,0,0,2.895,2.892H56.179a2.9,2.9,0,0,0,2.892-2.892V35.526a2.9,2.9,0,0,0-2.892-2.895H17.756A2.9,2.9,0,0,0,14.862,35.526ZM2.778,5V43.426a2.893,2.893,0,0,0,2.892,2.89h6.415V41.685H10.652a1.389,1.389,0,1,1,0-2.778h1.432v-3.38a5.68,5.68,0,0,1,5.672-5.673h8.182V5c0-1.62-.579-2.223-2.132-2.223H5.669C4.993,2.781,2.778,2.941,2.778,5ZM19.364,47.017V40.31a1.389,1.389,0,1,1,2.778,0v6.707a1.389,1.389,0,0,1-2.778,0Zm34.361-8.575V36.588a1.39,1.39,0,0,1,2.78,0v1.854a1.39,1.39,0,1,1-2.78,0Zm-.031-13.268L47.868,20.32a1.445,1.445,0,0,1-.372-1.813,1.39,1.39,0,0,1,2.093-.37L53.3,21.226V15.214a10.581,10.581,0,0,0-10.58-10.58h-7.98a1.39,1.39,0,0,1-1.369-1.623A1.439,1.439,0,0,1,34.81,1.856h7.905A13.359,13.359,0,0,1,56.076,15.214v6.012l3.706-3.089a1.389,1.389,0,1,1,1.778,2.135l-5.882,4.9a1.553,1.553,0,0,1-1.984,0ZM6.949,8.338a1.389,1.389,0,1,1,0-2.778H8.8a1.389,1.389,0,1,1,0,2.778Z" transform="translate(0 -0.001)"/>
  </g>
</svg>
