<svg xmlns="http://www.w3.org/2000/svg" xmlns:xlink="http://www.w3.org/1999/xlink" width="67.742" height="67.748" viewBox="0 0 67.742 67.748">
  <defs>
    <style>
      .cls-1 {
        fill: url(#linear-gradient);
      }
    </style>
    <linearGradient id="linear-gradient" x1="0.5" x2="0.5" y2="1" gradientUnits="objectBoundingBox">
      <stop offset="0" stop-color="#112436"/>
      <stop offset="1" stop-color="#235684"/>
    </linearGradient>
  </defs>
  <path id="Vereinigungsmenge_67" data-name="Vereinigungsmenge 67" class="cls-1" d="M24524.459-10206.314a1.289,1.289,0,0,1-.807-.644l-7.531-14.12h-17.789a1.328,1.328,0,0,1-1.33-1.322v-50.27a1.329,1.329,0,0,1,1.33-1.331h47.619a1.328,1.328,0,0,1,1.332,1.331v12.245l4.627,7.872a1.523,1.523,0,0,1,.113,1,1.442,1.442,0,0,1-.641.809,1.4,1.4,0,0,1-.666.185,1.338,1.338,0,0,1-1.148-.667l-2.285-3.941v22.177a1.319,1.319,0,0,1-.387.933l-10.59,10.586a1.313,1.313,0,0,1-.934.39h-16.258l6.227,11.66,36.281-21.132-6.055-10.372a1.317,1.317,0,0,1,.482-1.821,1.324,1.324,0,0,1,.662-.174,1.343,1.343,0,0,1,1.148.655l6.693,11.519a1.3,1.3,0,0,1-.469,1.811l-38.613,22.5a1.308,1.308,0,0,1-.662.183A1.3,1.3,0,0,1,24524.459-10206.314Zm-24.816-17.406h34.406v-9.266a1.313,1.313,0,0,1,1.324-1.311h9.248v-37.042h-44.979Zm37.055-1.873,6.072-6.062h-6.072Zm-19.189-8.7a1.341,1.341,0,0,1-1.328-1.331,1.335,1.335,0,0,1,1.328-1.332h12.572a1.328,1.328,0,0,1,1.324,1.332,1.334,1.334,0,0,1-1.324,1.331Zm-8.721-.021a1.308,1.308,0,0,1-.973-.584l-2.654-3.973a1.337,1.337,0,0,1,.369-1.833,1.32,1.32,0,0,1,1.824.369l1.762,2.633,4.154-4.146a1.312,1.312,0,0,1,1.873,0,1.348,1.348,0,0,1,0,1.872l-5.293,5.283a1.363,1.363,0,0,1-.941.4C24508.867-10234.3,24508.818-10234.317,24508.787-10234.317Zm43.6-12.42a1.339,1.339,0,0,1,1.33-1.331,1.329,1.329,0,0,1,1.332,1.331,1.335,1.335,0,0,1-1.332,1.331A1.345,1.345,0,0,1,24552.383-10246.737Zm-44.271-2.345a1.6,1.6,0,0,1,1.625-1.6,1.6,1.6,0,0,1,1.617,1.6,1.6,1.6,0,0,1-1.617,1.577A1.594,1.594,0,0,1,24508.111-10249.082Zm6.748,1.548a1.326,1.326,0,0,1-1.324-1.322,1.334,1.334,0,0,1,1.324-1.331h20.514a1.334,1.334,0,0,1,1.324,1.331,1.326,1.326,0,0,1-1.324,1.322Zm-6.748-14.253a1.6,1.6,0,0,1,1.625-1.586,1.6,1.6,0,0,1,1.617,1.586,1.6,1.6,0,0,1-1.617,1.6A1.6,1.6,0,0,1,24508.111-10261.787Zm6.756,1.024a1.331,1.331,0,0,1-1.318-1.331,1.312,1.312,0,0,1,1.318-1.311h20.506a1.316,1.316,0,0,1,1.324,1.311,1.334,1.334,0,0,1-1.324,1.331Z" transform="translate(-24497.002 10274.001)"/>
</svg>
