<svg xmlns="http://www.w3.org/2000/svg" xmlns:xlink="http://www.w3.org/1999/xlink" width="43.826" height="66.002" viewBox="0 0 43.826 66.002">
  <defs>
    <style>
      .cls-1 {
        fill: url(#linear-gradient);
      }
    </style>
    <linearGradient id="linear-gradient" x1="0.5" x2="0.5" y2="1" gradientUnits="objectBoundingBox">
      <stop offset="0" stop-color="#112436"/>
      <stop offset="1" stop-color="#235684"/>
    </linearGradient>
  </defs>
  <path id="Vereinigungsmenge_20" data-name="Vereinigungsmenge 20" class="cls-1" d="M-2796.712,13013a1.288,1.288,0,0,1-1.286-1.293v-6.441a1.291,1.291,0,0,1,1.286-1.293h1.935v-7.447a6.453,6.453,0,0,1,2.217-4.863l12.077-10.5a1.532,1.532,0,0,0,.527-1.164,1.529,1.529,0,0,0-.527-1.158l-12.077-10.508a6.428,6.428,0,0,1-2.217-4.857v-7.453h-1.935a1.286,1.286,0,0,1-1.286-1.287v-6.449a1.286,1.286,0,0,1,1.286-1.285h41.253a1.286,1.286,0,0,1,1.286,1.285v6.449a1.286,1.286,0,0,1-1.286,1.287h-1.935v7.453a6.428,6.428,0,0,1-2.217,4.857l-12.077,10.508a1.534,1.534,0,0,0-.533,1.158,1.538,1.538,0,0,0,.533,1.164l2.254,1.965h.006a1.3,1.3,0,0,1,.123,1.82,1.287,1.287,0,0,1-.974.439,1.306,1.306,0,0,1-.845-.312l-2.26-1.965a4.146,4.146,0,0,1-1.415-3.111c0-.031.006-.068.006-.1a8.413,8.413,0,0,1-1.292.1,7.685,7.685,0,0,1-1.292-.1v.1a4.126,4.126,0,0,1-1.415,3.111l-12.077,10.5a3.862,3.862,0,0,0-1.329,2.914v7.447h9.664l2.321-3.092a5.187,5.187,0,0,1,4.128-2.064,5.167,5.167,0,0,1,4.122,2.064l2.321,3.092h9.67v-7.447a3.864,3.864,0,0,0-1.329-2.914l-1.066-.926a1.3,1.3,0,0,1-.128-1.824,1.31,1.31,0,0,1,.974-.441,1.287,1.287,0,0,1,.845.318l1.065.924a6.453,6.453,0,0,1,2.217,4.863v7.447h1.935a1.291,1.291,0,0,1,1.286,1.293v6.441a1.288,1.288,0,0,1-1.286,1.293Zm1.292-2.578h38.669v-3.871h-38.669Zm17.271-7.992-1.158,1.543h6.443l-1.158-1.543a2.586,2.586,0,0,0-2.063-1.035A2.587,2.587,0,0,0-2778.149,13002.432Zm-14.049-40.654v1.7a3.862,3.862,0,0,0,1.329,2.914l11.128,9.678a5.454,5.454,0,0,0,1.69,1,5.542,5.542,0,0,0,1.966.355,5.588,5.588,0,0,0,3.65-1.354l11.134-9.678a3.864,3.864,0,0,0,1.329-2.914v-1.7a4.9,4.9,0,0,0-2.192-.6,5.186,5.186,0,0,0-2.713.912,7.726,7.726,0,0,1-4.25,1.408,7.654,7.654,0,0,1-4.244-1.414,5.266,5.266,0,0,0-2.713-.906,5.22,5.22,0,0,0-2.719.912,7.7,7.7,0,0,1-4.244,1.408,7.682,7.682,0,0,1-4.25-1.414,5.206,5.206,0,0,0-2.707-.906A4.9,4.9,0,0,0-2792.2,12961.777Zm20.363-1.758a5.314,5.314,0,0,0,2.707.9,5.3,5.3,0,0,0,2.719-.906,7.681,7.681,0,0,1,4.244-1.414,6.854,6.854,0,0,1,2.192.373v-2.951H-2792.2v2.951a6.825,6.825,0,0,1,2.192-.373,7.693,7.693,0,0,1,4.25,1.42,5.283,5.283,0,0,0,2.707.9,5.3,5.3,0,0,0,2.719-.906,7.682,7.682,0,0,1,4.245-1.414A7.667,7.667,0,0,1-2771.835,12960.02Zm-23.585-6.576h38.669v-3.865h-38.669Zm28.674,35.564a1.315,1.315,0,0,1-.441-.889,1.271,1.271,0,0,1,.313-.932,1.3,1.3,0,0,1,.974-.447,1.3,1.3,0,0,1,.845.318,1.291,1.291,0,0,1,.128,1.82,1.287,1.287,0,0,1-.974.439A1.29,1.29,0,0,1-2766.745,12989.008Z" transform="translate(2797.998 -12947)"/>
</svg>
