<svg xmlns="http://www.w3.org/2000/svg" xmlns:xlink="http://www.w3.org/1999/xlink" width="66" height="33.516" viewBox="0 0 66 33.516">
  <defs>
    <style>
      .cls-1 {
        fill: url(#linear-gradient);
      }
    </style>
    <linearGradient id="linear-gradient" x1="0.5" x2="0.5" y2="1" gradientUnits="objectBoundingBox">
      <stop offset="0" stop-color="#112436"/>
      <stop offset="1" stop-color="#235684"/>
    </linearGradient>
  </defs>
  <path id="Vereinigungsmenge_55" data-name="Vereinigungsmenge 55" class="cls-1" d="M-6067.228,11432.038c-2.819,3.23-8.5,8.479-15.628,8.479-9.182,0-17.144-7.422-17.144-16.759s7.954-16.757,17.144-16.757c7.092,0,12.266,4.318,16.073,8.49,2.82-3.235,8.5-8.49,15.64-8.49,9.182,0,17.144,7.42,17.144,16.757a16.065,16.065,0,0,1-1.467,6.719,1.286,1.286,0,0,1-1.706.637,1.288,1.288,0,0,1-.638-1.708,13.541,13.541,0,0,0,1.232-5.647c0-7.687-6.67-14.181-14.565-14.181-6.322,0-11.482,5-13.928,7.878,1.166,1.384,2.242,2.748,3.356,4.152,2.814-3.429,6.417-6.874,10.572-6.874a9.346,9.346,0,0,1,9.409,9.024,9.346,9.346,0,0,1-9.409,9.024c-4.525,0-8.06-3.926-11.577-8.3-1.6-1.993-3.248-4.144-5-6.171-4.123-4.743-8.76-8.736-15.131-8.736-7.9,0-14.565,6.494-14.565,14.181s6.669,14.181,14.565,14.181c6.314,0,11.47-4.987,13.917-7.864-1.166-1.384-2.242-2.751-3.354-4.157-2.813,3.428-6.411,6.865-10.563,6.865a9.346,9.346,0,0,1-9.409-9.024,9.346,9.346,0,0,1,9.409-9.024c4.439,0,7.921,3.784,11.37,8.063.167.129,2.879,3.744,5.2,6.42,4.151,4.777,8.78,8.723,15.143,8.723a14.5,14.5,0,0,0,5.846-1.229,1.291,1.291,0,0,1,1.7.663,1.291,1.291,0,0,1-.663,1.7,17.054,17.054,0,0,1-6.879,1.444C-6058.255,11440.517-6063.426,11436.2-6067.228,11432.038Zm7.164-8.372c2.891,3.531,5.771,6.537,8.921,6.537a6.821,6.821,0,0,0,6.831-6.445,6.821,6.821,0,0,0-6.831-6.446C-6054.414,11417.312-6057.572,11420.551-6060.064,11423.666Zm-29.625.092a6.822,6.822,0,0,0,6.833,6.445c3.271,0,6.423-3.235,8.912-6.342-2.888-3.538-5.765-6.55-8.912-6.55A6.822,6.822,0,0,0-6089.689,11423.758Zm48.023,10.925a1.944,1.944,0,0,1,1.944-1.944,1.944,1.944,0,0,1,1.944,1.944,1.944,1.944,0,0,1-1.944,1.943A1.944,1.944,0,0,1-6041.666,11434.683Z" transform="translate(6100 -11407.001)"/>
</svg>
