<svg xmlns="http://www.w3.org/2000/svg" xmlns:xlink="http://www.w3.org/1999/xlink" width="67.047" height="67" viewBox="0 0 67.047 67">
  <defs>
    <style>
      .cls-1 {
        stroke: rgba(0,0,0,0);
        stroke-miterlimit: 10;
        fill: url(#linear-gradient);
      }
    </style>
    <linearGradient id="linear-gradient" x1="0.5" x2="0.5" y2="1" gradientUnits="objectBoundingBox">
      <stop offset="0" stop-color="#112436"/>
      <stop offset="1" stop-color="#235684"/>
    </linearGradient>
  </defs>
  <g id="Gruppe_9049" data-name="Gruppe 9049" transform="translate(-105.476 -259.501)">
    <g id="Gruppe_8293" data-name="Gruppe 8293" transform="translate(106 260)">
      <path id="Vereinigungsmenge_44" data-name="Vereinigungsmenge 44" class="cls-1" d="M-3360.038,11456a1.29,1.29,0,0,1-1.291-1.291v-15.727h-4.382a1.294,1.294,0,0,1-1.162-.725,1.289,1.289,0,0,1,.147-1.359l14.18-18.047a1.291,1.291,0,0,1,1.015-.492,1.29,1.29,0,0,1,1.012.492l5.56,7.075V11413.2h-5.155a1.289,1.289,0,0,1-1.159-.725,1.285,1.285,0,0,1,.144-1.357l16.112-20.626A1.287,1.287,0,0,1-3334,11390a1.292,1.292,0,0,1,1.018.494l16.112,20.626a1.285,1.285,0,0,1,.144,1.357,1.292,1.292,0,0,1-1.159.725h-5.158v12.725l5.561-7.075a1.291,1.291,0,0,1,1.015-.492,1.291,1.291,0,0,1,1.015.492l14.177,18.047a1.283,1.283,0,0,1,.146,1.359,1.287,1.287,0,0,1-1.159.725h-4.382v15.727a1.29,1.29,0,0,1-1.291,1.291Zm36.994-25.9v23.319h13.795V11437.7a1.288,1.288,0,0,1,1.288-1.288h3.022l-11.529-14.671Zm-19.335,23.319h16.759v-2.578h-3.223a1.29,1.29,0,0,1-1.291-1.288,1.291,1.291,0,0,1,1.291-1.291h3.223v-36.35a1.288,1.288,0,0,1,1.288-1.291h3.8l-13.472-17.242-13.47,17.242h3.8a1.29,1.29,0,0,1,1.288,1.291v36.35h3.223a1.29,1.29,0,0,1,1.288,1.291,1.29,1.29,0,0,1-1.288,1.288h-3.223Zm-20.68-17.015h3.022a1.288,1.288,0,0,1,1.288,1.288v15.727h13.792V11430.1l-6.573-8.366Zm27.816,13.375a1.245,1.245,0,0,1,1.242-1.244,1.245,1.245,0,0,1,1.245,1.244,1.245,1.245,0,0,1-1.245,1.242A1.244,1.244,0,0,1-3335.243,11449.782Zm3.226-36.464a1.245,1.245,0,0,1,1.245-1.245,1.243,1.243,0,0,1,1.242,1.245,1.243,1.243,0,0,1-1.242,1.244A1.245,1.245,0,0,1-3332.017,11413.318Zm-4.908.822a1.247,1.247,0,0,1-.29-1.737l4.4-6.176a1.244,1.244,0,0,1,1.734-.293,1.247,1.247,0,0,1,.293,1.736l-4.4,6.179a1.247,1.247,0,0,1-1.015.521A1.242,1.242,0,0,1-3336.925,11414.141Zm-1.547-7.277a1.243,1.243,0,0,1,1.245-1.242,1.243,1.243,0,0,1,1.245,1.242,1.245,1.245,0,0,1-1.245,1.245A1.245,1.245,0,0,1-3338.472,11406.863Z" transform="translate(3367 -11390)"/>
    </g>
  </g>
</svg>
