<svg id="Gruppe_9042" data-name="Gruppe 9042" xmlns="http://www.w3.org/2000/svg" xmlns:xlink="http://www.w3.org/1999/xlink" width="66" height="50.218" viewBox="0 0 66 50.218">
  <defs>
    <style>
      .cls-1, .cls-3 {
        fill: url(#linear-gradient);
      }

      .cls-2 {
        clip-path: url(#clip-path);
      }

      .cls-3 {
        stroke: rgba(0,0,0,0);
        stroke-miterlimit: 10;
      }
    </style>
    <linearGradient id="linear-gradient" x1="0.5" x2="0.5" y2="1" gradientUnits="objectBoundingBox">
      <stop offset="0" stop-color="#112436"/>
      <stop offset="1" stop-color="#235684"/>
    </linearGradient>
    <clipPath id="clip-path">
      <rect id="Rechteck_3023" data-name="Rechteck 3023" class="cls-1" width="66" height="50.218"/>
    </clipPath>
  </defs>
  <g id="Gruppe_8958" data-name="Gruppe 8958" class="cls-2">
    <path id="Vereinigungsmenge_30" data-name="Vereinigungsmenge 30" class="cls-3" d="M-4896.437,11432a9.414,9.414,0,0,1-6.846-6.017h-9.354a1.288,1.288,0,0,1-1.288-1.288,1.289,1.289,0,0,1,1.288-1.289h8.805a9.276,9.276,0,0,1,.318-3.078v-.006c.035-.129.072-.255.109-.379.014-.037.026-.074.04-.114.026-.075.052-.149.075-.224a9.3,9.3,0,0,1,2.849-4.055l.115-.1c.054-.04.106-.08.164-.126s.143-.106.215-.163a.919.919,0,0,0,.112-.078c.092-.065.187-.129.284-.191a.42.42,0,0,1,.043-.029.28.28,0,0,1,.041-.022c.1-.063.2-.124.3-.187.031-.018.066-.035.1-.055l.264-.146c.052-.023.1-.052.152-.077s.092-.046.144-.069a9.38,9.38,0,0,1,2.8-.849v-2.731h-39.843v11.524a1.153,1.153,0,0,0,1.153,1.153h10.438a1.288,1.288,0,0,1,1.285,1.289,1.288,1.288,0,0,1-1.285,1.288H-4934.4a3.732,3.732,0,0,1-3.732-3.73v-2.7h-2.7a3.7,3.7,0,0,1-2.637-1.094,3.7,3.7,0,0,1-1.093-2.637v-2.7h-2.7a3.733,3.733,0,0,1-3.73-3.728v-23.655a3.735,3.735,0,0,1,3.73-3.732h37.539a3.738,3.738,0,0,1,3.733,3.732v2.705h2.7a3.731,3.731,0,0,1,3.73,3.728v2.7h2.7a3.736,3.736,0,0,1,3.733,3.73v14.864c.241.035.485.078.726.127a9.436,9.436,0,0,1,7.187,11.221,9.369,9.369,0,0,1-4.123,5.919,9.335,9.335,0,0,1-5.061,1.492A9.283,9.283,0,0,1-4896.437,11432Zm.427-15.86-.037.014c-.081.018-.158.037-.238.061-.035.012-.075.021-.109.031a.88.88,0,0,1-.115.035,6.847,6.847,0,0,0-4.6,5.055,6.849,6.849,0,0,0,5.219,8.148,6.851,6.851,0,0,0,8.148-5.222,6.847,6.847,0,0,0-5.219-8.148,6.769,6.769,0,0,0-1.415-.157h-.057A6.969,6.969,0,0,0-4896.009,11416.136Zm-45.98-23.972v23.652a1.152,1.152,0,0,0,.339.818,1.159,1.159,0,0,0,.814.333h2.7V11398.6a3.737,3.737,0,0,1,2.981-3.655,3.786,3.786,0,0,1,.751-.075h32.257v-2.7a1.155,1.155,0,0,0-1.153-1.153h-37.54A1.156,1.156,0,0,0-4941.99,11392.164Zm-6.43-6.433v23.653a1.153,1.153,0,0,0,1.151,1.153h2.7v-18.374a3.733,3.733,0,0,1,3.729-3.728h32.26v-2.705a1.156,1.156,0,0,0-1.156-1.156h-37.536A1.156,1.156,0,0,0-4948.419,11385.731Zm12.865,22.413h39.843v-4.693h-39.843Zm1.036-10.7a1.154,1.154,0,0,0-1.036,1.147v2.275h39.843v-2.275a1.155,1.155,0,0,0-1.153-1.153H-4934.4C-4934.441,11397.443-4934.481,11397.446-4934.519,11397.449Zm41.64,28.714-1.546-1.544-1.547,1.544a1.28,1.28,0,0,1-.912.379,1.277,1.277,0,0,1-.913-.379,1.286,1.286,0,0,1,0-1.822l1.546-1.546-1.546-1.547a1.286,1.286,0,0,1,0-1.822,1.294,1.294,0,0,1,1.825,0l1.547,1.547,1.546-1.547a1.287,1.287,0,0,1,1.819,0,1.286,1.286,0,0,1,0,1.822l-1.546,1.547,1.546,1.546a1.286,1.286,0,0,1,0,1.822,1.264,1.264,0,0,1-.907.379A1.272,1.272,0,0,1-4892.879,11426.163Zm-25.633-.207a1.348,1.348,0,0,1-.241-.074,1.367,1.367,0,0,1-.224-.118,1.258,1.258,0,0,1-.195-.16,1.423,1.423,0,0,1-.161-.2,1.359,1.359,0,0,1-.118-.224,1.151,1.151,0,0,1-.075-.241,1.257,1.257,0,0,1-.023-.252,1.279,1.279,0,0,1,.023-.253,1.227,1.227,0,0,1,.075-.241,1.259,1.259,0,0,1,.118-.221,1.18,1.18,0,0,1,.161-.2,1.316,1.316,0,0,1,.195-.16,1.247,1.247,0,0,1,.224-.121,1.2,1.2,0,0,1,.241-.071,1.241,1.241,0,0,1,.5,0,1.2,1.2,0,0,1,.241.071,1.243,1.243,0,0,1,.224.121,1.205,1.205,0,0,1,.2.16,1.09,1.09,0,0,1,.161.2,1.293,1.293,0,0,1,.118.221,1.3,1.3,0,0,1,.075.241,1.284,1.284,0,0,1,.025.253,1.26,1.26,0,0,1-.025.252,1.211,1.211,0,0,1-.075.241,1.4,1.4,0,0,1-.118.224,1.294,1.294,0,0,1-.161.2,1.156,1.156,0,0,1-.2.16,1.362,1.362,0,0,1-.224.118,1.353,1.353,0,0,1-.241.074,1.409,1.409,0,0,1-.25.026A1.451,1.451,0,0,1-4918.512,11425.956Zm-11.625-6.409a1.289,1.289,0,0,1-1.288-1.291,1.29,1.29,0,0,1,1.288-1.288h10.492a1.29,1.29,0,0,1,1.288,1.288,1.289,1.289,0,0,1-1.288,1.291Z" transform="translate(4950.999 -11382)"/>
  </g>
</svg>
