<svg xmlns="http://www.w3.org/2000/svg" width="35.364" height="34.111" viewBox="0 0 35.364 34.111">
  <defs>
    <style>
      .cls-1 {
        fill: #ffc400;
        stroke: #ffc400;
        stroke-width: 2px;
      }
    </style>
  </defs>
  <path id="Pfad_2771" data-name="Pfad 2771" class="cls-1" d="M94.166,48.224l-7.322-1.064L83.57,40.526a3.591,3.591,0,0,0-1.8-1.677,3.382,3.382,0,0,0-4.384,1.677L74.109,47.16l-7.322,1.064a3.45,3.45,0,0,0-1.912,5.883l5.3,5.164-1.251,7.292a3.45,3.45,0,0,0,5,3.636l6.549-3.443L87.026,70.2a3.451,3.451,0,0,0,5-3.636L90.78,59.272l5.3-5.164A3.45,3.45,0,0,0,94.166,48.224Z" transform="translate(-62.795 -37.543)"/>
</svg>
