<svg xmlns="http://www.w3.org/2000/svg" width="32" height="32" viewBox="0 0 32 32">
  <defs>
    <style>
      .cls-1 {
        fill: #153657;
        opacity: 0.3;
      }

      .cls-2 {
        fill: #fff;
      }
    </style>
  </defs>
  <g id="Gruppe_9023" data-name="Gruppe 9023" transform="translate(-82 -307)">
    <path id="Pfad_3250" data-name="Pfad 3250" class="cls-1" d="M16,0A16,16,0,1,1,0,16,16,16,0,0,1,16,0Z" transform="translate(82 307)"/>
    <g id="Gruppe_8222" data-name="Gruppe 8222" transform="translate(93.647 315.152)">
      <g id="Gruppe_6268" data-name="Gruppe 6268" transform="translate(0)">
        <g id="Gruppe_6267" data-name="Gruppe 6267">
          <path id="Pfad_2524" data-name="Pfad 2524" class="cls-2" d="M240.318,299.951a1.64,1.64,0,0,0,0,3.28,1.64,1.64,0,1,0,0-3.28Z" transform="translate(-236.399 -287.535)"/>
          <path id="Pfad_2525" data-name="Pfad 2525" class="cls-2" d="M223.925,197.548c-2.875,0-4.2,1.7-4.2,2.854a1.221,1.221,0,0,0,1.278,1.214c1.15,0,.681-1.64,2.854-1.64,1.065,0,1.917.468,1.917,1.448,0,1.15-1.193,1.81-1.9,2.407a3.9,3.9,0,0,0-1.427,3.237c0,1.107.3,1.427,1.171,1.427,1.044,0,1.256-.469,1.256-.873a2.674,2.674,0,0,1,1.193-2.662c.575-.447,2.385-1.9,2.385-3.9S226.651,197.548,223.925,197.548Z" transform="translate(-219.73 -197.548)"/>
        </g>
      </g>
    </g>
  </g>
</svg>
